<svg width="960" height="447" viewBox="0 0 960 447" fill="none" xmlns="http://www.w3.org/2000/svg"><path d="M255.619 9.05226C255.322 8.9052 255.353 8.43836 255.666 8.33039C256.855 7.91982 258.888 7.10819 260.057 6.0241C261.347 4.82838 262.408 2.50575 262.945 1.16923C263.072 0.853165 263.564 0.858607 263.684 1.17751C264.189 2.52155 265.189 4.85556 266.431 6.07095C267.602 7.2172 269.588 8.04411 270.743 8.45695C271.05 8.56705 271.083 9.02628 270.792 9.17595C269.639 9.76972 267.592 10.9213 266.386 12.175C265.23 13.3767 264.085 15.2972 263.538 16.274C263.396 16.5261 263.02 16.5222 262.885 16.2667C262.344 15.2463 261.192 13.2054 260.014 11.9743C258.846 10.7544 256.794 9.63534 255.619 9.05226Z" fill="white"/><path d="M200.998 326.731C200.566 326.484 200.653 325.786 201.133 325.651C202.955 325.139 206.08 324.099 207.931 322.573C209.973 320.891 211.771 317.496 212.695 315.536C212.914 315.072 213.653 315.124 213.805 315.613C214.445 317.676 215.741 321.27 217.499 323.204C219.158 325.029 222.067 326.446 223.765 327.167C224.218 327.36 224.226 328.052 223.776 328.251C221.991 329.042 218.817 330.591 216.895 332.368C215.053 334.071 213.165 336.855 212.256 338.274C212.022 338.64 211.457 338.601 211.276 338.205C210.555 336.625 209.004 333.459 207.342 331.506C205.695 329.571 202.712 327.71 200.998 326.731Z" fill="white"/><path d="M44.9273 199.756C44.5257 199.572 44.5427 198.944 44.9526 198.78C46.2597 198.256 48.2912 197.315 49.4624 196.14C50.7575 194.841 51.7822 192.436 52.3388 190.919C52.4954 190.492 53.157 190.473 53.3372 190.891C53.9752 192.369 55.1238 194.7 56.468 195.915C57.7333 197.06 59.7883 197.858 61.0954 198.282C61.5106 198.417 61.5778 199.032 61.1994 199.25C59.9332 199.978 57.8899 201.267 56.6833 202.625C55.5171 203.937 54.391 205.972 53.8059 207.106C53.629 207.449 53.1255 207.464 52.9302 207.131C52.2631 205.995 50.965 203.928 49.6722 202.68C48.4048 201.457 46.2674 200.368 44.9273 199.756Z" fill="white"/><path d="M57.5739 96.4384C57.9698 95.9396 58.1101 95.307 58.1653 94.6726C59.3263 81.3318 69.9951 71.1955 82.7956 72.1669C94.4241 73.0493 102.385 70.0647 117.302 71.6936L367.034 102.44C369.725 102.771 371.607 105.262 371.191 107.941L358.663 188.543C358.402 190.227 357.361 191.608 355.774 192.228C336.057 199.93 203.105 251.337 137.969 262.837C136.253 263.14 134.577 262.454 133.495 261.088L110.076 231.532C109.234 230.47 107.972 229.852 106.652 229.54C95.8441 226.99 81.8168 210.733 91.8568 193.413C92.2864 192.672 92.337 191.756 91.969 190.982C91.0948 189.145 90.5539 187.676 90.2506 186.753C90.0275 186.074 89.5569 185.492 88.9144 185.179L39.095 160.911C37.8576 160.308 36.4296 160.308 35.087 160.611C30.2625 161.699 23.765 160.49 19.2803 156.019C12.8262 149.586 10.1072 137.523 17.5552 128.786C27.5045 117.114 39.4298 121.418 45.7675 124.879C46.6396 125.355 47.7256 124.664 47.6664 123.672C46.5516 104.998 55.012 99.6666 57.5739 96.4384Z" fill="white"/><path fill-rule="evenodd" clip-rule="evenodd" d="M138.532 123.878C138.532 136.538 132.818 147.863 123.829 155.416L123.842 155.421C124.995 155.864 126.307 155.727 127.806 155.391C129.637 154.982 131.023 153.225 132.243 151.678C132.968 150.759 133.635 149.914 134.302 149.469C139.983 145.681 145.47 146.426 150.81 149.02C151.927 149.563 152.358 150.911 151.844 152.042L148.711 158.946C148.094 160.304 146.433 160.726 145.16 159.949C144.13 159.32 143.051 158.809 142.129 158.809C141.372 158.809 139.587 158.988 138.111 159.972C132.198 163.914 129.037 164.499 124.588 162.38C124.718 163.744 124.344 165.064 123.599 166.131L166.976 180.12L163.716 190.228L131.758 180.662C131.438 182.677 130.858 183.901 130.858 185.992C136.479 189.402 137.542 197.697 137.542 204.751C137.542 209.019 136.167 212.965 133.837 216.172L150.965 235.896C152.608 237.788 153.106 240.047 152.076 240.941L140.581 250.924C139.551 251.818 137.384 251.008 135.741 249.116L113.665 223.694C105.057 221.69 98.6443 213.969 98.6443 204.751C98.6443 201.135 99.6313 197.749 101.351 194.848L101.326 194.854L100.073 189.294L100.293 189.244C96.5586 188.201 94.1285 183.752 95.1913 179.513L95.3778 178.769L37.4175 151.354L42.6148 140.366L67.344 152.063C60.4243 144.696 56.1854 134.782 56.1854 123.878C56.1854 101.139 74.6193 82.7051 97.3585 82.7051C120.098 82.7051 138.532 101.139 138.532 123.878Z" fill="url(#paint0_linear_8430_220591)"/><path fill-rule="evenodd" clip-rule="evenodd" d="M49.0166 143.394L42.6148 140.366L37.4175 151.354L44.3474 154.632L49.0166 143.394Z" fill="#E18E70"/><path d="M44.4173 145.24C43.0864 151.211 36.6484 153.31 30.5792 151.957C24.5099 150.604 20.6688 144.667 21.9997 138.696C23.3307 132.725 29.3298 128.982 35.399 130.334C41.4682 131.687 45.7483 139.269 44.4173 145.24Z" fill="#E18E70"/><path fill-rule="evenodd" clip-rule="evenodd" d="M130.148 182.518L100.074 189.293L101.326 194.853L114.193 191.955L112.941 186.395L118.18 185.215L119.433 190.774L131.4 188.079L130.148 182.518Z" fill="black" fill-opacity="0.2"/><path fill-rule="evenodd" clip-rule="evenodd" d="M67.3452 152.061L61.314 149.208C68.0931 158.836 78.6329 165.626 90.7986 167.444C90.8143 167.958 90.8771 168.478 90.9903 168.998C91.9891 173.59 96.5208 176.502 101.112 175.503L120.794 171.222C123.282 170.68 125.276 169.102 126.423 167.039L123.601 166.129C122.817 167.252 121.625 168.094 120.182 168.408L100.5 172.689C97.4628 173.35 94.465 171.423 93.8043 168.386C93.7602 168.184 93.7276 167.981 93.7062 167.78C93.5995 166.78 93.7655 165.801 94.1505 164.926C93.1571 164.85 92.1736 164.738 91.2013 164.592C81.8499 163.189 73.5276 158.642 67.3452 152.061Z" fill="black" fill-opacity="0.2"/><path fill-rule="evenodd" clip-rule="evenodd" d="M86.9604 163.726C90.011 163.125 94.3117 161.898 98.5263 159.821C104.407 156.924 109.814 152.528 111.711 146.193L114.7 147.088C112.439 154.635 106.114 159.56 99.9052 162.62C98.03 163.544 96.1375 164.312 94.3266 164.94C91.8012 164.756 89.339 164.345 86.9604 163.726Z" fill="black" fill-opacity="0.2"/><path d="M125.682 125.878C125.682 143.709 111.226 158.164 93.3947 158.164C75.5632 158.164 61.1079 143.709 61.1079 125.878C61.1079 108.046 75.5632 93.5908 93.3947 93.5908C111.226 93.5908 125.682 108.046 125.682 125.878Z" fill="#E18E70"/><path fill-rule="evenodd" clip-rule="evenodd" d="M70.701 131.172C67.4427 132.483 65.0352 129.568 64.3224 126.533C63.4674 122.892 65.1346 118.964 68.393 117.653C73.8627 115.451 77.5514 119.678 78.7219 125.827C80.2324 133.762 72.0473 130.63 70.701 131.172Z" fill="white"/><path fill-rule="evenodd" clip-rule="evenodd" d="M97.8985 125.48C98.0023 125.46 98.1108 125.457 98.2133 125.471C101.889 125.967 104.733 128.993 105.76 125.471C106.704 122.23 106.539 115.228 99.5823 112.91C93.7518 110.967 85.4793 114.997 84.2336 122.848C83.6524 126.511 85.539 131.763 89.2025 132.344C92.6352 132.889 97.0259 128.768 97.8985 125.48ZM97.6648 125.562C97.6648 125.562 97.6653 125.562 97.6661 125.561L97.6648 125.562Z" fill="white"/><path fill-rule="evenodd" clip-rule="evenodd" d="M69.1746 125.493C70.7945 125.264 71.922 123.765 71.693 122.146C71.6291 121.694 71.4663 121.28 71.2297 120.923C71.5461 120.77 71.8863 120.663 72.2455 120.613C74.4761 120.297 76.5949 122.238 76.9779 124.948L77.4113 128.014C77.7944 130.724 76.2966 133.176 74.0659 133.491C71.8353 133.806 69.7165 131.866 69.3335 129.156L68.9 126.09C68.873 125.899 68.8554 125.709 68.8467 125.521C68.9552 125.518 69.0646 125.509 69.1746 125.493Z" fill="#3D3D3D"/><path fill-rule="evenodd" clip-rule="evenodd" d="M85.6529 123.024C85.6556 123.046 85.6586 123.068 85.6617 123.09L86.0695 127.122C86.4413 129.752 88.8745 131.583 91.5043 131.211C94.1341 130.839 95.9646 128.406 95.5929 125.776L95.185 121.744C94.8133 119.114 92.3801 117.283 89.7503 117.655C89.1912 117.734 88.6683 117.906 88.1949 118.154C88.4905 118.553 88.7453 119.092 88.8178 119.604C89.0501 121.248 87.906 122.768 86.2624 123.001C86.0922 123.025 85.8446 123.03 85.6529 123.024Z" fill="#3D3D3D"/><path d="M79.4293 131.513C77.2675 129.277 71.534 127.169 64.7554 132.24L65.996 136.048L78.5736 135.235L79.4293 131.513Z" fill="#E18E70"/><path d="M107.964 125.051C104.086 123.497 94.2746 122.442 85.5474 133.821H108.307L107.964 125.051Z" fill="#E18E70"/><path fill-rule="evenodd" clip-rule="evenodd" d="M97.7191 131.04C100.595 131.831 102.285 134.803 101.494 137.678C101.022 139.395 100.095 142.191 97.7415 144.513C95.2256 146.994 92.6075 147.771 88.2417 147.771C85.4873 147.771 82.0806 145.679 82.0806 142.697C82.0806 139.715 84.3896 137.516 87.3717 137.516C89.4568 137.516 90.1263 136.681 90.2563 136.553C90.5481 136.265 90.7558 135.998 91.0811 134.815C91.8718 131.94 94.8437 130.25 97.7191 131.04Z" fill="#A41414"/><path fill-rule="evenodd" clip-rule="evenodd" d="M101.612 137.145C101.582 137.322 101.543 137.5 101.494 137.677C101.022 139.394 100.096 142.19 97.7417 144.512C96.3907 145.844 95.0101 146.685 93.3452 147.178C93.6137 141.426 95.7149 137.753 101.612 137.145Z" fill="#D22121"/><path d="M64.4152 107.881C68.3204 114.316 92.7679 121.678 106.856 96.5163C99.0592 92.7636 89.55 93.0485 83.8095 95.0204C75.8911 97.7405 75.5215 86.9813 80.472 83.0508C81.1553 82.5083 81.1556 81.35 80.2896 81.2429C71.1176 80.1084 55.455 93.1175 64.4152 107.881Z" fill="#3D3D3D"/><path opacity="0.9" d="M82.7052 134.76C82.6491 136.352 81.2119 137.593 79.4953 137.532C77.7786 137.472 76.4325 136.132 76.4887 134.54C76.5449 132.949 79.6687 128.943 79.7982 128.948C79.9277 128.952 82.7614 133.168 82.7052 134.76Z" fill="#9E4D31"/><path d="M147.825 55.46C150.781 31.4132 175.661 12.6899 199.708 15.6455L945.008 102.25L471.265 213.541L436.618 228.497C340.593 266.051 138.97 255.171 150.06 174.767C152.531 156.858 158.912 143.477 173.61 135.407C163.539 134.377 146.259 113.664 161.95 93.5201C151.723 84.2024 146.014 70.1957 147.825 55.46Z" fill="white"/><path fill-rule="evenodd" clip-rule="evenodd" d="M232.094 51.4094C237.214 70.8688 223.315 91.2744 203.856 96.3946C184.396 101.515 164.471 89.8904 159.351 70.431C154.23 50.9715 167.152 30.0813 186.612 24.9611C209.331 18.9833 226.973 31.9499 232.094 51.4094ZM261.222 121.436C261.63 122.122 262.048 122.826 262.506 123.556L278.364 114.097C274.697 106.763 267.234 98.7012 260.514 93.3589C257.224 90.7434 252.616 91.2769 249.65 94.254C244.141 99.7819 236.233 108.132 224.007 121.049C218.912 120.932 191.153 124.673 187.848 127.418C187.1 128.039 185.484 128.866 183.481 129.89C180.119 131.61 175.666 133.888 172.399 136.688C166.534 141.713 163.785 148.289 163.785 157.515L173.235 169.495L177.513 165.943C177.73 167.805 178.08 169.675 178.571 171.54C182.904 188.006 196.894 199.361 212.863 201.123C220.163 210.137 230.357 216.075 243.115 219.683L254.942 202.225L241.32 192.997C255.69 181.971 265.22 161.669 260.891 145.216C259.189 138.748 251.173 132.137 244.993 128.676C247.919 122.053 249.914 119.481 253.505 114.9C254.17 114.052 255.41 113.908 256.188 114.652C258.518 116.882 259.804 119.047 261.222 121.436Z" fill="url(#paint1_linear_8430_220591)"/><path d="M280.529 114.839C284.376 119.05 283.942 128.331 276.19 130.719C270.107 132.593 262.908 134.488 260.18 125.633C258.362 119.732 262.382 113.805 268.466 111.931C272.817 110.59 276.681 110.629 280.529 114.839Z" fill="#C6775C"/><path fill-rule="evenodd" clip-rule="evenodd" d="M189.551 143.431C190.096 142.59 191.22 142.351 192.061 142.896L196.412 145.717L199.233 141.367C199.778 140.526 200.902 140.286 201.743 140.831C202.584 141.377 202.824 142.501 202.278 143.342L198.47 149.215C197.924 150.056 196.801 150.295 195.96 149.75L190.086 145.942C189.245 145.396 189.006 144.272 189.551 143.431Z" fill="black" fill-opacity="0.2"/><path fill-rule="evenodd" clip-rule="evenodd" d="M206.328 139.935C206.874 139.094 207.998 138.855 208.839 139.4L213.189 142.221L216.01 137.871C216.555 137.03 217.679 136.79 218.52 137.335C219.361 137.881 219.601 139.005 219.056 139.846L215.247 145.719C214.702 146.56 213.578 146.799 212.737 146.254L206.864 142.446C206.023 141.9 205.783 140.776 206.328 139.935Z" fill="black" fill-opacity="0.2"/><path opacity="0.2" fill-rule="evenodd" clip-rule="evenodd" d="M254.197 158.923C239.596 159.911 203.764 167.811 183.401 183.997C184.359 186.092 185.332 188.183 186.321 190.272C207.239 173.805 244.412 166.156 257.826 165.595C256.65 163.341 255.382 161.163 254.197 158.923Z" fill="black"/><path fill-rule="evenodd" clip-rule="evenodd" d="M187.98 158.509C188.525 157.668 189.649 157.428 190.49 157.973L194.84 160.794L197.661 156.444C198.207 155.603 199.331 155.363 200.172 155.909C201.013 156.454 201.252 157.578 200.707 158.419L196.898 164.292C196.353 165.133 195.229 165.373 194.388 164.827L188.515 161.019C187.674 160.473 187.435 159.35 187.98 158.509Z" fill="black" fill-opacity="0.2"/><path fill-rule="evenodd" clip-rule="evenodd" d="M204.757 155.013C205.303 154.172 206.426 153.932 207.267 154.477L211.618 157.298L214.439 152.948C214.984 152.107 216.108 151.867 216.949 152.413C217.79 152.958 218.03 154.082 217.484 154.923L213.676 160.796C213.13 161.637 212.007 161.876 211.166 161.331L205.293 157.523C204.452 156.977 204.212 155.854 204.757 155.013Z" fill="black" fill-opacity="0.2"/><path fill-rule="evenodd" clip-rule="evenodd" d="M221.921 33.3757C220.551 32.0504 220.419 31.9714 219.463 31.1374C215.648 32.3827 204.497 36.7892 199.549 39.9366C193.174 43.9921 186.382 49.4091 180.978 55.5284L183.676 57.9111C188.811 52.0971 195.325 46.8899 201.481 42.9739C206.36 39.8708 218.57 34.4714 221.921 33.3757Z" fill="black" fill-opacity="0.2"/><path d="M168.094 74.1084C168.094 74.1084 173.339 59.8081 181.071 55.4514C190.711 64.468 214.935 66.2033 214.935 66.2033L222.241 95.925C225.157 108.515 217.091 121.138 204.224 124.118C191.358 127.098 178.563 119.307 175.647 106.717L168.094 74.1084Z" fill="#C6775C"/><path fill-rule="evenodd" clip-rule="evenodd" d="M165.653 115.746C167.907 125.719 177.819 131.976 187.792 129.721L222.751 121.818C224.008 121.534 225.206 121.128 226.336 120.616C228.987 116.984 232.333 112.722 236.742 107.795C237.322 105.202 237.351 102.443 236.727 99.6788C234.472 89.706 224.56 83.449 214.587 85.7034L179.628 93.6063C169.655 95.8608 163.398 105.773 165.653 115.746Z" fill="#3D3D3D"/><path fill-rule="evenodd" clip-rule="evenodd" d="M190.013 107.192C189.335 104.192 191.218 101.211 194.218 100.533C194.637 100.439 195.764 100.056 196.956 99.2695C198.122 98.5006 199.058 97.5411 199.59 96.4263C200.916 93.6514 204.24 92.4767 207.015 93.8025C209.79 95.1284 210.965 98.4526 209.639 101.227C206.441 107.92 199.691 110.715 196.671 111.397C193.671 112.074 190.69 110.191 190.013 107.192Z" fill="white"/><path d="M171.941 80.0584C170.87 75.9865 172.631 71.9936 175.875 71.14C179.119 70.2865 182.618 72.8955 183.689 76.9674L184.797 81.1805C185.869 85.2524 184.108 89.2453 180.864 90.0988C177.62 90.9524 174.121 88.3434 173.05 84.2715L171.941 80.0584Z" fill="white"/><path d="M176.509 79.4812C175.99 77.5106 176.919 75.5581 178.583 75.1202C180.247 74.6823 182.017 75.9249 182.535 77.8955L183.546 81.7381C184.065 83.7087 183.136 85.6612 181.472 86.0991C179.808 86.537 178.038 85.2944 177.52 83.3238L176.509 79.4812Z" fill="#3D3D3D"/><path d="M203.343 76.808C204.459 81.0524 201.998 85.3789 197.846 86.4716C193.693 87.5643 189.421 85.0093 188.304 80.7649L187.149 76.3733C186.032 72.1289 188.493 67.8024 192.646 66.7097C196.799 65.617 201.07 68.172 202.187 72.4164L203.343 76.808Z" fill="white"/><path d="M177.792 76.8342C178.19 78.3501 177.515 79.8418 176.283 80.166C175.05 80.4902 173.728 79.5242 173.329 78.0084C172.93 76.4925 173.606 75.0008 174.838 74.6766C176.07 74.3523 177.393 75.3183 177.792 76.8342Z" fill="white"/><path fill-rule="evenodd" clip-rule="evenodd" d="M189.092 76.1582C190.575 75.7679 191.454 74.2227 191.056 72.7069C190.991 72.463 190.898 72.2347 190.78 72.0249C191.046 71.8726 191.335 71.7526 191.644 71.6713C193.572 71.164 195.555 72.3502 196.074 74.3208L197.085 78.1634C197.603 80.1341 196.461 82.1428 194.533 82.6501C192.605 83.1574 190.621 81.9712 190.103 80.0006L189.092 76.1583C189.092 76.1583 189.092 76.1582 189.092 76.1582Z" fill="#3D3D3D"/><path d="M189.855 89.1309C190.541 91.7413 188.982 94.4142 186.372 95.1011C183.761 95.788 181.088 94.2286 180.401 91.6182C179.715 89.0078 181.274 86.3348 183.884 85.6479C186.495 84.9611 189.168 86.5205 189.855 89.1309Z" fill="#C6775C"/><path d="M153.633 162.258C154.558 162.154 155.39 161.576 155.779 160.73C161.728 147.761 171.186 148.588 176.466 149.068C177.814 149.19 179.016 148.423 179.828 147.341C187.546 138.462 199.306 139.385 206.444 144.209C214.514 149.663 211.569 163.114 210.162 167.44C218.594 172.888 219.406 176.513 219.839 184.952C220.322 194.368 209.712 201.059 211.569 210.303C212.868 216.764 214.891 218.385 219.839 222.738C228.086 229.992 246.566 231.493 246.566 231.493L237.772 257.226L256.243 279.118L295.524 299.058L161.508 287.037C148.638 284.722 153.196 287.765 143.069 290.658C134.901 292.992 123.101 290.975 117.566 277.533C113.831 268.462 118.228 262.147 126.534 262.167C128.953 262.172 127.17 258.864 126.534 257.226C116.592 231.616 121.187 165.895 153.633 162.258Z" fill="white"/><path fill-rule="evenodd" clip-rule="evenodd" d="M125.325 269.76C127.481 268.738 130.057 269.658 131.079 271.814C131.515 272.736 132.436 273.86 133.765 274.952C135.07 276.025 136.502 276.847 137.636 277.288C139.86 278.153 140.961 280.656 140.097 282.88C139.232 285.103 136.728 286.205 134.505 285.34C132.437 284.536 130.221 283.222 128.279 281.627C126.362 280.05 124.436 277.972 123.271 275.513C122.25 273.357 123.169 270.781 125.325 269.76Z" fill="#E619DF"/><path fill-rule="evenodd" clip-rule="evenodd" d="M209.427 280.782C207.408 279.511 206.801 276.844 208.072 274.825C209.512 272.537 210.465 269.226 211.486 265.053C212.053 262.736 214.391 261.316 216.708 261.883C219.026 262.45 220.445 264.788 219.878 267.106C218.902 271.095 217.684 275.771 215.384 279.427C214.113 281.446 211.446 282.053 209.427 280.782Z" fill="#E619DF"/><path d="M161.505 164.011C159.409 171.015 163.388 178.392 170.392 180.488C177.396 182.584 184.773 178.606 186.869 171.602C188.965 164.598 184.987 157.221 177.983 155.125C170.979 153.028 163.602 157.007 161.505 164.011Z" fill="#FF9600"/><path d="M184.783 150.722C179.439 155.967 178.74 163.922 183.223 168.49C187.706 173.058 197.233 171.588 202.577 166.343C207.723 161.293 207.436 154.397 202.578 149.447C198.095 144.88 190.128 145.477 184.783 150.722Z" fill="#FF9600"/><path d="M203.28 217.97L208.569 218.113C211.379 218.189 213.582 220.552 213.462 223.36L213.403 224.732C213.356 225.823 212.69 226.791 211.687 227.224L233.812 233.312C236.589 234.077 238.148 237.023 237.217 239.749L237.037 240.278C235.69 244.219 231.546 246.468 227.508 245.448L197.062 237.762L203.28 217.97Z" fill="#FFC6B7"/><path d="M191.906 271.824L157.731 274.169C150.009 274.754 142.211 272.056 138.769 265.118C120.424 228.144 131.841 188.259 144.584 172.706C146.531 170.33 149.339 168.893 152.364 168.36C168.887 165.447 189.316 167.813 204.405 170.81C211.327 172.185 217.299 182.25 213.87 188.419C209.043 197.101 204.202 209.003 202.711 222.519C201.639 232.232 205.194 242.746 208.569 250.653C212.673 260.271 205.435 271.062 191.906 271.824Z" fill="#FFC6B7"/><path d="M157.571 274.988L191.875 272.391C204.429 271.644 214.332 262.679 209.483 251.318C208.044 247.947 206.406 243.981 205.084 239.787L222.578 244.204C223.556 239.56 226.69 234.09 228.541 231.862L211.687 227.224C212.69 226.791 213.356 225.823 213.403 224.732L213.462 223.36C213.582 220.552 211.379 218.189 208.569 218.113L203.746 217.982C186.388 217.542 157.122 217.056 129.289 219.201C128.631 233.688 131.098 249.657 138.769 265.118C142.211 272.056 149.848 275.573 157.571 274.988Z" fill="url(#paint2_linear_8430_220591)"/><path opacity="0.2" fill-rule="evenodd" clip-rule="evenodd" d="M206.863 245.489C192.736 243.931 156.285 242.217 131.76 245.753C131.983 246.687 132.222 247.623 132.477 248.559C157.618 244.99 195.255 246.978 208.12 248.543C207.742 247.518 207.253 246.51 206.863 245.489Z" fill="black"/><path fill-rule="evenodd" clip-rule="evenodd" d="M140.941 225.027C142.001 225.027 142.861 225.887 142.861 226.947C142.861 230.721 144.807 234.712 149.411 236.346C150.41 236.701 150.933 237.798 150.578 238.797C150.224 239.797 149.126 240.319 148.127 239.965C141.7 237.684 139.021 232.015 139.021 226.947C139.021 225.887 139.881 225.027 140.941 225.027Z" fill="white"/><path fill-rule="evenodd" clip-rule="evenodd" d="M148.135 225.011C148.966 224.465 150.082 224.695 150.628 225.525C151.191 226.38 151.655 226.774 152.014 226.973C152.359 227.164 152.747 227.253 153.314 227.252C153.876 227.25 154.49 227.164 155.338 227.046C155.427 227.034 155.518 227.021 155.612 227.008C156.558 226.877 157.687 226.734 158.974 226.734C160.398 226.734 161.516 227.098 162.412 227.68C163.245 228.222 163.797 228.903 164.141 229.326C164.149 229.337 164.157 229.347 164.165 229.356C164.791 230.128 164.673 231.262 163.902 231.888C163.13 232.515 161.996 232.397 161.37 231.625C161.013 231.185 160.771 230.907 160.45 230.698C160.172 230.517 159.742 230.334 158.974 230.334C157.947 230.334 157.023 230.447 156.106 230.574C156.01 230.587 155.913 230.601 155.815 230.615C155.021 230.726 154.149 230.849 153.324 230.851C152.341 230.854 151.303 230.693 150.272 230.123C149.257 229.562 148.399 228.685 147.621 227.504C147.075 226.674 147.305 225.558 148.135 225.011Z" fill="white"/><path fill-rule="evenodd" clip-rule="evenodd" d="M207.24 203.088C209.2 197.567 211.537 192.617 213.871 188.419C217.3 182.25 211.328 172.185 204.405 170.81C200.931 170.12 197.174 169.464 193.247 168.897C192.143 172.489 190.854 176.62 189.73 180.064C187.115 188.082 192.938 195.183 201.49 200.223L207.24 203.088Z" fill="#FFB67A"/><path d="M142.173 182.112C143.565 176.803 147.545 174.264 150.59 175.117C155.252 176.423 154.725 179.463 153.476 186.26C152.228 193.057 153.35 186.949 152.361 192.33C151.373 197.711 147.946 200.078 144.557 199.044C141.168 198.01 139.183 194.644 140.347 189.405C141.511 184.167 140.781 187.421 142.173 182.112Z" fill="white"/><path d="M157.95 183.373C158.924 178.069 162.876 174.733 166.776 175.923C171.148 177.257 173.047 182.377 172.073 187.681L170.974 193.664C169.999 198.968 166.048 202.304 162.148 201.114C158.248 199.924 155.877 194.66 156.851 189.356L157.95 183.373Z" fill="white"/><path fill-rule="evenodd" clip-rule="evenodd" d="M145.994 185.269C147.37 185.688 148.764 184.511 149.108 182.64C149.24 181.924 149.198 181.211 149.02 180.579C149.363 180.526 149.716 180.548 150.068 180.655C151.757 181.171 152.784 183.45 152.362 185.747L151.4 190.984C150.978 193.281 149.267 194.725 147.578 194.21C145.889 193.695 144.862 191.415 145.284 189.119L145.992 185.268C145.992 185.268 145.993 185.268 145.994 185.269Z" fill="#3D3D3D"/><path fill-rule="evenodd" clip-rule="evenodd" d="M158.888 185.776C160.264 186.196 161.658 185.019 162.002 183.147C162.133 182.432 162.092 181.719 161.915 181.088C162.257 181.035 162.61 181.057 162.963 181.164C164.651 181.679 165.678 183.959 165.256 186.256L164.294 191.493C163.872 193.79 162.161 195.234 160.473 194.719C158.784 194.204 157.757 191.924 158.179 189.627L158.886 185.776C158.887 185.776 158.887 185.776 158.888 185.776Z" fill="#3D3D3D"/><path d="M201.466 192.667C201.466 195.824 198.907 198.383 195.75 198.383C192.593 198.383 190.034 195.824 190.034 192.667C190.034 189.51 192.593 186.951 195.75 186.951C198.907 186.951 201.466 189.51 201.466 192.667Z" fill="#FFC6B7"/><path d="M171.964 199.558C167.773 192.773 156.646 193.74 154.704 201.251L174.693 203.014L171.964 199.558Z" fill="#FFC6B7"/><path fill-rule="evenodd" clip-rule="evenodd" d="M165.474 198.681C167.803 199.946 168.667 202.86 167.402 205.189C166.195 207.412 165.02 209.405 162.852 210.967C160.554 212.623 157.857 213.118 155.055 213.118C152.404 213.118 150.046 210.787 150.046 208.646C150.046 205.995 151.309 204.759 154.45 204.011C156.567 203.507 158.07 201.935 158.785 200.617C160.05 198.287 163.144 197.417 165.474 198.681Z" fill="white"/><path d="M153.876 200.519C153.131 202.26 151.115 203.067 149.374 202.321C147.634 201.576 146.827 199.561 147.572 197.82C148.317 196.079 153.067 193.334 153.198 193.391C153.33 193.447 154.622 198.778 153.876 200.519Z" fill="#EE9583"/><path d="M241.398 282.821C223.084 280.497 221.606 261.368 232.1 252.629C234.191 250.888 239.296 250.666 238.461 240.273C237.077 223.039 233.943 216.437 233.916 197.27C233.671 194.221 230.859 191.347 228.938 188.086C216.127 166.325 226.453 150.705 241.253 143.274C253.147 137.302 257.243 139.078 262.458 140.526C265.987 141.505 267.002 134.762 271.352 132.79C288.983 124.796 303.234 138.872 321.918 139.14L397.906 142.345L471.621 145.455C471.621 145.455 473.971 146.524 474.073 147.818L945.008 102.25L945.508 446.25C945.508 446.25 312.349 378.891 289.939 376.4C267.528 373.909 277.888 358.381 274.23 355.996C262.917 348.621 266.992 350.184 262.534 342.003C259.027 335.567 242.493 325.626 238.461 319.029C233.278 310.551 238.932 297.6 241.398 292.844C245.317 287.233 243.694 293.602 245.594 288.752C246.579 286.237 245.156 283.298 241.398 282.821Z" fill="white"/><path fill-rule="evenodd" clip-rule="evenodd" d="M375.173 341.896C372.691 341.893 370.791 340.067 369.92 337.545C368.857 334.467 367.627 331.321 365.308 326.649C364.22 324.458 363.838 322.028 365.739 320.432C367.64 318.836 371.29 318.697 372.929 321.1C376.685 326.608 378.896 331.298 379.535 337.057C379.8 339.447 377.655 341.898 375.173 341.896Z" fill="#E619DF"/><path fill-rule="evenodd" clip-rule="evenodd" d="M282.424 366.642C281.141 364.518 281.823 361.755 283.947 360.472C286.456 358.957 289.379 355.343 291.111 350.251C291.91 347.901 294.463 346.644 296.813 347.444C299.163 348.243 300.477 351.088 299.797 353.657C297.992 360.472 294.313 365.19 289.502 368.097C287.377 369.38 283.707 368.767 282.424 366.642Z" fill="#E619DF"/><path d="M272.419 280.199C274.291 276.224 272.55 271.468 268.53 269.575L245.389 259.212L238.527 272.073L261.752 283.968C265.772 285.861 270.548 284.173 272.419 280.199Z" fill="#A46648"/><path d="M260.012 282.589C263.005 285.551 268.107 285.247 271.408 281.911L289.918 262.549L280.544 252.188L260.572 271.187C257.271 274.523 257.02 279.628 260.012 282.589Z" fill="#A46648"/><path d="M253.816 267.591C251.399 273.095 247.535 277.299 242.479 276.135C237.422 274.971 234.332 269.647 235.576 264.244C236.819 258.841 241.927 255.404 246.983 256.568C252.039 257.732 255.943 262.749 253.816 267.591Z" fill="#A46648"/><path fill-rule="evenodd" clip-rule="evenodd" d="M274.566 255.066L273.782 244.619L298.29 245.583L299.164 253.461C306.106 256.44 309.703 263.456 309.432 269.007C309.28 272.132 306.609 274.206 305.339 274.636L305.79 280.774C309.095 282.031 311.685 284.941 312.603 286.69C322.165 291.681 343.907 302.257 350.997 305.696C351.492 304.846 352.553 304.506 353.451 304.915L361.052 308.373C362.075 308.839 362.481 310.08 361.931 311.06L349.495 333.214C349.007 334.084 347.934 334.435 347.026 334.022L339.426 330.564C338.403 330.099 337.996 328.857 338.547 327.877L338.886 327.273L293.861 303.098C293.674 302.997 293.452 302.985 293.255 303.063L279.207 308.642C278.019 309.113 277.772 310.686 278.759 311.499L292.119 322.513L292.171 322.454C292.833 321.706 293.957 321.59 294.758 322.187L301.513 327.226C302.414 327.897 302.548 329.195 301.804 330.036L285.17 348.849C284.509 349.597 283.384 349.713 282.584 349.116L275.828 344.077C274.928 343.405 274.794 342.107 275.538 341.266L275.82 340.947C269.689 335.53 253.487 321.159 250.198 317.656C246.122 313.315 244.372 301.486 253.426 295.096C261.203 289.607 266.624 286.734 270.851 284.493C271.73 284.027 272.557 283.589 273.343 283.16L273.265 283.166L272.88 278.03C265.064 273.208 265.016 261.023 274.566 255.066Z" fill="url(#paint3_linear_8430_220591)"/><path d="M318.723 247.059C316.057 243.16 310.736 242.161 306.837 244.827L293.192 254.158C289.294 256.824 288.295 262.146 290.961 266.044C293.626 269.943 298.948 270.942 302.846 268.276L316.492 258.945C320.39 256.279 321.389 250.957 318.723 247.059Z" fill="#A46648"/><path d="M308.591 243.79C304.614 246.145 303.619 251.818 306.368 256.459L315.369 271.657C318.118 276.298 323.57 278.152 327.547 275.797C331.524 273.442 332.519 267.769 329.77 263.128L320.769 247.93C318.02 243.289 312.567 241.435 308.591 243.79Z" fill="#A46648"/><path d="M317.258 269.262C321.46 264.963 324.285 260.065 328.607 262.936C330.848 264.426 334.099 266.469 335.042 269.633C335.917 272.57 335.026 276.69 333.549 278.912C330.481 283.53 324.088 284.857 319.767 281.986C315.446 279.114 313.561 273.043 317.258 269.262Z" fill="#A46648"/><path d="M305.33 274.611L272.868 277.997L273.262 283.214L286.704 282.227L286.329 276.593L290.686 276.139L291.076 281.906L305.787 280.826L305.33 274.611Z" fill="black" fill-opacity="0.2"/><path fill-rule="evenodd" clip-rule="evenodd" d="M275.239 341.708C275.314 341.552 275.412 341.404 275.533 341.267L275.815 340.948C275.167 340.375 274.405 339.702 273.559 338.952L289.735 320.553L292.114 322.514L275.239 341.708Z" fill="black" fill-opacity="0.2"/><path fill-rule="evenodd" clip-rule="evenodd" d="M338.858 327.262L336.142 325.804L348.253 304.368C349.33 304.891 350.267 305.346 351.031 305.716L338.858 327.262Z" fill="black" fill-opacity="0.2"/><path d="M230.05 171.056C231.252 177.98 233.851 185.989 240.643 191.356L305.99 188.055L311.218 186.624L312.709 186.584C321.768 186.341 329.176 179.387 329.795 170.346C329.908 168.695 330.019 167.032 330.126 165.396C330.777 155.497 323.098 147.014 313.394 149.071C309.897 149.812 306.852 150.807 305.161 152.065C308.949 146.936 307.01 139.668 300.959 137.66C292.161 134.741 280.607 131.984 274.781 135.098C264.621 140.528 263.302 152.609 263.302 152.609C262.646 147.567 257.557 144.382 252.849 146.304C249.91 147.504 246.793 148.901 244.368 150.288C241.674 151.828 238.619 154.057 235.942 156.158C231.434 159.697 229.069 165.409 230.05 171.056Z" fill="#3D3D3D"/><path d="M295.645 188.505C302.742 187.691 308.743 190.826 309.557 197.923L313.244 230.051C314.201 238.39 308.216 245.927 299.876 246.884L262.608 251.16C254.269 252.117 246.733 246.132 245.776 237.793L242.089 205.665C241.275 198.568 246.368 192.154 253.466 191.339L295.645 188.505Z" fill="#A46648"/><path d="M245.512 214.931C244.99 210.383 247.54 206.355 251.207 205.934C254.874 205.514 258.27 208.859 258.792 213.408L259.38 218.538C259.902 223.086 258.493 226.983 253.685 227.535C249.104 228.06 246.622 224.61 246.101 220.062L245.512 214.931Z" fill="white"/><path d="M263.454 212.874C262.932 208.326 266.196 204.216 270.744 203.694C275.293 203.172 279.403 206.436 279.925 210.984L280.513 216.114C281.035 220.662 277.771 224.772 273.223 225.294C268.675 225.816 264.565 222.552 264.043 218.004L263.454 212.874Z" fill="white"/><path fill-rule="evenodd" clip-rule="evenodd" d="M250.19 216.488C251.661 216.319 252.701 214.852 252.512 213.212C252.433 212.523 252.15 211.913 251.739 211.45C251.933 211.385 252.136 211.339 252.345 211.315C254.15 211.108 255.801 212.572 256.032 214.585L256.559 219.175C256.79 221.189 255.513 222.988 253.708 223.196C251.903 223.403 250.253 221.939 250.022 219.926L249.627 216.487C249.811 216.508 249.999 216.509 250.19 216.488Z" fill="#3D3D3D"/><path fill-rule="evenodd" clip-rule="evenodd" d="M264.611 214.831C266.25 214.641 267.425 213.159 267.237 211.52C267.165 210.893 266.904 210.334 266.517 209.892C266.879 209.717 267.276 209.599 267.698 209.55C269.711 209.319 271.531 210.764 271.762 212.777L272.288 217.367C272.519 219.38 271.075 221.2 269.061 221.431C267.048 221.662 265.229 220.217 264.998 218.204L264.611 214.831Z" fill="#3D3D3D"/><path d="M268.062 230.14C268.761 224.39 273.078 220.492 282.003 221.428L282.488 224.508L268.062 230.14Z" fill="#A46648"/><path fill-rule="evenodd" clip-rule="evenodd" d="M267.275 235.621C267.277 234.912 267.853 234.338 268.562 234.34C272.401 234.347 275.264 231.916 276.712 228.674C277.002 228.026 277.761 227.736 278.408 228.025C279.056 228.314 279.346 229.074 279.057 229.721C277.3 233.653 273.647 236.917 268.557 236.908C267.848 236.906 267.274 236.33 267.275 235.621Z" fill="#86401F"/><path fill-rule="evenodd" clip-rule="evenodd" d="M267.275 235.621C267.277 234.912 267.853 234.338 268.562 234.34C272.401 234.347 275.264 231.916 276.712 228.674C277.002 228.026 277.761 227.736 278.408 228.025C279.056 228.314 279.346 229.074 279.057 229.721C277.3 233.653 273.647 236.917 268.557 236.908C267.848 236.906 267.274 236.33 267.275 235.621Z" fill="#86401F"/><path d="M244.577 217.233C243.817 210.609 244.737 204.964 251.361 204.204L269.351 202.14C275.975 201.38 281.961 206.133 282.721 212.757L282.962 214.856C282.962 214.856 270.023 216.479 261.829 217.446C255.128 218.236 244.818 219.332 244.818 219.332L244.577 217.233Z" fill="#A46648"/><path fill-rule="evenodd" clip-rule="evenodd" d="M278.087 207.941C277.672 208.517 276.87 208.648 276.294 208.234C273.178 205.992 269.435 206.3 266.369 208.091C265.757 208.449 264.97 208.243 264.613 207.631C264.255 207.018 264.461 206.232 265.073 205.874C268.792 203.701 273.662 203.176 277.794 206.149C278.37 206.563 278.501 207.366 278.087 207.941Z" fill="#86401F"/><path fill-rule="evenodd" clip-rule="evenodd" d="M278.087 207.941C277.672 208.517 276.87 208.648 276.294 208.234C273.178 205.992 269.435 206.3 266.369 208.091C265.757 208.449 264.97 208.243 264.613 207.631C264.255 207.018 264.461 206.232 265.073 205.874C268.792 203.701 273.662 203.176 277.794 206.149C278.37 206.563 278.501 207.366 278.087 207.941Z" fill="#86401F"/><path fill-rule="evenodd" clip-rule="evenodd" d="M248.589 212.561C248.663 211.855 249.294 211.344 250 211.417L257.995 212.254C258.701 212.328 259.212 212.96 259.139 213.665C259.065 214.37 258.433 214.882 257.728 214.808L249.732 213.971C249.027 213.898 248.515 213.266 248.589 212.561Z" fill="#86401F"/><path fill-rule="evenodd" clip-rule="evenodd" d="M248.589 212.561C248.663 211.855 249.294 211.344 250 211.417L257.995 212.254C258.701 212.328 259.212 212.96 259.139 213.665C259.065 214.37 258.433 214.882 257.728 214.808L249.732 213.971C249.027 213.898 248.515 213.266 248.589 212.561Z" fill="#86401F"/><path fill-rule="evenodd" clip-rule="evenodd" d="M310.371 205.029L312.054 219.694C303.889 218.57 300.004 212.026 299.002 206.313L310.371 205.029Z" fill="#3D3D3D"/><path d="M312.272 186.58L239.979 190.973L242.585 210.271L262.053 195.44C262.053 195.44 284.57 207.366 300 206.991C304.663 206.878 310.726 208.057 310.726 208.057L312.272 186.58Z" fill="url(#paint4_linear_8430_220591)"/><path d="M256.514 170.414C246.956 179.355 253.585 187.675 258.173 190.398C261.785 190.717 260.677 187.853 260.264 186.344C262.246 180.194 260.011 173.102 256.514 170.414Z" fill="url(#paint5_linear_8430_220591)"/><path d="M259.842 190.282C258.898 184.916 261.564 173.828 274.738 174.372C275.694 181.967 268.435 189.496 259.842 190.282Z" fill="url(#paint6_linear_8430_220591)"/><path d="M259.152 227.924C259.33 229.475 260.731 230.588 262.282 230.41C263.833 230.232 264.946 228.831 264.768 227.28C264.59 225.729 261.486 222.44 261.369 222.453C261.291 222.462 260.237 224.227 259.607 225.856C259.3 226.652 259.093 227.415 259.152 227.924Z" fill="#86401F"/><path d="M257.878 228.857C257.728 227.554 258.464 226.353 259.607 225.856C259.964 225.758 260.144 225.667 260.438 225.633L263.008 225.338C263.851 225.361 264.809 226.376 265.016 228.186C265.303 230.681 262.845 231.215 260.952 231.467C259.355 231.65 258.061 230.454 257.878 228.857Z" fill="#86401F"/><path d="M309.07 210.827C309.556 215.059 306.519 218.883 302.287 219.369C298.055 219.854 294.231 216.817 293.745 212.585C293.259 208.353 296.296 204.529 300.528 204.044C304.76 203.558 308.584 206.595 309.07 210.827Z" fill="#A46648"/><defs><linearGradient id="paint0_linear_8430_220591" x1="63.581" y1="67.7078" x2="128.613" y2="241.126" gradientUnits="userSpaceOnUse"><stop stop-color="#26F663"/><stop offset="0.587476" stop-color="#268AFF"/><stop offset="1" stop-color="#FC55FF"/></linearGradient><linearGradient id="paint1_linear_8430_220591" x1="193.22" y1="10.4266" x2="246.325" y2="195.064" gradientUnits="userSpaceOnUse"><stop stop-color="#26F663"/><stop offset="0.347451" stop-color="#268AFF"/><stop offset="1" stop-color="#FC55FF"/></linearGradient><linearGradient id="paint2_linear_8430_220591" x1="165.344" y1="198.57" x2="184.256" y2="277.908" gradientUnits="userSpaceOnUse"><stop stop-color="#26F663"/><stop offset="0.541667" stop-color="#268AFF"/><stop offset="1" stop-color="#FC55FF"/></linearGradient><linearGradient id="paint3_linear_8430_220591" x1="271.59" y1="191.147" x2="327.446" y2="340.564" gradientUnits="userSpaceOnUse"><stop stop-color="#26F663"/><stop offset="0.52967" stop-color="#268AFF"/><stop offset="1" stop-color="#FC55FF"/></linearGradient><linearGradient id="paint4_linear_8430_220591" x1="266.957" y1="160.152" x2="337.475" y2="331.113" gradientUnits="userSpaceOnUse"><stop stop-color="#26F663"/><stop offset="0.416038" stop-color="#268AFF"/><stop offset="1" stop-color="#FC55FF"/></linearGradient><linearGradient id="paint5_linear_8430_220591" x1="266.957" y1="160.152" x2="337.475" y2="331.113" gradientUnits="userSpaceOnUse"><stop stop-color="#26F663"/><stop offset="0.416038" stop-color="#268AFF"/><stop offset="1" stop-color="#FC55FF"/></linearGradient><linearGradient id="paint6_linear_8430_220591" x1="266.957" y1="160.152" x2="337.475" y2="331.113" gradientUnits="userSpaceOnUse"><stop stop-color="#26F663"/><stop offset="0.416038" stop-color="#268AFF"/><stop offset="1" stop-color="#FC55FF"/></linearGradient></defs></svg>