<svg width="19" height="23" viewBox="0 0 19 23" fill="none" xmlns="http://www.w3.org/2000/svg"><path d="M2.0874 9.00208H16.92V21.34C16.92 22.3484 15.9229 23.0538 14.9721 22.718L9.50372 20.787L4.03536 22.718C3.08453 23.0538 2.0874 22.3484 2.0874 21.34V9.00208Z" fill="#52656D"/><path d="M16.8701 14.679C13.9531 18.7474 8.29025 19.6808 4.22181 16.7638C0.153365 13.8468 -0.780038 8.18393 2.13699 4.11548C5.05402 0.0470419 10.7169 -0.886362 14.7853 2.03067C18.8537 4.9477 19.7872 10.6105 16.8701 14.679Z" fill="#37464F"/><path d="M15.1761 9.39721C15.1761 12.5301 12.6363 15.0699 9.50342 15.0699C6.3705 15.0699 3.83077 12.5301 3.83077 9.39721C3.83077 6.2643 6.3705 3.72457 9.50342 3.72457C12.6363 3.72457 15.1761 6.2643 15.1761 9.39721Z" stroke="#202F36" stroke-width="1.83928"/><path d="M11.6681 6.47638C11.3828 6.19103 11.3828 5.72839 11.6681 5.44304L12.9655 4.14565C13.2508 3.8603 13.7135 3.8603 13.9988 4.14565L15.2962 5.44304C15.5816 5.72839 15.5816 6.19103 15.2962 6.47638L13.9988 7.77376C13.7135 8.05911 13.2508 8.05911 12.9655 7.77376L11.6681 6.47638Z" fill="#52656D"/></svg>