<svg width="139" height="146" viewBox="0 0 139 146" fill="none" xmlns="http://www.w3.org/2000/svg"><path d="M124.669 36.5146C123.649 32.7344 119.206 31.735 115.832 33.7211C109.911 37.2058 101.004 42.4286 95.7291 45.4286C81.2417 53.6676 56.3132 60.1142 56.3132 60.1142L102.243 84.7409C118.561 76.4666 128.951 52.3682 124.669 36.5146Z" fill="#58CC02"/><path d="M4.94925 90.1371C2.29466 86.2987 4.95936 81.4349 9.48869 80.3103C15.9859 78.697 24.7026 76.45 29.9777 74.7537C45.8439 69.6519 67.3613 54.3406 67.3613 54.3406C70.5753 52.8114 74.3295 54.8573 74.7755 58.381C76.9185 75.3112 63.0977 94.1406 47.256 101.678C30.6963 107.891 13.6825 102.765 4.94925 90.1371Z" fill="#58CC02"/><path d="M55.4992 139.581C55.4992 139.581 51.025 138.557 48.3351 136.069" stroke="#F49000" stroke-width="11.8902" stroke-linecap="round"/><path d="M49.3822 36.0191C51.5083 35.2293 58.361 28.6463 65.285 21.6123C73.6535 13.1108 88.0519 15.3246 93.1432 26.1129L113.359 68.9491L30.5712 99.704L16.8592 63.5701C11.3806 49.1328 23.667 34.3512 39.0364 35.8458C44.1097 36.3392 48.0785 36.5034 49.3822 36.0191Z" fill="#58CC02"/><ellipse cx="43.9219" cy="43.9214" rx="43.9219" ry="43.9214" transform="matrix(-0.994361 -0.106049 -0.106052 0.994361 115.669 40.3388)" fill="#58CC02"/><path d="M85.4512 108.469C85.4512 108.469 82.3078 105.125 81.4619 101.56" stroke="#F49000" stroke-width="11.8902" stroke-linecap="round"/><path d="M70.4119 90.8187C72.5897 89.9486 74.4513 89.3777 75.6172 89.0572C76.3463 88.8568 77.0806 89.3404 77.0137 90.0935C76.8027 92.4704 75.0332 94.9351 72.5199 95.9522C72.5036 95.9589 72.4872 95.9654 72.4708 95.9719C72.4544 95.9785 72.438 95.985 72.4216 95.9915C69.8994 96.9863 66.9187 96.4194 65.1278 94.8423C64.5604 94.3426 64.7593 93.4862 65.4258 93.129C66.4915 92.5579 68.234 91.6889 70.4119 90.8187Z" fill="#8EE000"/><path d="M52.4195 98.005C54.5974 97.1349 56.459 96.5639 57.6248 96.2435C58.3539 96.0431 59.0883 96.5266 59.0214 97.2798C58.8104 99.6567 57.0409 102.121 54.5276 103.139C54.5112 103.145 54.4948 103.152 54.4784 103.158C54.4621 103.165 54.4457 103.171 54.4293 103.178C51.9071 104.173 48.9263 103.606 47.1355 102.029C46.568 101.529 46.767 100.672 47.4334 100.315C48.4992 99.7442 50.2416 98.8752 52.4195 98.005Z" fill="#8EE000"/><path d="M64.926 103.221C67.1039 102.351 68.9655 101.78 70.1313 101.459C70.8604 101.259 71.5948 101.742 71.5279 102.496C71.3169 104.873 69.5474 107.337 67.0341 108.354C67.0177 108.361 67.0013 108.368 66.9849 108.374C66.9686 108.381 66.9522 108.387 66.9358 108.394C64.4136 109.388 61.4328 108.822 59.642 107.244C59.0745 106.745 59.2735 105.888 59.9399 105.531C61.0057 104.96 62.7481 104.091 64.926 103.221Z" fill="#8EE000"/><path d="M16.4092 50.6709C16.4971 50.6954 16.5838 50.7295 16.6684 50.7739L32.5368 59.1033C33.3874 59.5497 33.5178 60.7721 32.7943 61.5173C29.3185 65.0977 24.1186 66.1006 19.9261 63.9C18.1993 62.9935 16.8203 61.6364 15.8621 60.0109C15.2659 56.7835 15.5035 53.6075 16.4092 50.6709Z" fill="#8EE000"/><path d="M52.2498 45.6186C56.4863 40.2976 60.0932 28.6501 60.0932 28.6501C60.4785 27.6603 61.6796 27.3157 62.4653 27.9696C66.2402 31.1113 67.5787 36.5387 65.6794 41.4174C64.0063 45.7149 60.1875 48.645 55.9397 49.1419C57.7449 52.8965 60.3111 59.9173 62.6414 72.4276C58.8581 73.8128 56.2402 74.7726 54.7877 75.3072C49.3696 77.3012 46.6677 78.3176 46.6821 78.3563C46.7022 78.4102 38.9515 65.438 35.752 57.5488C32.5478 59.3172 28.6828 59.4756 25.4012 57.7532C21.1144 55.5032 18.8895 50.6031 19.8132 45.6831C20.0054 44.6591 21.0948 44.077 21.9645 44.5335C21.9645 44.5335 28.8836 49.4763 33.1374 50.7397C39.5696 52.6501 48.0134 50.9397 52.2498 45.6186Z" fill="#89E219"/><path d="M68.1214 29.7828L61.488 46.8212C61.1325 47.7345 61.7533 48.7181 62.7141 48.7638C67.3304 48.9835 71.6885 46.129 73.441 41.6275C75.1935 37.1259 73.9045 32.097 70.3432 29.1678C69.6019 28.5581 68.4769 28.8695 68.1214 29.7828Z" fill="#89E219"/><path d="M86.5664 46.6393C83.1594 37.4682 72.9628 32.7955 63.7918 36.2025C54.6207 39.6094 49.948 49.8059 53.355 58.977L56.3947 67.1591C59.8017 76.3301 69.9983 81.0028 79.1694 77.5959C88.3404 74.1889 93.0131 63.9924 89.6061 54.8214L86.5664 46.6393Z" fill="#89E219"/><rect width="24.6463" height="31.5777" rx="12.3231" transform="matrix(-0.937406 0.348237 0.348245 0.937404 77.0088 37.8676)" fill="white"/><ellipse cx="4.62118" cy="4.62113" rx="4.62118" ry="4.62113" transform="matrix(-0.937406 0.348237 0.348245 0.937404 74.6138 43.9584)" fill="white"/><path d="M15.9051 60.2484C16.1229 61.3526 16.4387 62.4622 16.859 63.5698L24.4255 83.509C24.5624 83.8698 24.7226 84.3436 24.8936 84.8789C26.1248 88.7347 29.1301 91.8923 33.1518 92.3492C35.5622 92.6231 38.0886 92.6778 39.6365 92.0527C46.7991 89.3811 50.4398 81.4089 47.7682 74.2464L42.1743 59.2492C39.5026 52.0866 31.5304 48.446 24.3677 51.1175C20.0991 52.7097 17.0814 56.1844 15.9051 60.2484Z" fill="#8EE000"/><rect width="20.7953" height="31.5777" rx="10.3976" transform="matrix(-0.937406 0.348237 0.348245 0.937404 37.5394 52.5289)" fill="white"/><rect width="12.224" height="19.1255" rx="6.11201" transform="matrix(-0.934809 0.35515 0.355158 0.934806 58.2726 67.8619)" fill="#F49000"/><rect width="9.09547" height="16.3002" rx="4.54773" transform="matrix(-0.934809 0.35515 0.355158 0.934806 56.5197 68.525)" fill="#B16900"/><path d="M34.1084 63.9374C34.9972 66.3298 37.6572 67.5487 40.0496 66.66C42.4421 65.7712 41.2467 65.0246 40.3579 62.6322C39.4692 60.2398 36.8311 57.9962 36.8311 57.9962C34.4386 58.885 33.2196 61.5449 34.1084 63.9374Z" fill="white"/><path d="M73.5638 62.6015C73.5638 62.6015 72.9092 59.6497 71.2841 56.7659" stroke="#4B4B4B" stroke-width="11.6659" stroke-linecap="round"/><path d="M40.8288 75.8626C40.8288 75.8626 40.0212 72.0936 37.8961 68.3553" stroke="#4B4B4B" stroke-width="9.87113" stroke-linecap="round"/><path d="M47.7531 77.2326C47.7531 77.2326 39.5342 76.6363 31.8722 79.6371C26.344 81.8022 24.9252 83.3493 24.9252 83.3493L34.7083 89.9609L44.7906 85.7038L47.7531 77.2326Z" fill="#8EE000"/><path d="M63.1259 73.083C63.1259 73.083 70.399 64.8619 79.2765 61.6304C86.4468 59.0204 88.8331 59.8534 88.8331 59.8534L85.5612 69.8398L73.2627 76.2053L63.1259 73.083Z" fill="#8EE000"/><path d="M46.2161 78.3513C46.2469 78.6327 46.5125 78.8212 46.7917 78.7748L51.5898 77.9787L62.0823 73.0418C62.358 72.9121 62.4615 72.571 62.2872 72.321C60.0336 69.0889 55.8042 67.6546 51.939 69.0904C48.0549 70.5333 45.7845 74.4119 46.2161 78.3513Z" fill="#FFC200"/><path d="M56.0953 71.074C55.4903 70.9151 53.9026 70.9775 52.7957 71.5761" stroke="#FFDE00" stroke-width="2.56731" stroke-linecap="round" stroke-linejoin="round"/><ellipse cx="4.34589" cy="4.34585" rx="4.34589" ry="4.34585" transform="matrix(-0.916324 0.400437 0.400446 0.916321 67.4743 50.8558)" fill="white"/><path d="M32.2113 64.7721C32.1729 65.5201 32.2152 66.284 32.3456 67.0532L33.3954 73.2467C35.605 72.8593 37.1597 70.8135 36.9065 68.5537C36.6445 66.2161 34.5466 64.53 32.2113 64.7721Z" fill="white"/><path d="M31.1632 104.269C30.0117 104.212 28.8728 104.102 27.7498 103.94C26.1163 101.271 24.7421 98.4301 23.6605 95.453C23.4067 94.7543 23.7673 93.9821 24.4661 93.7282C25.1648 93.4744 25.937 93.8351 26.1909 94.5338C27.4485 97.9956 29.1257 101.262 31.1632 104.269Z" fill="#4EB800"/><path d="M60.6945 79.5125C60.5043 79.4902 60.3104 79.4778 60.1141 79.4778C57.3802 79.4778 55.1639 81.6941 55.1639 84.428C55.1639 84.8055 55.2061 85.1729 55.2861 85.526C56.1719 85.7599 57.1366 85.729 58.0585 85.3788C60.4064 84.4867 61.5866 81.8604 60.6945 79.5125Z" fill="#FFB8D1"/></svg>