<svg width="126" height="126" viewBox="0 0 126 126" fill="none" xmlns="http://www.w3.org/2000/svg"><path fill-rule="evenodd" clip-rule="evenodd" d="M102.564 37.9313L123.643 63.0517C126.163 66.0553 125.771 70.5333 122.768 73.0536L107.428 85.9243L107.815 87.7427C108.533 91.1214 106.376 94.4425 102.997 95.1606C99.9643 95.8053 96.9775 94.133 95.8788 91.3397C94.628 90.9484 93.4707 90.2067 92.5658 89.1283L71.4873 64.0078C68.967 61.0043 69.3588 56.5263 72.3623 54.006L92.5623 37.0562C95.5659 34.5359 100.044 34.9277 102.564 37.9313Z" fill="#58CC02"/><path fill-rule="evenodd" clip-rule="evenodd" d="M72.9845 112.87C72.9845 109.789 75.4819 107.291 78.5626 107.291H87.3523C90.433 107.291 92.9304 109.789 92.9304 112.87C92.9304 115.95 90.433 118.448 87.3523 118.448H78.5626C75.4819 118.448 72.9845 115.95 72.9845 112.87Z" fill="#F49000"/><path fill-rule="evenodd" clip-rule="evenodd" d="M42.09 2.28436C53.3374 7.04169 61.0438 9.42035 65.2094 9.42035C69.3475 9.42035 76.9313 7.07301 87.9611 2.37832C95.331 -0.758637 103.849 2.6729 106.986 10.0429C107.75 11.8389 108.144 13.7709 108.144 15.7228V60.4693C108.144 84.2746 88.846 103.573 65.0406 103.573C41.2353 103.573 21.9372 84.2746 21.9372 60.4693V15.6417C21.9372 7.63187 28.4304 1.13864 36.4402 1.13864C38.3812 1.13864 40.3024 1.52824 42.09 2.28436Z" fill="#58CC02"/><path d="M41.1413 67.8053C41.1413 56.7596 32.187 47.8053 21.1413 47.8053C10.0956 47.8053 1.14127 56.7596 1.14127 67.8053C1.14127 78.851 10.0956 87.8053 21.1413 87.8053C32.187 87.8053 41.1413 78.851 41.1413 67.8053Z" fill="#58CC02"/><path d="M46.5196 11.5057L59.4899 25.5939C60.1703 26.349 59.9164 27.547 58.9884 27.9597C54.5296 29.9429 49.2109 28.8268 45.8569 25.1047C42.503 21.3826 41.9481 15.9803 44.388 11.7567C44.8958 10.8776 45.8392 10.7505 46.5196 11.5057Z" fill="#89E219"/><path fill-rule="evenodd" clip-rule="evenodd" d="M56.7815 23.0146C61.1119 27.7962 69.0687 27.7752 73.3153 22.9935C73.3153 34.1577 73.3153 47.418 73.3153 47.334C73.3153 47.2779 67.804 47.2779 56.7815 47.334C56.7395 41.4427 56.7395 33.3362 56.7815 23.0146Z" fill="#89E219"/><path d="M40.0243 14.8758L52.7278 28.9738C53.4087 29.7294 53.1551 30.9277 52.2269 31.3403C47.7675 33.3227 42.4467 32.2044 39.0905 28.4797C35.7342 24.7551 35.1773 19.3506 37.6165 15.1262C38.1242 14.2469 39.3433 14.1202 40.0243 14.8758Z" fill="#89E219"/><path fill-rule="evenodd" clip-rule="evenodd" d="M43.7849 17.8138H45.0522C53.9443 17.8138 61.1528 25.0223 61.1528 33.9144V44.3095C61.1528 53.2016 53.9443 60.4101 45.0522 60.4101H43.7849C34.8928 60.4101 27.6842 53.2016 27.6842 44.3095V33.9144C27.6842 25.0223 34.8928 17.8138 43.7849 17.8138Z" fill="#89E219"/><path d="M83.3101 11.4952L70.6066 25.5931C69.9257 26.3488 70.1793 27.5471 71.1074 27.9597C75.5669 29.9421 80.8877 28.8237 84.2439 25.0991C87.6001 21.3745 88.1571 15.97 85.7179 11.7456C85.2102 10.8663 83.991 10.7396 83.3101 11.4952Z" fill="#89E219"/><path d="M89.7334 14.8758L77.0299 28.9738C76.349 29.7294 76.6026 30.9277 77.5308 31.3403C81.9902 33.3227 87.311 32.2044 90.6672 28.4797C94.0235 24.7551 94.5804 19.3506 92.1412 15.1262C91.6335 14.2469 90.4144 14.1202 89.7334 14.8758Z" fill="#89E219"/><path fill-rule="evenodd" clip-rule="evenodd" d="M85.3669 17.4757H86.6342C95.5263 17.4757 102.735 24.6842 102.735 33.5764V43.9714C102.735 52.8636 95.5263 60.0721 86.6342 60.0721H85.4492C76.6068 60.0721 69.4191 52.941 69.3491 44.0989L69.2668 33.7038C69.1964 24.812 76.3476 17.5466 85.2394 17.4762C85.2819 17.4759 85.3244 17.4757 85.3669 17.4757Z" fill="#89E219"/><path fill-rule="evenodd" clip-rule="evenodd" d="M43.9111 23.899C50.4459 23.899 55.7434 29.1965 55.7434 35.7313V42.8307C55.7434 49.3655 50.4459 54.663 43.9111 54.663C37.3763 54.663 32.0788 49.3655 32.0788 42.8307V35.7313C32.0788 29.1965 37.3763 23.899 43.9111 23.899Z" fill="white"/><path fill-rule="evenodd" clip-rule="evenodd" d="M85.8317 23.899C92.3665 23.899 97.664 29.1965 97.664 35.7313V42.8307C97.664 49.3655 92.3665 54.663 85.8317 54.663C79.2969 54.663 73.9994 49.3655 73.9994 42.8307V35.7313C73.9994 29.1965 79.2969 23.899 85.8317 23.899Z" fill="white"/><path fill-rule="evenodd" clip-rule="evenodd" d="M83.1608 27.5315C86.2294 27.5315 88.7169 30.019 88.7169 33.0876V39.2167C88.7169 42.2853 86.2294 44.7728 83.1608 44.7728H83.1169C80.0483 44.7728 77.5607 42.2853 77.5607 39.2167L77.5605 33.4969C77.9054 33.5894 78.2679 33.6386 78.6419 33.6386C80.9431 33.6386 82.8085 31.7731 82.8085 29.472C82.8085 28.792 82.6457 28.1501 82.3568 27.5832C82.605 27.549 82.8589 27.5315 83.1169 27.5315H83.1608Z" fill="#4B4B4B"/><path fill-rule="evenodd" clip-rule="evenodd" d="M46.6255 27.5315C49.6941 27.5315 52.1817 30.019 52.1817 33.0876V39.2167C52.1817 42.2853 49.6941 44.7728 46.6255 44.7728H46.5816C43.513 44.7728 41.0255 42.2853 41.0255 39.2167L41.0249 33.5299C41.33 33.601 41.648 33.6386 41.9748 33.6386C44.276 33.6386 46.1414 31.7731 46.1414 29.472C46.1414 28.7994 45.9821 28.1641 45.6991 27.6017C45.9863 27.5553 46.2812 27.5315 46.5816 27.5315H46.6255Z" fill="#4B4B4B"/><path d="M50.7563 74.6987L61.5233 73.3727C62.1004 73.3017 62.5748 73.7841 62.4602 74.3254C61.9095 76.9265 59.6295 78.9566 56.7849 79.3069C53.9403 79.6572 51.2385 78.2406 50.077 75.8504C49.8352 75.3529 50.1792 74.7698 50.7563 74.6987Z" fill="#89E219"/><path d="M69.547 72.3915L80.314 71.0655C80.8911 70.9945 81.3655 71.4769 81.2509 72.0182C80.7002 74.6193 78.4202 76.6494 75.5756 76.9997C72.731 77.35 70.0292 75.9334 68.8677 73.5432C68.6259 73.0457 68.9699 72.4626 69.547 72.3915Z" fill="#89E219"/><path d="M61.2641 82.6048L72.0311 81.2789C72.6082 81.2078 73.0826 81.6902 72.968 82.2316C72.4173 84.8326 70.1373 86.8627 67.2927 87.213C64.4481 87.5633 61.7463 86.1467 60.5848 83.7565C60.343 83.2591 60.687 82.6759 61.2641 82.6048Z" fill="#89E219"/><path opacity="0.3" d="M106.138 118.448H23.9881C22.121 118.448 20.6074 119.961 20.6074 121.828C20.6074 123.695 22.121 125.209 23.9881 125.209H106.138C108.005 125.209 109.519 123.695 109.519 121.828C109.519 119.961 108.005 118.448 106.138 118.448Z" fill="#AFAFAF"/><path d="M109.099 35.5289L109.23 36.7721C110.457 48.4438 101.989 58.9002 90.3176 60.1269C78.6458 61.3537 68.1895 52.8863 66.9627 41.2145L66.8321 39.9714L109.099 35.5289ZM62.6882 40.4069L62.8189 41.6501C64.0457 53.3218 55.5783 63.7781 43.9065 65.0049C32.2348 66.2316 21.7785 57.7643 20.5517 46.0925L20.4211 44.8494L62.6882 40.4069Z" fill="#656565"/><g opacity="0.133278"><path d="M75.1005 55.806L81.422 38.438L93.4091 37.1781L85.09 60.0347C81.3919 59.5091 77.9637 58.0198 75.1005 55.806Z" fill="#D8D8D8"/><path d="M92.3118 59.8226C91.6587 59.9539 90.9936 60.0559 90.3178 60.1269C89.4456 60.2186 88.5802 60.2561 87.725 60.2423L96.2274 36.8819L100.286 36.4553L100.755 36.6258L92.3118 59.8226Z" fill="#D8D8D8"/><path d="M52.6211 41.4651L37.8676 43.0157L30.8931 62.1782C34.6814 64.4156 39.1951 65.5001 43.9068 65.0049C43.9577 64.9996 44.0085 64.994 44.0593 64.9883L52.6211 41.4651Z" fill="#D8D8D8"/></g><path fill-rule="evenodd" clip-rule="evenodd" d="M111.869 33.9809L112.174 36.8816C113.545 49.9265 104.082 61.613 91.0369 62.9841L90.2081 63.0712C77.1632 64.4422 65.4767 54.9787 64.1057 41.9338L63.8008 39.0331L111.869 33.9809ZM70.4468 44.2001C72.7214 52.5157 80.7452 58.2003 89.5984 57.2698L90.4271 57.1827C99.2803 56.2522 105.947 49.0236 106.443 40.4167L70.4468 44.2001Z" fill="#545454"/><path fill-rule="evenodd" clip-rule="evenodd" d="M14.3241 44.0184L115.434 33.3913C115.771 36.5953 113.446 39.4657 110.242 39.8024L20.7352 49.21C17.5312 49.5467 14.6608 47.2224 14.3241 44.0184Z" fill="#545454"/><path fill-rule="evenodd" clip-rule="evenodd" d="M65.4582 38.8589L65.7631 41.7596C67.1342 54.8045 57.6706 66.491 44.6257 67.8621L43.797 67.9492C30.7521 69.3202 19.0656 59.8567 17.6945 46.8118L17.3896 43.9111L65.4582 38.8589ZM24.0357 49.0781C26.3103 57.3937 34.3341 63.0783 43.1872 62.1478L44.016 62.0607C52.8692 61.1302 59.5357 53.9016 60.0317 45.2947L24.0357 49.0781Z" fill="#545454"/><path fill-rule="evenodd" clip-rule="evenodd" d="M15.5697 48.8728L23.2866 47.5867C25.5565 47.2084 27.7032 48.7418 28.0816 51.0116C28.24 51.9623 28.064 52.9385 27.5835 53.774L23.1803 61.4298C21.9209 63.6195 19.1249 64.3737 16.9352 63.1143C15.871 62.5023 15.0975 61.4881 14.7887 60.2999L12.8915 52.9992C12.4285 51.2174 13.4975 49.3977 15.2793 48.9346C15.3751 48.9097 15.472 48.8891 15.5697 48.8728Z" fill="#58CC02"/><path fill-rule="evenodd" clip-rule="evenodd" d="M64.4655 46.903C67.7849 46.3773 70.902 48.642 71.4277 51.9614L71.6922 53.6309C72.2179 56.9503 69.9532 60.0673 66.6338 60.5931C63.3144 61.1188 60.1973 58.8541 59.6716 55.5347L59.4072 53.8652C58.8814 50.5458 61.1461 47.4288 64.4655 46.903Z" fill="#F49000"/><path d="M57.1911 55.0009C57.2876 51.0747 60.3252 47.5588 64.704 46.8652C68.6058 46.2472 72.5812 48.6524 73.8863 52.3567C73.386 52.8341 72.488 53.3327 71.1925 53.8525C69.897 54.3722 68.113 54.9495 65.8405 55.5845L57.1911 55.0009Z" fill="#FFC200"/><path fill-rule="evenodd" clip-rule="evenodd" d="M66.3283 50.4963C65.3121 50.2991 64.3766 50.4472 63.4712 50.9488C62.8873 51.2722 62.1518 51.0611 61.8283 50.4772C61.5049 49.8933 61.7161 49.1578 62.2999 48.8343C63.7021 48.0577 65.2152 47.818 66.7888 48.1234C67.444 48.2505 67.8721 48.8848 67.745 49.5401C67.6178 50.1953 66.9835 50.6234 66.3283 50.4963Z" fill="#FFDE00"/><path fill-rule="evenodd" clip-rule="evenodd" d="M50.4569 107.466C52.134 110.051 51.3986 113.505 48.8144 115.182C45.2812 117.475 41.4294 118.827 37.3556 118.731C34.2758 118.658 31.8382 116.102 31.9111 113.022C31.984 109.943 34.5398 107.505 37.6196 107.578C38.9549 107.609 40.6299 107.194 42.7412 105.824C45.3254 104.147 48.7799 104.882 50.4569 107.466Z" fill="#F49000"/></svg>