<svg width="141" height="134" viewBox="0 0 141 134" fill="none" xmlns="http://www.w3.org/2000/svg"><path opacity="0.3" d="M134.293 86.4683C134.293 112.297 105.572 133.236 70.1432 133.236C34.7141 133.236 5.99316 112.297 5.99316 86.4683C5.99316 60.6395 34.7141 39.7012 70.1432 39.7012C105.572 39.7012 134.293 60.6395 134.293 86.4683Z" fill="#AFAFAF"/><path fill-rule="evenodd" clip-rule="evenodd" d="M92.8752 1.41338C80.8349 6.45348 75.0043 8.10349 70.4655 8.15882C65.9267 8.10348 60.0962 6.45347 48.0559 1.41338C36.6148 -3.26362 25.4588 4.61818 23.0045 15.9098C21.1246 24.5585 20.6685 35.9705 23.0045 62.9703C25.3238 89.778 44.2939 109.643 70.4655 109.925C96.6372 109.643 115.607 89.778 117.927 62.9703C120.263 35.9705 119.806 24.5585 117.927 15.9098C115.472 4.61818 104.316 -3.26362 92.8752 1.41338Z" fill="#58CC02"/><path d="M122.835 58.6641C122.835 72.5531 117.317 85.8733 107.496 95.6943C97.6752 105.515 84.355 111.033 70.4659 111.033C56.5768 111.033 43.2566 105.515 33.4355 95.6943C26.5993 88.8581 19.6821 78.517 18.4442 69.3074C18.2005 68.3095 19.1335 69.0838 18.9485 68.0707L39.1978 79.5032C40.0282 79.9721 41.05 79.9428 41.8521 79.4271L58.3064 68.8494C59.0589 68.3656 60.0089 68.3078 60.8146 68.6968L88.808 82.2132C89.6807 82.6346 90.7161 82.5295 91.4863 81.9413L109.787 67.9662C110.498 67.4231 111.441 67.2888 112.275 67.6116L116.414 69.2124C117.776 69.7395 119.304 69.0266 119.775 67.6438L122.835 58.6641Z" fill="#A4DB52"/><path d="M122.834 62.5762C122.834 76.4652 117.317 89.7854 107.496 99.6064C97.6749 109.427 84.3547 114.945 70.4656 114.945C56.5765 114.945 43.2563 109.427 33.4352 99.6064C25.8606 92.0319 20.846 82.3759 18.9482 71.9828L39.1975 83.4153C40.0279 83.8842 41.0497 83.8549 41.8518 83.3392L58.306 72.7615C59.0586 72.2777 60.0086 72.2199 60.8142 72.6089L88.8077 86.1253C89.6804 86.5467 90.7158 86.4416 91.486 85.8534L109.787 71.8783C110.498 71.3352 111.44 71.201 112.275 71.5237L116.413 73.1245C117.776 73.6516 119.303 72.9388 119.775 71.5559L122.834 62.5762Z" fill="#CDF68F"/><path fill-rule="evenodd" clip-rule="evenodd" d="M61.4954 72.9373C62.0539 74.3825 62.3567 75.9308 62.3567 77.5409C62.3567 85.4778 54.999 91.9119 45.9229 91.9119C36.998 91.9119 29.7349 85.6906 29.4951 77.9367L39.1994 83.4157C40.0298 83.8845 41.0515 83.8552 41.8537 83.3395L58.3079 72.7619C59.0605 72.2781 60.0104 72.2203 60.8161 72.6093L61.4954 72.9373Z" fill="#B2E762"/><path fill-rule="evenodd" clip-rule="evenodd" d="M104.932 102.008C95.6748 110.1 83.8375 114.695 71.4916 114.936C71.0656 114.127 70.7234 113.267 70.4757 112.36C68.2968 104.382 77.2611 94.8978 86.789 92.2956C95.9101 89.8045 104.238 95.1283 104.932 102.008Z" fill="#B2E762"/><path d="M4.60283 46.8431L66.6381 35.0899C69.904 34.4442 72.8208 37.23 72.4387 40.4624C70.1799 56.3759 57.7269 69.3857 41.3643 72.4149C25.0018 75.4442 8.74146 68.0298 1.00362 54.0863C-0.487581 51.2678 1.25401 47.6047 4.60283 46.8431Z" fill="#58CC02"/><path d="M136.33 46.8431L74.2944 35.0899C71.0285 34.4442 68.1116 37.23 68.4938 40.4624C71.4822 61.5163 105.711 57.0059 116.254 69.133C117.51 69.4956 120.459 70.9795 124.737 68.7631C131.05 65.4922 136.384 60.4745 139.929 54.0863C141.42 51.2678 139.678 47.6047 136.33 46.8431Z" fill="#58CC02"/><path fill-rule="evenodd" clip-rule="evenodd" d="M62.3164 21.6C67.0519 27.0902 73.5239 26.9287 78.4173 21.6C81.5743 18.0476 82.6793 28.382 81.7321 52.4419H59.3172C58.2123 28.2205 59.1594 17.8861 62.3164 21.6Z" fill="#89E219"/><path d="M72.4961 32.744L49.5665 7.23082C48.2746 5.77754 46.1754 6.10049 45.2066 7.71525C40.8467 15.3046 41.8156 25.1546 47.9517 31.9366C54.0878 38.7186 63.6149 40.8178 71.6887 37.1038C73.3035 36.2965 73.7879 34.1973 72.4961 32.744Z" fill="#89E219"/><path fill-rule="evenodd" clip-rule="evenodd" d="M45.9225 13.6895C56.58 13.6895 65.2997 22.4091 65.2997 33.0666V48.7297C65.2997 59.3871 57.3398 68.1068 46.6823 68.1068C36.0249 68.1068 28.065 59.531 27.3051 48.7297C26.5453 37.9284 26.8811 43.7466 26.5453 33.0666C26.2096 22.3865 35.1036 13.6895 45.9225 13.6895Z" fill="#89E219"/><path fill-rule="evenodd" clip-rule="evenodd" d="M46.8688 20.8652C55.141 20.8652 61.6531 27.5534 61.6531 35.6495V47.7937C61.6531 56.0659 55.5305 62.578 47.4343 62.578C39.3382 62.578 33.2156 55.7292 32.65 47.7937C32.0845 39.8582 32.2605 43.7457 32.0845 35.6495C31.9084 27.5534 38.5966 20.8652 46.8688 20.8652Z" fill="white"/><path fill-rule="evenodd" clip-rule="evenodd" d="M50.2882 21.2598C56.8663 22.8041 61.6523 28.71 61.6523 35.6507V47.795C61.6523 47.8812 61.6516 47.9672 61.6502 48.0531C59.8286 51.1872 56.4314 53.3112 52.5725 53.3112C46.8136 53.3112 42.083 48.5806 42.083 42.8217V33.1451C43.1045 34.0215 44.4323 34.551 45.8838 34.551C49.1091 34.551 51.7238 31.9363 51.7238 28.7109C51.7238 25.6975 49.4415 23.2172 46.5112 22.9042C47.6201 22.1265 48.8956 21.5586 50.2882 21.2598Z" fill="#4B4B4B"/><path d="M68.4355 32.744L91.3652 7.23082C92.657 5.77754 94.7562 6.10049 95.725 7.71525C100.085 15.3046 99.1161 25.1546 92.98 31.9366C86.8439 38.7186 77.3167 40.8178 69.2429 37.1038C67.6282 36.2965 67.1437 34.1973 68.4355 32.744Z" fill="#89E219"/><path fill-rule="evenodd" clip-rule="evenodd" d="M95.0091 13.6895C84.3517 13.6895 75.6319 22.4091 75.6319 33.0666V48.7297C75.6319 59.3871 83.5919 68.1068 94.2493 68.1068C104.907 68.1068 112.867 59.531 113.626 48.7297C114.386 37.9284 114.051 43.7466 114.386 33.0666C114.722 22.3865 105.828 13.6895 95.0091 13.6895Z" fill="#89E219"/><path fill-rule="evenodd" clip-rule="evenodd" d="M94.0629 20.8652C85.7907 20.8652 79.2785 27.5534 79.2785 35.6495V47.7937C79.2785 56.0659 85.4011 62.578 93.4973 62.578C101.593 62.578 107.716 55.7292 108.282 47.7937C108.847 39.8582 108.671 43.7457 108.847 35.6495C109.023 27.5534 102.335 20.8652 94.0629 20.8652Z" fill="white"/><path fill-rule="evenodd" clip-rule="evenodd" d="M91.0315 21.1719C95.593 22.3078 99.0102 26.4596 99.0102 31.3543V42.6664C99.0102 48.4254 94.2797 53.1559 88.5207 53.1559C84.4096 53.1559 80.8226 50.7453 79.1064 47.2707V35.825C79.1064 35.3149 79.1319 34.8108 79.1816 34.3139C79.5002 34.3677 79.8275 34.3957 80.1615 34.3957C83.3868 34.3957 86.0015 31.7811 86.0015 28.5557C86.0015 26.9614 85.3627 25.5163 84.327 24.4625C86.2118 22.8459 88.5047 21.6911 91.0315 21.1719Z" fill="#4B4B4B"/><path fill-rule="evenodd" clip-rule="evenodd" d="M70.2993 48.2578C74.2564 48.2578 77.422 51.4234 77.422 55.2222V55.3804C77.422 59.1792 74.2564 62.3448 70.4576 62.3448H70.2993C66.5006 62.3448 63.335 59.1792 63.335 55.3804V55.2222C63.335 51.4234 66.5006 48.2578 70.2993 48.2578Z" fill="#F49000"/><path d="M62.5937 54.1536C62.5232 54.4968 62.714 54.8363 63.0342 54.9783C63.8851 55.3556 65.5502 56.1124 66.6873 56.7474C67.7269 57.328 69.1017 58.241 69.8735 58.7648C70.2302 59.0069 70.699 59.0069 71.0557 58.7648C71.8274 58.241 73.2023 57.328 74.2419 56.7474C75.379 56.1124 77.0442 55.3556 77.895 54.9783C78.2152 54.8363 78.406 54.4968 78.3355 54.1536C77.4769 49.9708 74.3414 47.3359 70.4646 47.3359C66.5878 47.3359 63.4523 49.9708 62.5937 54.1536Z" fill="#FFC200"/><path d="M68.2042 52.083C67.5583 52.083 67.0739 51.7601 66.9124 51.1142C66.751 50.3068 67.0739 49.6609 67.8813 49.3379C69.6575 48.8535 71.2723 48.8535 73.0485 49.3379C73.8559 49.4994 74.1789 50.3068 74.0174 51.1142C73.8559 51.9215 73.0485 52.2445 72.2412 52.083C70.9493 51.7601 69.819 51.7601 68.6887 52.083C68.5272 52.083 68.3657 52.083 68.2042 52.083Z" fill="#FFDE00"/></svg>