<svg width="150" height="171" viewBox="0 0 150 171" fill="none" xmlns="http://www.w3.org/2000/svg"><path fill-rule="evenodd" clip-rule="evenodd" d="M10.8193 98.431C12.8217 95.7612 16.6156 95.2343 19.2854 97.2366L26.9435 102.998C29.6132 105 30.1402 108.794 28.1378 111.464C26.1355 114.134 22.3416 114.66 19.6718 112.658L12.0137 106.897C9.34392 104.895 8.81699 101.101 10.8193 98.431Z" fill="#F49000"/><path fill-rule="evenodd" clip-rule="evenodd" d="M92.2826 145.398C88.9805 145.925 85.8891 143.677 85.3622 140.375L83.8517 130.855C83.3247 127.553 85.573 124.461 88.8751 123.934C92.1772 123.408 95.2685 125.656 95.7955 128.958L97.306 138.478C97.7978 141.78 95.5847 144.871 92.2826 145.398Z" fill="#F49000"/><path d="M144.063 47.3887L68.1848 44.7541C64.1099 44.6136 61.0888 48.4777 62.2129 52.377C67.5876 71.1709 84.6953 84.6253 104.719 85.3279C124.742 86.0304 142.763 73.8056 149.438 55.3981C150.878 51.5691 148.138 47.5293 144.063 47.3887Z" fill="#58CC02"/><path d="M9.3092 14.6136L76.2296 49.2857C79.8127 51.1475 80.5504 56.0656 77.705 58.9812C63.9345 73.103 42.6113 76.6862 24.9415 67.5175C7.27173 58.3489 -2.38869 38.7119 0.702642 19.0749C1.37009 15.0351 5.69093 12.7517 9.3092 14.6136Z" fill="#58CC02"/><path fill-rule="evenodd" clip-rule="evenodd" d="M56.7333 17.3185C33.0213 22.5526 17.7403 45.7025 22.2017 69.5901L24.5202 82.0257C28.841 105.07 51.0424 120.281 74.0869 115.96C74.4382 115.89 74.7895 115.82 75.1057 115.749C98.8176 110.691 114.169 87.6815 109.708 63.8641L107.249 50.7611C102.963 27.8571 80.9722 12.7517 58.0682 17.0374C57.6818 17.1077 57.2251 17.2131 56.7333 17.3185Z" fill="#58CC02"/><path fill-rule="evenodd" clip-rule="evenodd" d="M20.5856 64.1101L105.351 80.5855C107.319 76.897 108.759 72.8571 109.672 68.5363L117.717 29.4379C119.473 20.9719 114.028 12.7166 105.562 10.9602C103.946 10.6089 102.26 10.5386 100.609 10.7494C82.9392 12.7869 71.4169 13.2787 66.0071 12.2248C62.705 11.5925 59.5434 9.44965 56.5223 5.83138C51.0071 -0.807967 41.1359 -1.68619 34.4966 3.82904C31.7565 6.11241 29.8947 9.23887 29.1921 12.7166L21.3233 51.3583C20.445 55.644 20.2343 59.9297 20.5856 64.1101Z" fill="#58CC02"/><path d="M65.6908 82.0258L54.1335 79.7776C53.5011 79.6722 52.9742 80.1289 53.0445 80.726C53.4309 83.5715 55.7494 85.9602 58.8056 86.5574C61.8618 87.1546 64.8829 85.8197 66.3231 83.3256C66.6393 82.8338 66.3231 82.1663 65.6908 82.0258ZM47.2482 79.637C47.5644 79.1101 47.2131 78.4427 46.6159 78.3373L35.0585 76.089C34.4262 75.9837 33.8993 76.4403 33.9695 77.0375C34.3559 79.8829 36.6744 82.2717 39.7306 82.8689C42.7868 83.4661 45.8079 82.1312 47.2482 79.637ZM53.7119 89.7893L42.1545 87.541C41.5222 87.4356 40.9953 87.8923 41.0655 88.4895C41.452 91.3349 43.7705 93.7237 46.8267 94.3209C49.8829 94.9181 52.9039 93.5832 54.3442 91.089C54.6604 90.5621 54.3442 89.9298 53.7119 89.7893Z" fill="#89E219"/><path fill-rule="evenodd" clip-rule="evenodd" d="M67.3421 26.4871C62.5646 30 56.2765 28.0679 53.677 23.7822C49.6372 17.2833 47.143 25.363 46.2297 48.0211L65.4451 51.7447C69.8713 32.5644 70.5388 24.1335 67.3421 26.4871Z" fill="#89E219"/><path fill-rule="evenodd" clip-rule="evenodd" d="M84.344 23.2201L82.8686 22.9391C73.454 21.1124 64.3557 27.2599 62.529 36.6745L60.4564 47.2834C58.6297 56.6979 64.7772 65.7962 74.1917 67.6229L75.6672 67.904C85.0817 69.7307 94.18 63.5831 96.0067 54.1686L98.0793 43.5597C99.906 34.1803 93.7585 25.0468 84.344 23.2201Z" fill="#89E219"/><path d="M82.2011 15.5269L65.3744 27.9274C64.4962 28.5948 64.4962 29.9297 65.4095 30.562C69.7655 33.6183 75.7023 33.5129 80.0582 30.2459C84.4142 26.9438 86.1355 21.288 84.4142 16.2646C84.098 15.2108 83.1144 14.8595 82.2011 15.5269Z" fill="#89E219"/><path d="M88.4191 20.4801L71.8734 32.9157C70.9952 33.5831 70.9952 34.918 71.9085 35.5503C76.2645 38.6065 82.2013 38.5011 86.5572 35.2342C90.9132 31.932 92.6345 26.2763 90.9132 21.2529C90.5971 20.199 89.3324 19.8126 88.4191 20.4801Z" fill="#89E219"/><path d="M44.2977 8.67686L53.2204 23.0797C53.6771 23.8525 53.0799 24.9415 52.0612 25.2577C47.0729 26.6979 42.0846 25.1523 39.8012 21.3584C37.5179 17.5645 38.5015 12.4356 42.1197 8.71199C42.8574 7.93916 43.841 7.90403 44.2977 8.67686Z" fill="#89E219"/><path d="M37.2714 12.1897L46.1941 26.5925C46.6507 27.3653 46.0536 28.4543 45.0348 28.7705C40.0465 30.2108 35.0582 28.6651 32.7749 24.8712C30.4915 21.0773 31.4751 15.9485 35.0934 12.2248C35.8311 11.452 36.8147 11.4168 37.2714 12.1897Z" fill="#89E219"/><path fill-rule="evenodd" clip-rule="evenodd" d="M42.8571 15.1757C35.4097 13.7354 28.1732 18.5832 26.7329 26.0656L23.2903 43.7354C21.85 51.1827 26.6978 58.4192 34.1802 59.8595C41.6276 61.2998 48.8641 56.452 50.3044 48.9696L53.747 31.2998C55.1873 23.8174 50.3044 16.616 42.8571 15.1757Z" fill="#89E219"/><path fill-rule="evenodd" clip-rule="evenodd" d="M43.3846 21.8501C37.7991 20.7611 32.4244 24.4145 31.3354 29.9648L28.9115 42.4004C27.8225 47.9859 31.4759 53.3606 37.0263 54.4496C42.5766 55.5386 47.9864 51.8852 49.0754 46.3348L51.4993 33.8992C52.5883 28.3138 48.97 22.939 43.3846 21.8501Z" fill="white"/><path fill-rule="evenodd" clip-rule="evenodd" d="M43.1387 29.7189C40.4689 29.192 37.8693 30.9484 37.3424 33.6182L35.6211 42.4707C35.0942 45.1405 36.8506 47.74 39.5204 48.2669C42.1902 48.7938 44.7897 47.0374 45.3167 44.3676L47.038 35.5152C47.5298 32.8102 45.8085 30.2458 43.1387 29.7189Z" fill="#4B4B4B"/><path fill-rule="evenodd" clip-rule="evenodd" d="M37.5531 35.9016C35.4102 35.4801 34.0402 33.4075 34.4266 31.2998C34.8482 29.1569 36.9208 27.7869 39.0285 28.1733C41.1714 28.5948 42.5414 30.6674 42.155 32.7752C41.7334 34.918 39.6608 36.3232 37.5531 35.9016Z" fill="white"/><path fill-rule="evenodd" clip-rule="evenodd" d="M81.9205 28.9813C74.965 27.6113 68.2203 32.178 66.8503 39.1335L65.3397 46.897C63.9697 53.8525 68.5364 60.5972 75.4919 61.9672C82.4474 63.3372 89.1922 58.7705 90.5622 51.815L92.0727 44.0515C93.4428 37.0609 88.9111 30.3162 81.9205 28.9813Z" fill="white"/><path fill-rule="evenodd" clip-rule="evenodd" d="M80.1292 36.7096C76.8622 36.0773 73.7006 38.2202 73.0683 41.4871L71.7685 48.1616C71.1362 51.4286 73.279 54.5902 76.546 55.2225C79.813 55.8548 82.9746 53.712 83.6069 50.445L84.9067 43.7705C85.539 40.5387 83.3961 37.3771 80.1292 36.7096Z" fill="#4B4B4B"/><path d="M74.4733 42.6464C76.6463 42.6464 78.4078 40.8849 78.4078 38.712C78.4078 36.5391 76.6463 34.7776 74.4733 34.7776C72.3004 34.7776 70.5389 36.5391 70.5389 38.712C70.5389 40.8849 72.3004 42.6464 74.4733 42.6464Z" fill="white"/><path fill-rule="evenodd" clip-rule="evenodd" d="M55.8901 46.8618C52.8691 46.2295 49.8129 47.986 48.8644 50.9368L46.2649 58.8759C45.1759 62.178 47.0026 65.726 50.3047 66.815C50.5506 66.8853 50.7965 66.9555 51.0424 67.0258L51.3937 67.096C54.9417 67.7986 58.3492 65.4801 59.0166 61.9321C59.0166 61.8619 59.0517 61.7916 59.0517 61.6862L60.3515 53.3607C60.8433 50.3396 58.8761 47.4942 55.8901 46.8618Z" fill="#F49000"/><path fill-rule="evenodd" clip-rule="evenodd" d="M55.3629 48.267L55.117 48.2319C52.7282 47.7401 50.3746 49.1453 49.672 51.4638L47.494 58.4193C46.7915 60.6324 48.021 63.0211 50.2692 63.6886C50.4097 63.7237 50.5503 63.7589 50.6908 63.794L51.0421 63.8642C53.4659 64.356 55.8196 62.9158 56.5221 60.527L58.5596 53.5012C59.1919 51.2881 57.9273 49.0048 55.7142 48.3373C55.6088 48.3022 55.4683 48.267 55.3629 48.267Z" fill="#DC6A01"/><path fill-rule="evenodd" clip-rule="evenodd" d="M56.4874 60.5269L57.471 57.1194C57.2251 57.0492 57.0144 56.9789 56.7685 56.9438C53.3961 56.2763 50.1643 58.4894 49.4968 61.8618C49.3914 62.3536 49.3563 62.8454 49.3914 63.3021C49.6373 63.4426 49.9184 63.5831 50.2345 63.6885C50.375 63.7236 50.5155 63.7588 50.6561 63.7939L51.0073 63.8641C53.4312 64.3208 55.82 62.8805 56.4874 60.5269Z" fill="#FFCAFF"/><path d="M60.9825 54.4496C61.123 50.0234 57.9263 46.1241 53.4649 45.2459C49.0036 44.3677 44.5773 46.8267 43.0317 50.9719L42.9263 51.2529L46.2635 52.0609L60.9473 54.7307L60.9825 54.4496Z" fill="#FFC200"/><path d="M54.6948 49.8126C54.484 49.8126 54.2732 49.7424 54.0624 49.637C53.0086 49.0398 51.9196 48.829 50.7603 49.0047C50.0578 49.1101 49.3903 48.5831 49.2849 47.8806C49.1795 47.178 49.7065 46.5105 50.4091 46.4052C52.1655 46.1944 53.8165 46.5105 55.3271 47.3536C55.9594 47.7049 56.1702 48.5129 55.8189 49.1101C55.6081 49.5667 55.1514 49.8126 54.6948 49.8126Z" fill="#FFDE00"/></svg>