<svg width="125" height="98" viewBox="0 0 125 98" fill="none" xmlns="http://www.w3.org/2000/svg"><path d="M114.805 78.1182L73.0494 24.6896C70.8112 21.8258 66.448 21.9814 64.4323 24.9969C54.7477 39.4853 55.427 58.9169 66.4589 73.0327C77.4907 87.1484 96.1311 92.4373 112.456 86.4457C115.854 85.1986 117.043 80.982 114.805 78.1182Z" fill="#58CC02"/><path d="M4.1522 96.2838L18.4746 30.0038C19.2423 26.4512 23.2379 24.6912 26.3656 26.528C41.3929 35.3532 49.2432 53.1415 45.4593 70.6525C41.6753 88.1635 27.1983 101.042 9.89324 102.757C6.29151 103.114 3.38452 99.8364 4.1522 96.2838Z" fill="#4CB200"/><path d="M35.4462 16.0799C37.8636 16.2917 57.5207 4.54434 74.8692 6.0642C105.869 8.78002 92.05 47.118 91.3399 55.2235C91.1655 57.2143 94.3768 63.084 93.0438 78.2995C91.0506 101.052 66.898 113.408 48.9807 111.838C31.0634 110.269 5.86286 98.6038 6.94308 53.5613C8.33474 4.9639 31.6068 15.7435 35.4462 16.0799Z" fill="#58CC02"/><path fill-rule="evenodd" clip-rule="evenodd" d="M27.5827 14.8372C22.2953 16.8916 20.4274 22.108 23.2178 22.3525C25.4863 22.5512 32.3636 18.4163 36.0068 16.0084C36.9312 15.7831 38.61 15.0649 40.8459 14.1084C45.4278 12.1482 52.349 9.18726 59.9113 7.41706C59.9144 7.43007 59.9172 7.44317 59.92 7.45635C60.501 10.2791 59.8946 13.1127 58.3571 15.3114C63.3264 19.5224 66.2442 25.9999 65.6325 32.9822L65.0968 39.0968C64.0957 50.5237 54.0208 58.9755 42.5939 57.9744C33.0039 57.1343 25.5094 49.9031 23.9395 40.8454L21.7763 42.8961C21.458 41.077 19.8579 39.6042 16.0041 48.2654C12.5273 56.0788 8.41096 55.4865 6.9405 53.6565C6.94124 53.6248 6.94198 53.5931 6.94275 53.5613C7.90608 19.9214 19.3537 14.7328 27.5827 14.8372Z" fill="#89E219"/><path d="M58.8103 33.9862C59.5133 25.9616 53.578 18.8864 45.5534 18.1834C37.5288 17.4804 30.4537 23.4157 29.7507 31.4403L29.3814 35.6557C28.6783 43.6803 34.6136 50.7554 42.6382 51.4584C50.6628 52.1614 57.7379 46.2261 58.441 38.2015L58.8103 33.9862Z" fill="white"/><path fill-rule="evenodd" clip-rule="evenodd" d="M29.7566 31.3826L29.6145 33.0041C29.1349 38.4792 32.9886 43.2893 38.2221 43.7478C43.4556 44.2063 48.087 40.1395 48.5667 34.6645L49.1051 28.5179C49.5171 23.8161 46.7331 19.6046 42.6239 18.2185C35.8916 18.9812 30.397 24.3804 29.7566 31.3826Z" fill="#535353"/><path d="M15.769 38.6877C17.2396 32.533 18.5827 24.5616 15.5965 24.3C12.5391 24.0322 10.3029 36.4754 9.93885 38.1769C9.57485 39.8784 7.5853 50.321 9.99016 50.6761C12.395 51.0313 14.2984 44.8423 15.769 38.6877Z" fill="white"/><path fill-rule="evenodd" clip-rule="evenodd" d="M14.4727 43.5835C14.938 42.0371 15.3699 40.3609 15.7698 38.6873C17.2404 32.5326 18.5836 24.5612 15.5973 24.2996C12.9641 24.0689 10.94 33.2669 10.1965 36.9106L9.74803 39.7797C9.44951 41.6894 10.7557 43.4796 12.6655 43.7781C13.2976 43.8769 13.9166 43.8 14.4727 43.5835Z" fill="#535353"/><path d="M24.3502 54.0296L25.2728 43.4989L16.7744 43.3785C15.8012 45.9872 13.8216 51.5828 13.6891 53.0956C13.5234 54.9865 13.576 59.262 18.662 59.7076C22.7308 60.0641 24.1495 56.0708 24.3502 54.0296Z" fill="#F49000"/><path d="M21.8469 51.6768L24.1294 43.3003L17.4533 43.1236C16.6668 45.232 15.4026 49.8597 15.1307 51.0884C14.7992 52.5863 14.2383 55.23 17.046 55.476C19.8537 55.722 21.3698 53.358 21.8469 51.6768Z" fill="#A65A00"/><path d="M12.2548 43.7232C13.5141 40.4853 17.0014 38.4291 19.93 38.6857C24.2438 39.0636 25.6494 41.8309 25.8719 43.4502C25.9009 43.6614 25.7899 43.8623 25.5943 43.9472C23.3912 44.9036 17.4074 45.2188 13.135 44.9877C12.48 44.9522 12.0171 44.3344 12.2548 43.7232Z" fill="#FFC200"/><path d="M32.4548 71.4624L22.6772 72.3885C22.1532 72.4382 21.8279 72.9587 22.0349 73.4164C23.0294 75.6159 25.4413 76.9714 28.0245 76.7267C30.6077 76.482 32.7198 74.698 33.2802 72.3513C33.3969 71.8628 32.9789 71.4127 32.4548 71.4624Z" fill="#8EE000"/><path d="M17.5004 72.7767L10.3753 72.7543C9.99339 72.7531 9.72146 73.2397 9.83825 73.7153C10.3994 76.0006 12.044 77.5826 13.9265 77.5886C15.8089 77.5945 17.461 76.0228 18.0329 73.7411C18.152 73.2662 17.8823 72.7779 17.5004 72.7767Z" fill="#8EE000"/><path d="M24.9854 82.0846L17.0084 82.4346C16.5808 82.4533 16.2994 82.9536 16.4526 83.4226C17.1888 85.676 19.1045 87.1703 21.212 87.0779C23.3195 86.9854 25.0946 85.3292 25.6271 83.0201C25.7379 82.5395 25.413 82.0658 24.9854 82.0846Z" fill="#8EE000"/><path fill-rule="evenodd" clip-rule="evenodd" d="M22.7282 48.4386L21.8459 51.6764C21.3688 53.3576 19.8528 55.7216 17.045 55.4756C15.7252 55.36 15.1497 54.7145 14.9449 53.9073C15.4673 50.4988 18.5557 48.0369 22.0399 48.3421C22.2734 48.3626 22.503 48.395 22.7282 48.4386Z" fill="#FEB7FF"/><path fill-rule="evenodd" clip-rule="evenodd" d="M36.5191 20.3629C34.1406 21.8601 32.2107 24.0309 31.0175 26.6339C31.5023 28.5439 33.0024 29.9987 34.8925 30.1643C37.3528 30.3798 39.5422 28.3293 39.7827 25.5843C39.9978 23.1292 38.581 20.95 36.5191 20.3629Z" fill="white"/><path fill-rule="evenodd" clip-rule="evenodd" d="M11.6684 30.8025C11.7614 31.7101 12.108 32.3679 12.6283 32.4685C13.4352 32.6246 14.3542 31.3815 14.681 29.6921C15.0077 28.0027 14.6185 26.5067 13.8116 26.3506C13.6472 26.3188 13.4782 26.3451 13.3104 26.4214C12.6922 27.6175 12.1397 29.1914 11.6684 30.8025Z" fill="white"/><path d="M35.2077 80.4248C36.0192 81.7417 38.2949 84.8338 40.9054 86.6669" stroke="#F49000" stroke-width="14.4173" stroke-linecap="round"/><path fill-rule="evenodd" clip-rule="evenodd" d="M90.7874 88.0757C90.1735 89.0242 89.5146 89.939 88.8152 90.8197C85.2624 89.3482 81.5548 87.3185 78.2958 84.5793C77.6018 83.996 77.5121 82.9605 78.0954 82.2665C78.6787 81.5724 79.7142 81.4827 80.4083 82.066C83.5984 84.7474 87.295 86.6977 90.7874 88.0757Z" fill="#4CB200"/><path d="M41.875 35.9843C41.4932 36.5654 40.8496 37.1534 40.0757 37.4388" stroke="white" stroke-width="5.85257" stroke-linecap="round"/><path fill-rule="evenodd" clip-rule="evenodd" d="M22.3002 39.2157C22.5661 39.6797 22.5786 40.2704 22.2817 40.7602C21.8468 41.4779 20.9124 41.7071 20.1947 41.2721C19.8204 41.0453 18.6797 40.5663 17.5956 40.6533C16.8672 40.7117 16.2176 40.2463 16.0176 39.5728C17.2744 38.9011 18.6553 38.5744 19.9303 38.6861C20.8457 38.7663 21.6302 38.9541 22.3002 39.2157Z" fill="#FFDE00"/></svg>