<svg width="220" height="220" viewBox="0 0 220 220" fill="none" xmlns="http://www.w3.org/2000/svg"><g id="Duo_BicepCurl"><g id="Duo_BicepCurl_2"><path id="octagon SMALL Copy" d="M76.1309 42.6697L82.7333 55.9121C83.477 57.4038 83.5977 59.1299 83.0688 60.7106L78.3737 74.743C77.8448 76.3237 76.7096 77.6296 75.2179 78.3733L61.9755 84.9757C60.4837 85.7195 58.7577 85.8402 57.1769 85.3113L43.1445 80.6161C41.5638 80.0872 40.258 78.952 39.5142 77.4603L32.9118 64.2179C32.168 62.7262 32.0473 61.0001 32.5763 59.4194L37.2714 45.387C37.8003 43.8063 38.9355 42.5004 40.4272 41.7566L53.6696 35.1542C55.1614 34.4105 56.8874 34.2898 58.4681 34.8187L72.5005 39.5139C74.0813 40.0428 75.3871 41.1779 76.1309 42.6697Z" fill="#676767"/><path id="Path" d="M49.1501 73.6101L121.178 102.624C125.039 104.179 126.258 109.028 123.586 112.201C110.747 127.442 89.1734 132.848 70.1437 125.183C51.1146 117.517 39.3617 98.687 40.746 78.8314C41.0339 74.6988 45.2894 72.055 49.1501 73.6101Z" fill="#58CC02"/><path id="Rectangle" d="M89.2896 95.3257C94.2459 87.0772 91.5769 76.3726 83.3284 71.4164C75.0799 66.4602 64.3753 69.1291 59.4191 77.3776C54.4629 85.6262 57.1318 96.3307 65.3803 101.287C73.6289 106.243 84.3334 103.574 89.2896 95.3257Z" fill="#58CC02"/><path id="octagon SMALL" d="M69.0861 44.0456L75.9941 57.901C76.777 59.4712 76.904 61.2881 76.3473 62.952L71.4348 77.6339C70.8781 79.2979 69.6832 80.6725 68.1129 81.4554L54.2576 88.3634C52.6873 89.1463 50.8704 89.2733 49.2065 88.7166L34.5246 83.8041C32.8607 83.2473 31.4861 82.0524 30.7032 80.4822L23.7952 66.6269C23.0123 65.0566 22.8852 63.2397 23.442 61.5758L28.3545 46.8939C28.9112 45.23 30.1061 43.8553 31.6764 43.0725L45.5317 36.1644C47.1019 35.3816 48.9189 35.2545 50.5828 35.8112L65.2647 40.7237C66.9286 41.2805 68.3032 42.4754 69.0861 44.0456Z" fill="#7B7B7B"/><path id="octagon MAIN" d="M61.7946 52.4337L64.907 58.6763C65.6899 60.2465 65.8169 62.0634 65.2602 63.7274L63.0469 70.3423C62.4901 72.0062 61.2952 73.3808 59.725 74.1637L53.4824 77.2761C51.9122 78.059 50.0953 78.1861 48.4313 77.6293L41.8164 75.416C40.1525 74.8593 38.7779 73.6643 37.995 72.0941L34.8826 65.8516C34.0997 64.2813 33.9726 62.4644 34.5294 60.8005L36.7427 54.1855C37.2994 52.5216 38.4944 51.147 40.0646 50.3641L46.3071 47.2517C47.8774 46.4688 49.6943 46.3418 51.3582 46.8985L57.9732 49.1118C59.6371 49.6686 61.0117 50.8635 61.7946 52.4337Z" fill="#676767"/><path id="Path 2 (Stroke)" opacity="0.742327" fill-rule="evenodd" clip-rule="evenodd" d="M61.0217 92.5009C61.6423 91.8461 62.6762 91.8184 63.331 92.439C65.079 94.0959 66.9363 95.0837 68.9101 95.4819C70.8898 95.8813 73.0946 95.7091 75.5629 94.8766C76.4178 94.5883 77.3445 95.0476 77.6328 95.9024C77.9211 96.7573 77.4618 97.684 76.607 97.9723C73.704 98.9514 70.9101 99.2183 68.2639 98.6844C65.6118 98.1493 63.2159 96.8314 61.0835 94.8101C60.4287 94.1895 60.4011 93.1556 61.0217 92.5009Z" fill="#3EB200"/><path id="Path_2" fill-rule="evenodd" clip-rule="evenodd" d="M132.111 85.7069L134.002 86.2851C135.047 86.6045 135.635 87.7101 135.315 88.7545C134.996 89.7991 133.89 90.3868 132.846 90.0676L130.955 89.4893C129.91 89.17 129.322 88.0644 129.642 87.0199C129.961 85.9755 131.067 85.3876 132.111 85.7069Z" fill="#FFEB16"/><path id="Path_3" fill-rule="evenodd" clip-rule="evenodd" d="M137.386 106.381L164.663 90.5758C168.739 88.2133 173.96 89.6033 176.322 93.6803C176.327 93.6882 176.331 93.6959 176.336 93.7037L195.908 127.727C198.252 131.802 196.858 137.006 192.79 139.364L165.514 155.169C161.437 157.531 156.216 156.141 153.855 152.064C153.849 152.056 153.845 152.048 153.841 152.041L134.269 118.018C131.924 113.942 133.318 108.738 137.386 106.381Z" fill="#58CC02"/><path id="Path_4" fill-rule="evenodd" clip-rule="evenodd" d="M168.364 135.283C172.315 136.491 174.539 140.673 173.331 144.625L169.641 156.696C168.433 160.648 164.251 162.871 160.299 161.664C156.348 160.456 154.124 156.273 155.332 152.322L159.023 140.25C160.231 136.299 164.413 134.075 168.364 135.283Z" fill="#58CC02"/><path id="Path_5" fill-rule="evenodd" clip-rule="evenodd" d="M121.157 37.0766C132.298 46.4151 140.243 51.8105 144.993 53.2628C149.712 54.7056 159.165 54.669 173.353 53.1535C182.925 52.1311 191.513 59.0617 192.536 68.6335C192.785 70.9699 192.559 73.3329 191.873 75.5803L176.148 127.018C167.824 154.248 139.003 169.574 111.773 161.249L111.77 161.248C84.5404 152.922 69.2146 124.099 77.5392 96.8686L93.2922 45.3388C96.1065 36.1331 105.851 30.9519 115.056 33.7661C117.291 34.4494 119.366 35.5753 121.157 37.0766Z" fill="#58CC02"/><path id="Path_6" fill-rule="evenodd" clip-rule="evenodd" d="M132.093 61.0121C135.368 68.0138 144.478 70.7727 151.012 66.7705C147.096 79.5821 142.444 94.7988 142.473 94.7024C142.493 94.6381 136.189 92.7108 123.561 88.9199C125.58 82.1446 128.423 72.842 132.093 61.0121Z" fill="#89E219"/><path id="Path_7" fill-rule="evenodd" clip-rule="evenodd" d="M119.091 50.6469L120.366 51.0368C130.585 54.1624 136.337 64.9795 133.214 75.1991L129.584 87.0718C126.461 97.2919 115.644 103.044 105.424 99.9198L105.423 99.9185L104.148 99.5286C93.9292 96.4029 88.1776 85.5859 91.3007 75.3663L94.9302 63.4935C98.0534 53.2735 108.871 47.5215 119.09 50.6456L119.091 50.6469Z" fill="#89E219"/><path id="Path_8" fill-rule="evenodd" clip-rule="evenodd" d="M166.775 64.8024L168.049 65.1919C178.268 68.3176 184.019 79.1345 180.896 89.3541L177.267 101.227C174.144 111.447 163.326 117.199 153.107 114.075L153.105 114.074L151.924 113.712C141.762 110.605 136.007 99.8841 139.033 89.6976L142.569 77.7959C145.612 67.5519 156.384 61.7148 166.628 64.7581C166.677 64.7729 166.726 64.7876 166.775 64.8024Z" fill="#89E219"/><path id="Path_9" fill-rule="evenodd" clip-rule="evenodd" d="M117.013 57.6474C124.488 59.933 128.696 67.8454 126.41 75.3205L123.893 83.5544C121.608 91.029 113.696 95.236 106.222 92.951C106.222 92.9509 106.222 92.9511 106.222 92.951C98.7468 90.6655 94.539 82.7529 96.8242 75.2777L99.3413 67.0439C101.626 59.5693 109.539 55.3624 117.013 57.6474C117.014 57.6475 117.013 57.6473 117.013 57.6474Z" fill="white"/><path id="Path_10" fill-rule="evenodd" clip-rule="evenodd" d="M164.965 72.3087C172.44 74.5943 176.647 82.5066 174.362 89.9819L171.844 98.2156C169.56 105.69 161.647 109.897 154.173 107.612C146.698 105.327 142.49 97.4143 144.775 89.939L147.292 81.705C149.577 74.2305 157.49 70.0236 164.965 72.3087Z" fill="white"/><path id="Path_11" fill-rule="evenodd" clip-rule="evenodd" d="M176.376 83.5794L147.033 78.6208L147.32 77.6837C149.702 69.8909 157.95 65.5048 165.743 67.887L168.477 68.723C174.761 70.6444 178.297 77.2956 176.376 83.5794Z" fill="#89E219"/><path id="Subtract" d="M150.781 88.2793C151.482 88.6336 152.292 88.7909 153.131 88.688C155.386 88.411 156.991 86.3545 156.713 84.0943C156.636 83.4674 156.422 82.8907 156.105 82.3905C157.199 82.1441 158.369 82.1701 159.517 82.5211C163.041 83.5985 165.025 87.3288 163.947 90.8526L161.8 97.8767C160.723 101.401 156.993 103.384 153.469 102.307C149.945 101.229 147.962 97.4994 149.039 93.9752L150.781 88.2793Z" fill="#4B4B4B"/><path id="Subtract_2" d="M107.089 74.8986C107.926 75.5752 109.024 75.9246 110.175 75.7832C112.431 75.5063 114.035 73.4496 113.757 71.1895C113.652 70.3297 113.289 69.5643 112.756 68.9612C113.748 68.7926 114.792 68.8465 115.82 69.1606C119.344 70.2379 121.327 73.968 120.25 77.492L118.103 84.516C117.026 88.0399 113.296 90.0232 109.772 88.946C106.248 87.8687 104.264 84.1386 105.342 80.6145L107.089 74.8986Z" fill="#4B4B4B"/><path id="Path_12" fill-rule="evenodd" clip-rule="evenodd" d="M158.366 110.747L146.187 106.554C142.374 105.241 140.348 101.086 141.661 97.2729L143.378 92.2861L174.522 98.7185L172.805 103.705C170.762 109.636 164.298 112.789 158.366 110.747Z" fill="#89E219"/><path id="Path_13" fill-rule="evenodd" clip-rule="evenodd" d="M95.5153 35.3143L194.322 65.5253C195.369 65.8455 196.013 66.7773 195.76 67.6062L192.362 78.7214C192.108 79.55 191.054 79.9622 190.006 79.6417L91.1999 49.4309C90.152 49.1106 89.5078 48.1789 89.7612 47.3501L93.1593 36.2349C93.4128 35.4061 94.4675 34.994 95.5153 35.3143Z" fill="#FF4B4B"/><path id="Path_14" fill-rule="evenodd" clip-rule="evenodd" d="M91.9001 38.4399L195.536 70.1277L193.876 75.5589L90.2397 43.8712L91.9001 38.4399Z" fill="white"/><path id="Path_15" fill-rule="evenodd" clip-rule="evenodd" d="M99.3883 94.6794L111.705 98.4456C115.562 99.6247 119.644 97.4543 120.823 93.5978L122.365 88.5543L93.3883 75.4523L91.8464 80.4956C90.0125 86.4949 93.389 92.8451 99.3883 94.6794Z" fill="#89E219"/><path id="Path_16" d="M106.921 120.752L119.331 124.542C119.997 124.744 120.28 125.504 119.891 126.042C118.021 128.626 114.54 129.741 111.261 128.74C107.982 127.738 105.721 124.87 105.617 121.684C105.596 121.02 106.256 120.548 106.921 120.752Z" fill="#89E219"/><path id="Path_17" d="M128.576 127.373L140.987 131.162C141.652 131.366 141.935 132.125 141.546 132.664C139.676 135.247 136.195 136.362 132.916 135.361C129.638 134.36 127.377 131.491 127.273 128.305C127.251 127.641 127.911 127.17 128.576 127.373Z" fill="#89E219"/><path id="Path_18" d="M114.547 134.537L126.957 138.327C127.623 138.53 127.905 139.289 127.516 139.828C125.646 142.411 122.165 143.527 118.886 142.526C115.608 141.524 113.346 138.655 113.243 135.469C113.221 134.805 113.881 134.334 114.547 134.537Z" fill="#89E219"/><path id="Path_19" fill-rule="evenodd" clip-rule="evenodd" d="M135.489 85.7842C139.546 87.1061 141.766 91.4583 140.453 95.5129L139.801 97.5239C139.8 97.529 139.798 97.534 139.796 97.5391C138.478 101.58 134.128 103.787 130.082 102.469C126.025 101.147 123.804 96.7948 125.118 92.7403L125.77 90.7294C125.772 90.7244 125.773 90.7193 125.775 90.7141C127.094 86.6733 131.443 84.4661 135.489 85.7842Z" fill="#F49000"/><path id="Path_20" d="M142.768 97.1721L142.577 97.762L131.819 96.1728L122.184 91.1183L122.375 90.5284C124.738 86.1574 130.19 83.9447 134.956 85.4974C140.305 87.24 143.419 92.2435 142.768 97.1721Z" fill="#FFC200"/><path id="Path_21" d="M137.469 89.1537C138.134 89.6738 138.253 90.6351 137.733 91.3003C137.213 91.9657 136.252 92.0834 135.586 91.5631C134.55 90.7532 133.406 90.3799 132.095 90.423C131.25 90.4507 130.543 89.7889 130.515 88.9447C130.486 88.1005 131.147 87.3937 131.991 87.366C134.02 87.2992 135.867 87.9019 137.469 89.1537Z" fill="#FFDE00"/><path id="Path_22" fill-rule="evenodd" clip-rule="evenodd" d="M96.3805 173.282C96.3805 176.834 93.5021 179.715 89.9515 179.715H79.683C76.1323 179.715 73.2539 176.834 73.2539 173.282C73.2539 169.728 76.1323 166.849 79.683 166.849H89.9515C93.5021 166.849 96.3805 169.728 96.3805 173.282Z" fill="#F49000"/><path id="Path Copy" fill-rule="evenodd" clip-rule="evenodd" d="M155.87 173.18C155.87 176.733 152.992 179.613 149.441 179.613H139.173C135.622 179.613 132.744 176.733 132.744 173.18C132.744 169.627 135.622 166.747 139.173 166.747H149.441C152.992 166.747 155.87 169.627 155.87 173.18Z" fill="#F49000"/><path id="Path_23" opacity="0.3" fill-rule="evenodd" clip-rule="evenodd" d="M171.303 179.65C173.447 179.65 175.185 181.389 175.185 183.534C175.185 185.679 173.447 187.417 171.303 187.417H57.2819C55.1385 187.417 53.4009 185.679 53.4009 183.534C53.4009 181.389 55.1385 179.65 57.2819 179.65H171.303Z" fill="#AFAFAF"/></g><path id="Rectangle 1187" opacity="0.6" d="M96.3241 22.1706C96.8201 21.7664 96.8945 21.0365 96.4903 20.5405L93.0584 16.3293C92.6541 15.8333 91.9243 15.7589 91.4283 16.1631L87.2171 19.595C86.721 19.9993 86.6466 20.7291 87.0509 21.2252L90.4828 25.4363C90.887 25.9324 91.6169 26.0068 92.1129 25.6025L96.3241 22.1706Z" fill="white"/><path id="Rectangle 1182" opacity="0.7" d="M16.9158 46.8027C17.4135 46.305 17.4135 45.498 16.9158 45.0003L12.6903 40.7748C12.1925 40.2771 11.3856 40.2771 10.8879 40.7748L6.66236 45.0003C6.16463 45.498 6.16463 46.305 6.66236 46.8027L10.8879 51.0282C11.3856 51.5259 12.1925 51.5259 12.6903 51.0282L16.9158 46.8027Z" fill="white"/><path id="Rectangle 1183" opacity="0.9" d="M34.6626 15.9139C35.4979 15.0786 35.4979 13.7244 34.6626 12.8891L30.8015 9.02795C29.9662 8.19267 28.6119 8.19267 27.7766 9.02795L23.9155 12.8891C23.0802 13.7244 23.0802 15.0786 23.9155 15.9139L27.7766 19.775C28.6119 20.6103 29.9662 20.6103 30.8015 19.775L34.6626 15.9139Z" fill="white"/></g></svg>