<svg width="111" height="129" viewBox="0 0 111 129" fill="none" xmlns="http://www.w3.org/2000/svg"><path fill-rule="evenodd" clip-rule="evenodd" d="M17.0284 90.4308C5.36512 87.7381 -1.90697 76.1004 0.785703 64.4371C3.47838 52.7739 15.1161 45.5018 26.7794 48.1945C38.4426 50.8871 45.7147 62.5249 43.022 74.1881C40.3294 85.8514 28.6916 93.1235 17.0284 90.4308Z" fill="#58CC02"/><path fill-rule="evenodd" clip-rule="evenodd" d="M93.9778 13.03L92.8079 13.1018L91.655 13.1705L90.5191 13.2363L89.4002 13.2991L88.2984 13.359L87.2136 13.4158L86.1458 13.4697L85.095 13.5207L84.0613 13.5686L83.0446 13.6136L82.0449 13.6556L81.0622 13.6946C80.8999 13.7008 80.7383 13.707 80.5773 13.713L79.6202 13.7475L78.6801 13.7791L77.757 13.8077L76.851 13.8333C76.7014 13.8374 76.5526 13.8413 76.4044 13.845L75.5239 13.8662C75.3786 13.8695 75.2339 13.8726 75.09 13.8757L74.2351 13.8924C74.094 13.8949 73.9536 13.8973 73.814 13.8996L72.9846 13.9119C72.8477 13.9136 72.7116 13.9153 72.5762 13.9169L71.7724 13.9246L70.9855 13.9294L70.2157 13.9313L69.4629 13.9301C69.3388 13.9297 69.2155 13.9291 69.0929 13.9284L68.3656 13.9228L67.6554 13.9142L66.9622 13.9027L66.286 13.8881L65.6268 13.8706L64.9847 13.8501C64.6679 13.8392 64.3575 13.8271 64.0535 13.8138L63.4539 13.7859C63.3554 13.781 63.2576 13.776 63.1605 13.7708L62.5865 13.7385L62.0295 13.7031C59.6527 13.5434 57.7556 13.2999 56.338 12.9727C53.2207 12.253 50.2811 10.1718 47.5193 6.72925C42.2059 0.106059 32.5293 -0.955709 25.9061 4.35773C23.2116 6.51943 21.3235 9.5256 20.5464 12.8916L10.0322 58.4335C4.35859 83.0089 19.6814 107.531 44.2567 113.204C68.832 118.878 93.3537 103.555 99.0273 78.9797L109.912 31.8335C111.822 23.56 106.663 15.3045 98.3899 13.3945C96.9445 13.0608 95.4584 12.938 93.9778 13.03Z" fill="#58CC02"/><path fill-rule="evenodd" clip-rule="evenodd" d="M93.9778 13.03L92.8079 13.1018L91.655 13.1705L90.5191 13.2363L89.4002 13.2991L88.2984 13.359L87.2136 13.4158L86.1458 13.4697L85.095 13.5207L84.0613 13.5686L83.0446 13.6136L82.0449 13.6556L81.0622 13.6946C80.8999 13.7008 80.7383 13.707 80.5773 13.713L79.6202 13.7475L78.6801 13.7791L77.757 13.8077L76.851 13.8333C76.7014 13.8374 76.5526 13.8413 76.4044 13.845L75.5239 13.8662C75.3786 13.8695 75.2339 13.8726 75.09 13.8757L74.2351 13.8924C74.094 13.8949 73.9536 13.8973 73.814 13.8996L72.9846 13.9119C72.8477 13.9136 72.7116 13.9153 72.5762 13.9169L71.7724 13.9246L70.9855 13.9294L70.2157 13.9313L69.4629 13.9301C69.3388 13.9297 69.2155 13.9291 69.0929 13.9284L68.3656 13.9228L67.6554 13.9142L66.9622 13.9027L66.286 13.8881L65.6268 13.8706L64.9847 13.8501C64.6679 13.8392 64.3575 13.8271 64.0535 13.8138L63.4539 13.7859C63.3554 13.781 63.2576 13.776 63.1605 13.7708L62.5865 13.7385L62.0295 13.7031C59.6527 13.5434 57.7556 13.2999 56.338 12.9727C53.2207 12.253 50.2811 10.1718 47.5193 6.72925C42.2059 0.106059 32.5293 -0.955709 25.9061 4.35773C23.2116 6.51943 21.3235 9.5256 20.5464 12.8916L10.0322 58.4335C4.35859 83.0089 19.6814 107.531 44.2567 113.204C68.832 118.878 93.3537 103.555 99.0273 78.9797L109.912 31.8335C111.822 23.56 106.663 15.3045 98.3899 13.3945C96.9445 13.0608 95.4584 12.938 93.9778 13.03Z" fill="#58CC02"/><path fill-rule="evenodd" clip-rule="evenodd" d="M37.1732 87.6663C37.4895 88.329 37.2087 89.1227 36.546 89.439C34.3622 90.4813 31.5898 91.202 28.3437 91.6571C25.5671 92.0464 22.5652 92.2253 19.497 92.2417C18.7533 92.2456 18.0322 92.2398 17.3395 92.2259L16.753 92.2121L16.1813 92.1945L15.6252 92.1734L15.3449 92.1615C14.8201 91.2848 14.3244 90.3906 13.8589 89.4804C13.9815 89.4475 14.1096 89.4321 14.2411 89.4362L14.6695 89.4632L15.0368 89.4837L15.4434 89.5036L15.7355 89.5163C15.912 89.5237 16.0913 89.5305 16.2731 89.5367L16.8261 89.5537L17.3938 89.5671L17.9751 89.5767C18.4651 89.583 18.9684 89.5851 19.4828 89.5824C22.4409 89.5666 25.3285 89.3945 27.9744 89.0235C30.9741 88.6029 33.4988 87.9467 35.4005 87.039C36.0632 86.7227 36.8569 87.0036 37.1732 87.6663Z" fill="#3DBE01"/><path fill-rule="evenodd" clip-rule="evenodd" d="M57.4579 28.0292C52.6487 31.773 47.0887 29.9361 45.1798 25.6421C42.1752 19.1214 39.0027 27.4467 35.6096 50.5721L52.8476 53.8778C59.1001 34.1696 60.6545 25.5688 57.4579 28.0292Z" fill="#89E219"/><path fill-rule="evenodd" clip-rule="evenodd" d="M75.6023 25.3068L74.2735 25.0435C65.8245 23.4196 56.751 29.9622 54.0115 39.5862L50.9301 50.4875C48.1811 60.1471 52.8285 69.2851 61.2464 70.9036L62.5752 71.1669C71.0242 72.7907 80.0978 66.2482 82.8372 56.6242L85.9187 45.7228C88.6676 36.0633 84.0514 26.9306 75.6023 25.3068Z" fill="#89E219"/><path d="M72.6565 17.9419L55.5802 31.1249C54.6663 31.8299 54.5625 33.1959 55.3098 33.8461C59.009 36.8665 64.5442 36.6086 68.9781 33.0978C73.4121 29.587 75.6471 23.7214 74.6266 18.5751C74.4138 17.5295 73.5389 17.2315 72.6565 17.9419Z" fill="#89E219"/><path d="M78.6184 23.058L61.8183 36.3234C60.9045 37.0284 60.8008 38.3941 61.5479 39.0443C65.2466 42.0644 70.781 41.8065 75.2143 38.2961C79.6476 34.7856 81.8823 28.9207 80.862 23.775C80.6902 22.699 79.5418 22.3173 78.6184 23.058Z" fill="#89E219"/><path d="M35.6898 10.3861L42.3332 24.9665C42.6857 25.7364 42.013 26.8929 40.9974 27.2438C36.1879 28.8572 31.735 27.4292 30.0356 23.5907C28.3363 19.7522 29.8207 14.4731 33.6454 10.5252C34.4397 9.65087 35.3373 9.61627 35.6898 10.3861Z" fill="#89E219"/><path d="M28.623 13.5589L35.2667 28.1397C35.6192 28.9095 34.9464 30.0661 33.9308 30.417C29.1211 32.0304 24.6681 30.6024 22.9686 26.7638C21.2692 22.9252 22.7537 17.646 26.5785 13.6979C27.3632 12.8593 28.2705 12.789 28.623 13.5589Z" fill="#89E219"/><path fill-rule="evenodd" clip-rule="evenodd" d="M34.8569 16.1341C28.2966 14.86 21.2257 19.9654 19.111 27.5761L14.0535 45.5581C11.9176 53.1284 15.5024 60.3219 22.1025 61.5662C28.6628 62.8404 35.7338 57.735 37.8484 50.1243L42.906 32.1423C45.0419 24.572 41.4477 17.4136 34.8569 16.1341Z" fill="#89E219"/><path fill-rule="evenodd" clip-rule="evenodd" d="M34.9882 22.8737C30.1663 21.9653 24.9264 25.8678 23.2579 31.5809L19.5603 44.3153C17.8918 50.0284 20.4587 55.3699 25.2806 56.2782C30.1026 57.1866 35.3424 53.2841 37.0109 47.571L40.7085 34.8365C42.377 29.1234 39.8101 23.782 34.9882 22.8737Z" fill="white"/><path fill-rule="evenodd" clip-rule="evenodd" d="M33.9781 30.9404C31.7113 30.5309 29.2476 32.3722 28.4568 35.1146L25.8306 44.1469C25.0398 46.8893 26.1953 49.4361 28.4622 49.8456C30.7291 50.2551 33.1927 48.4138 33.9836 45.6714L36.6097 36.6391C37.3908 33.9319 36.2061 31.3803 33.9781 30.9404Z" fill="#4B4B4B"/><path fill-rule="evenodd" clip-rule="evenodd" d="M27.2644 37.4892C25.3477 37.1395 24.3407 35.0499 24.9988 32.816C25.6569 30.5821 27.7374 29.0705 29.6541 29.4202C31.5708 29.77 32.5778 31.8595 31.9197 34.0934C31.2616 36.3274 29.1811 37.8389 27.2644 37.4892Z" fill="white"/><path fill-rule="evenodd" clip-rule="evenodd" d="M72.9295 31.1069C66.826 29.9613 60.1432 34.8764 58.0298 42.1043L55.6668 50.1121C53.5329 57.2993 56.7658 64.0569 62.9097 65.1718C69.0536 66.2867 75.696 61.4023 77.8094 54.1744L80.1724 46.1666C82.2759 38.9745 79.043 32.2168 72.9295 31.1069Z" fill="white"/><path fill-rule="evenodd" clip-rule="evenodd" d="M70.345 39.1048C67.5515 38.5801 64.4782 40.9071 63.4651 44.272L61.4383 51.113C60.4252 54.4779 61.8929 57.6114 64.6865 58.1361C67.4801 58.6608 70.5534 56.3338 71.5665 52.9689L73.5932 46.1279C74.5767 42.7582 73.1386 39.6295 70.345 39.1048Z" fill="#4B4B4B"/><path d="M62.8413 45.3696C64.7605 45.6807 66.826 44.1206 67.4547 41.8851C68.0833 39.6495 67.0371 37.5851 65.1178 37.274C63.1985 36.9629 61.1331 38.523 60.5044 40.7585C59.8758 42.9941 60.922 45.0585 62.8413 45.3696Z" fill="white"/><path d="M26.6374 58.6881L36.5487 53.6195C31.1233 47.9606 24.9498 44.243 18.1064 42.5568L16.1718 48.6261C15.2768 51.3856 16.2824 54.1681 18.5379 55.1731C20.5619 56.0229 22.5087 57.1662 24.3882 58.5662C25.0179 59.0207 25.8512 59.0886 26.6374 58.6881ZM37.6599 54.963L37.7118 54.8952C37.6563 54.8473 37.6333 54.8049 37.5778 54.7569L37.6599 54.963Z" fill="#89E219"/><path d="M56.7474 63.3805L55.5993 59.0932C64.0533 55.3618 72.1485 53.899 79.6513 54.8171L78.6544 59.3822C77.8424 62.986 74.8526 65.8303 71.5225 66.0938C69.1272 66.29 66.6646 66.7421 64.1251 67.4865C60.7978 68.5146 57.6197 66.7794 56.7474 63.3805Z" fill="#89E219"/><path fill-rule="evenodd" clip-rule="evenodd" d="M45.9441 48.1936C43.3363 47.6523 40.4031 49.5363 39.1833 52.5911L35.8576 60.7744C34.4801 64.1732 35.6284 67.7298 38.4383 68.6744C38.6383 68.7444 38.8682 68.8194 39.078 68.854L39.3777 68.9034C42.4149 69.4786 45.7637 66.9972 46.8207 63.3975C46.8402 63.3267 46.8695 63.2206 46.8891 63.1498L49.0852 54.632C49.9356 51.5533 48.522 48.73 45.9441 48.1936Z" fill="#F49000"/><path fill-rule="evenodd" clip-rule="evenodd" d="M45.2641 49.6338L45.0571 49.6003C43.0369 49.1992 40.783 50.7257 39.8377 53.0943L36.9818 60.2711C36.0564 62.5688 36.8468 64.9217 38.7084 65.5567C38.8167 65.6114 38.9646 65.6353 39.0828 65.6544L39.3785 65.7023C41.4283 66.1082 43.7318 64.5156 44.6279 62.1019L47.346 54.8657C48.2022 52.5939 47.3918 50.3119 45.5398 49.7526C45.4415 49.6625 45.3528 49.6482 45.2641 49.6338Z" fill="#DC6A01"/><path fill-rule="evenodd" clip-rule="evenodd" d="M46.5255 58.4364C46.3197 58.3653 46.114 58.2942 45.8982 58.2591C42.9282 57.7002 39.6471 60.0959 38.6309 63.6119C38.4902 64.1149 38.3803 64.6229 38.342 65.105C38.5585 65.253 38.8158 65.37 39.0523 65.4461C39.1656 65.5021 39.3197 65.5272 39.443 65.5473L39.7513 65.5975C41.889 66.0208 44.2714 64.4179 45.181 61.974L46.5255 58.4364Z" fill="#FFCAFF"/><path d="M49.3437 56.3341C50.072 51.4962 47.5382 47.2809 43.3701 46.5148C39.1697 45.7433 34.6121 48.5915 32.5523 53.2101L32.4027 53.5054L35.4786 54.2916L49.2484 56.6782L49.3437 56.3341Z" fill="#FFC200"/><path d="M43.5782 51.5932C43.4482 51.5718 43.3289 51.5121 43.2096 51.4525C42.2866 50.8605 41.2577 50.651 40.1124 50.8625C39.3992 50.9851 38.866 50.4572 38.8724 49.6982C38.8893 48.9009 39.4584 48.1945 40.1391 48.0666C41.8571 47.7494 43.4057 48.0444 44.763 48.908C45.306 49.2774 45.4084 50.1344 45.0123 50.8292C44.648 51.4093 44.0979 51.6788 43.5782 51.5932Z" fill="#FFDE00"/><path d="M13.4719 60.7187C14.0458 60.2605 14.8825 60.3543 15.3407 60.9282L16.9431 62.9328L18.4987 64.8733L20.0072 66.7498L21.4688 68.5623L22.8834 70.3107L24.2509 71.995L25.5714 73.6151L26.8448 75.1711L27.7689 76.296L28.6665 77.3847L29.822 78.7801L30.6576 79.7845L31.7305 81.0675L32.5042 81.9875L33.2513 82.8713L33.9718 83.7189L34.6657 84.5303L35.1135 85.0511L35.5494 85.5557L35.9736 86.0443L36.3859 86.5168L36.9821 87.1953L37.3648 87.6275L37.7356 88.0435L38.0945 88.4435L38.4416 88.8272L38.7769 89.1949L39.1002 89.5464L39.4117 89.8818L39.7844 90.2783L40.1385 90.6496L40.4958 91.0178L40.6665 91.1911L40.9126 91.4376L41.1469 91.668L41.474 91.9832L41.8984 92.3874C45.4802 95.7783 48.433 98.0423 52.1382 99.9432C57.3328 102.608 63.1933 103.952 70.0829 103.725C70.8169 103.701 71.4315 104.276 71.4557 105.01C71.4799 105.744 70.9045 106.359 70.1706 106.383C62.8248 106.625 56.517 105.179 50.9242 102.309C47.2693 100.434 44.3232 98.2486 40.9526 95.1431L40.5199 94.7417L40.3017 94.5371L39.8611 94.1201C39.7133 93.9793 39.5644 93.8368 39.4146 93.6924L39.2984 93.5799L39.0572 93.3428L38.8044 93.0898L38.5398 92.8208L38.2636 92.5358L37.9757 92.2348L37.676 91.9178L37.5218 91.7533L37.0416 91.2358L36.7068 90.8708L36.3603 90.4897L36.0021 90.0927L35.6322 89.6796L35.2505 89.2505L34.8571 88.8053L34.452 88.3441L33.8223 87.6223L33.3878 87.121L32.714 86.339L32.0138 85.5209L31.5323 84.9554L30.788 84.077L30.0172 83.1625L29.2199 82.2118L28.3962 81.225L27.5459 80.202L26.9643 79.4998L26.0698 78.4165L24.8359 76.9156L23.5547 75.3504L22.2263 73.7207L21.199 72.4561L19.7879 70.7135L18.6985 69.3643L17.2046 67.5088L15.6633 65.5887L13.2624 62.5874C12.8042 62.0135 12.898 61.1769 13.4719 60.7187Z" fill="#3DBE01"/><path d="M18.1855 64.6158C29.9067 64.0606 41.9735 67.7638 54.3685 75.6887L54.6005 75.8377L58.2362 74.7046C58.9178 74.4922 59.6414 74.8561 59.8819 75.5207L59.9013 75.5784C60.1138 76.26 59.7499 76.9836 59.0852 77.2241L59.0275 77.2435L54.7968 78.5622C54.4182 78.6802 54.0066 78.623 53.6745 78.4063C41.4549 70.4323 29.6734 66.734 18.3114 67.2722C17.5778 67.3069 16.955 66.7405 16.9203 66.0069C16.8855 65.2734 17.452 64.6506 18.1855 64.6158Z" fill="#3DBE01"/><path fill-rule="evenodd" clip-rule="evenodd" d="M8.77753 122.787C8.77753 119.507 11.4362 116.848 14.7159 116.848H24.0059C27.2856 116.848 29.9442 119.507 29.9442 122.787C29.9442 126.066 27.2856 128.725 24.0059 128.725H14.7159C11.4362 128.725 8.77753 126.066 8.77753 122.787Z" fill="#F49000"/><path fill-rule="evenodd" clip-rule="evenodd" d="M50.2636 122.911C50.2636 119.631 52.9223 116.972 56.2019 116.972H65.492C68.7716 116.972 71.4303 119.631 71.4303 122.911C71.4303 126.19 68.7716 128.849 65.492 128.849H56.2019C52.9223 128.849 50.2636 126.19 50.2636 122.911Z" fill="#F49000"/></svg>