<svg width="270" height="270" viewBox="0 0 270 270" fill="none" xmlns="http://www.w3.org/2000/svg"><path d="M81.9254 45.9581C76.0675 43.5288 63.4975 43.315 48.5221 53.555L63.2359 97.1023C87.5633 91.3991 138.424 79.5886 147.25 77.973C158.281 75.9534 156.898 76.7951 161.215 69.9992C165.785 62.8043 166.117 44.4508 158.202 38.7481C149.569 32.5273 136.14 34.1246 131.326 38.7484C109.141 19.0057 87.2399 33.9911 81.9254 45.9581Z" fill="#C1473A"/><path d="M71.1425 69.5861C75.0005 81.7679 72.354 93.7897 65.2313 96.4374C58.1085 99.0851 49.2069 91.3562 45.3489 79.1743C41.4909 66.9924 43.6985 54.8819 50.8212 52.2342C57.9439 49.5865 67.2846 57.4042 71.1425 69.5861Z" fill="#A54238"/><path fill-rule="evenodd" clip-rule="evenodd" d="M96.5841 63.3399C93.8546 55.3387 88.1016 48.1935 79.0406 45.1404C78.5857 44.9871 78.5974 44.3017 79.0631 44.1852C80.7287 43.7688 82.4929 43.7853 84.0757 44.4507C91.8922 47.7372 96.5822 54.0425 99.4234 62.3713C102.536 71.4962 102.554 81.7241 101.242 89.2873L98.2866 88.7747C99.5339 81.5821 99.4979 71.8814 96.5841 63.3399Z" fill="#E0AF59"/><path fill-rule="evenodd" clip-rule="evenodd" d="M141.003 58.5468C139.958 50.8145 135.212 42.8128 130.068 37.719C129.777 37.4309 129.945 36.9268 130.352 36.8799C131.573 36.7389 132.813 37.06 133.75 37.8556C140.176 43.3132 142.892 50.1272 143.976 58.145C145.139 66.75 143.86 75.4235 141.739 81.163L138.925 80.123C140.877 74.8414 142.1 66.6629 141.003 58.5468Z" fill="#E0AF59"/><path d="M69.6337 92.3075C56.6347 97.474 50.1371 79.0961 50.1374 70.8012C50.1376 61.8664 54.9717 59.8997 58.0691 62.8236C65.1645 69.5214 63.6292 82.0318 60.2864 81.6604C56.9437 81.2889 56.6343 75.4083 56.6343 73.4894" stroke="#7B3029" stroke-width="2" stroke-linecap="round"/><path d="M57.3514 78.5932C56.3396 77.3157 55.3771 77.2623 55.0223 77.3954" stroke="#7B3029" stroke-width="2" stroke-linecap="round"/><path d="M63.1753 78.3148C64.8252 78.9001 65.4508 77.8272 65.6673 77.3291" stroke="#7B3029" stroke-width="2" stroke-linecap="round"/><path d="M50.4704 66.4221C48.3944 66.0496 48.2137 64.8878 48.2359 64.2891" stroke="#7B3029" stroke-width="2" stroke-linecap="round"/><path d="M54.2628 85.4935C53.3918 85.0613 52.7339 86.1149 52.9218 87.0366" stroke="#7B3029" stroke-width="2" stroke-linecap="round"/><path d="M45.3895 135.239C42.2875 116.979 51.9583 97.7156 70.6296 92.7126L138.191 76.3129C153.662 72.1676 168.371 79.9646 172.517 95.4351L185.953 145.581C190.099 161.052 180.918 176.954 165.447 181.099L93.3688 199.493C77.8983 203.639 68.2168 193.786 60.6079 178.569C52.9991 163.351 48.4915 153.5 45.3895 135.239Z" fill="#95492B"/><path fill-rule="evenodd" clip-rule="evenodd" d="M62.367 96.1508C61.4397 97.7599 61.2604 102.229 63.0633 115.856C65.8578 136.979 71.4539 159.159 79.4555 178.492C85.542 193.197 91.0265 198.062 96.3555 198.731L165.447 181.099C180.918 176.954 190.099 161.052 185.953 145.581L172.517 95.435C168.908 81.967 156.389 73.2657 143.002 73.9738L64.4899 95.011C63.764 95.3673 63.0562 95.7476 62.367 96.1508Z" fill="#883D29"/><path fill-rule="evenodd" clip-rule="evenodd" d="M62.0029 107.688C62.4864 111.801 67.4753 120.47 63.2368 121.324C59.9816 121.979 57.5586 122.122 55.6375 122.228C54.6962 122.28 53.9342 122.996 53.8506 123.935C53.5611 127.186 53.6564 128.254 48.3732 129.209C45.8024 129.207 44.6881 129.281 41.5864 128.519C38.6596 127.342 36.8769 123.625 36.6302 121.382C36.1941 117.415 36.3917 114.854 37.3921 110.781C39.4042 102.589 46.2265 101.702 53.6492 100.83C57.763 100.347 61.5194 103.574 62.0029 107.688Z" fill="#883D29"/><path d="M74.3615 92.1913C69.9693 92.9085 54.259 97.4447 44.6863 100.97L49.0666 117.755L58.1989 116.307L74.3619 110.351L74.3615 92.1913Z" fill="#BF6D21"/><path fill-rule="evenodd" clip-rule="evenodd" d="M62.0028 107.688C62.4862 111.802 61.8765 115.106 57.9748 116.3C54.813 117.268 53.0847 117.386 51.1802 117.684C50.3452 117.815 49.7207 118.496 49.6144 119.334C49.0665 123.654 48.2932 128.712 42.948 128.67C38.806 128.637 35.9413 125.82 35.5051 121.854C35.069 117.888 34.9897 114.411 35.9901 110.339C38.0022 102.146 45.0979 100.128 52.5207 99.2565C56.6345 98.7732 61.5193 103.574 62.0028 107.688Z" fill="#CD7A2F"/><path d="M41.7723 150.096C41.4759 149.194 41.6297 148.205 42.3131 147.546C43.646 146.261 46.3869 144.132 51.0675 142.593C55.7481 141.055 59.218 141.144 61.0531 141.387C61.994 141.512 62.7048 142.217 63.0012 143.119L69.8752 164.034C71.7192 169.644 68.4617 175.754 62.5995 177.681C56.7373 179.608 50.4902 176.621 48.6463 171.011L41.7723 150.096Z" fill="#D0B6AF"/><path fill-rule="evenodd" clip-rule="evenodd" d="M68.4315 159.641L58.1336 163.025L51.3847 142.491C56.3641 140.914 59.9292 141.183 61.5509 141.463C62.1745 141.57 62.6467 142.04 62.8443 142.641L68.4315 159.641Z" fill="#B38A74"/><path d="M43.4682 155.256C43.4682 155.256 46.0946 151.534 53.2345 149.187C60.3744 146.841 64.6971 148.279 64.6971 148.279L70.389 165.597C72.2329 171.208 68.9754 177.318 63.1132 179.244C57.251 181.171 51.004 178.185 49.1601 172.575L43.4682 155.256Z" fill="#79617D"/><path d="M45.8114 162.385C45.8114 162.385 48.4377 158.663 55.5776 156.316C62.7175 153.969 67.0403 155.408 67.0403 155.408L71.0615 167.643C72.9055 173.254 69.648 179.364 63.7858 181.29C57.9236 183.217 51.6766 180.231 49.8326 174.621L45.8114 162.385Z" fill="#B26430"/><path fill-rule="evenodd" clip-rule="evenodd" d="M67.9062 158.043C66.3896 159.66 65.067 161.362 63.9248 163.094C65.3306 163.497 66.7892 163.817 68.2876 164.032C68.6377 163.533 69.0042 163.038 69.3875 162.55L70.6122 166.277C70.1595 166.248 69.7097 166.21 69.263 166.163C68.5057 167.332 67.8391 168.524 67.2583 169.721C68.6556 169.923 70.0885 170.049 71.5483 170.087C71.5986 170.756 71.5825 171.423 71.5042 172.08C69.7644 172.036 68.0628 171.872 66.4126 171.61C66.1603 172.223 65.9298 172.835 65.7204 173.443C65.5544 173.925 65.4019 174.403 65.2625 174.878C67.0435 175.148 68.8361 175.289 70.6039 175.262C70.2837 175.96 69.8886 176.627 69.4253 177.25C67.8674 177.213 66.3044 177.06 64.7578 176.817C64.5941 177.54 64.4615 178.248 64.3583 178.935C65.4392 178.947 66.5109 178.888 67.5618 178.743C67.729 178.72 67.8923 178.739 68.0407 178.793C67.0977 179.667 65.9887 180.397 64.7421 180.93C64.5402 180.93 64.3381 180.929 64.1359 180.925C64.1299 181.009 64.1244 181.092 64.1194 181.175C64.0091 181.215 63.8979 181.254 63.7857 181.29C63.2232 181.475 62.6572 181.615 62.0919 181.711C62.0924 181.696 62.0929 181.681 62.0934 181.666C62.1034 181.387 62.1185 181.103 62.1388 180.814C60.7404 180.688 59.3475 180.462 57.9815 180.163C57.965 180.697 57.9719 181.201 58.0009 181.67C57.3043 181.535 56.6262 181.336 55.9762 181.077C55.9676 180.629 55.9754 180.16 56 179.675C54.635 179.301 53.3091 178.863 52.0454 178.387C51.1787 177.448 50.4778 176.34 50 175.092C50.2233 174.234 50.491 173.318 50.8037 172.358C50.0914 172.02 49.4063 171.677 48.7525 171.335L47.1715 166.524C47.5278 165.702 47.9187 164.865 48.3451 164.023C47.4945 163.37 46.7317 162.712 46.0673 162.065C46.3265 161.762 46.7901 161.263 47.4924 160.662C48.0225 161.176 48.6277 161.704 49.3023 162.236C49.9193 161.145 50.5969 160.061 51.3371 159.005C51.1043 158.827 50.8769 158.648 50.6553 158.468C51.9784 157.717 53.6058 156.964 55.5775 156.316C55.856 156.225 56.1302 156.139 56.4 156.058C55.6041 156.846 54.8569 157.689 54.1575 158.568C54.9238 159.082 55.7409 159.582 56.6033 160.059C57.689 158.376 58.9024 156.735 60.2487 155.203C61.3588 155.043 62.3476 154.979 63.204 154.972C61.3865 156.788 59.7837 158.84 58.3886 160.982C59.5193 161.526 60.7098 162.025 61.95 162.463C63.3995 160.197 65.14 157.972 67.2 155.894L67.9062 158.043ZM65.2116 169.369C65.7585 168.194 66.3832 167.019 67.09 165.862C65.626 165.61 64.2031 165.267 62.8326 164.851C62.1615 165.998 61.5661 167.15 61.0425 168.294C62.3807 168.717 63.7738 169.081 65.2116 169.369ZM57.3314 162.688C58.4623 163.239 59.6538 163.75 60.8965 164.204C60.2413 165.35 59.658 166.5 59.1427 167.64C58.6585 167.459 58.1828 167.272 57.7162 167.078C56.9526 166.76 56.2152 166.426 55.5062 166.079C56.0606 164.948 56.6687 163.811 57.3314 162.688ZM52.9618 160.172C53.7767 160.721 54.6433 161.254 55.5558 161.761C54.8933 162.89 54.2859 164.027 53.7322 165.155C52.723 164.595 51.7852 164.014 50.927 163.427C51.5432 162.323 52.221 161.229 52.9618 160.172ZM49.9896 165.205C49.4546 166.28 48.9772 167.352 48.5564 168.396C48.494 168.55 48.4329 168.704 48.3731 168.858C49.3172 169.388 50.3526 169.929 51.4619 170.46C51.6549 169.935 51.8602 169.402 52.0781 168.862C52.3291 168.239 52.5974 167.606 52.8831 166.966C51.8525 166.4 50.8851 165.808 49.9896 165.205ZM54.6619 167.888C54.4048 168.467 54.1618 169.042 53.9329 169.61C53.7026 170.181 53.487 170.744 53.286 171.295C54.5372 171.841 55.8544 172.363 57.2173 172.837C57.5355 171.742 57.9173 170.618 58.3653 169.479C57.8821 169.298 57.4072 169.111 56.9414 168.917C56.1571 168.591 55.3964 168.246 54.6619 167.888ZM60.256 170.136C59.8066 171.271 59.4294 172.383 59.1193 173.459C60.4787 173.874 61.8726 174.236 63.2825 174.524C63.447 173.951 63.6292 173.373 63.8295 172.791C64.0069 172.277 64.1987 171.759 64.4053 171.239C62.974 170.937 61.5878 170.564 60.256 170.136ZM51.7955 176.149C52.018 175.241 52.2978 174.246 52.6369 173.189C53.927 173.748 55.2928 174.284 56.7129 174.774C56.4834 175.772 56.309 176.736 56.1873 177.656C54.6684 177.226 53.1926 176.711 51.7955 176.149ZM58.1399 178.155C58.2468 177.284 58.4065 176.359 58.6232 175.393C59.9787 175.804 61.3727 176.166 62.7885 176.458C62.6076 177.267 62.4626 178.06 62.352 178.832C60.9425 178.706 59.5299 178.471 58.1399 178.155Z" fill="#95492B"/><path d="M123.689 143.499L63.5467 194.227C60.4034 197.31 56.5722 199.534 54.4674 195.375C44.163 175.013 48.2457 154.945 63.5466 139.811C78.8475 124.677 102.54 122.029 121.859 132.795C125.868 135.046 126.832 140.416 123.689 143.499Z" fill="#58CC02"/><path d="M170.43 133.894C170.931 135.249 171.532 136.584 172.234 137.893C180.459 153.221 199.553 158.979 214.881 150.754C230.209 142.528 235.967 123.435 227.742 108.106C227.039 106.798 226.258 105.559 225.407 104.393L170.43 133.894Z" fill="#58CC02"/><path fill-rule="evenodd" clip-rule="evenodd" d="M182.537 106.451C177.318 103.206 173.356 102.889 169.451 104.053C166.979 104.79 164.854 103.266 163.813 101.317C162.771 99.3689 162.949 96.0502 165.408 94.7358C172.258 91.0746 179.563 93.3166 185.989 97.3121C192.486 101.353 199.092 107.252 202.481 115.385C209.423 132.048 208.241 150.742 194.009 162.15C192.168 163.626 190.64 163.474 189.716 162.15C188.609 160.563 190.386 159.145 192.051 157.693C196.268 154.017 196.702 149.22 197.284 142.608C197.88 135.85 197.641 126.508 194.009 119.904C190.375 113.297 187.683 109.651 182.537 106.451Z" fill="#CD7A2F"/><path fill-rule="evenodd" clip-rule="evenodd" d="M87.1566 75.4676L88.685 75.5614L90.1912 75.6512L91.6752 75.7372L93.1369 75.8192L94.5763 75.8974L95.9935 75.9717L97.3885 76.0421L98.7612 76.1086L100.112 76.1713L101.44 76.23L102.746 76.2849L104.03 76.3358C104.242 76.344 104.453 76.352 104.663 76.3599L105.914 76.405L107.142 76.4463L108.348 76.4836L109.531 76.5171C109.727 76.5224 109.921 76.5275 110.115 76.5324L111.265 76.56C111.455 76.5643 111.644 76.5685 111.832 76.5724L112.949 76.5942C113.133 76.5976 113.317 76.6007 113.499 76.6037L114.583 76.6197C114.761 76.622 114.939 76.6242 115.116 76.6262L116.166 76.6364L117.194 76.6427L118.2 76.645L119.183 76.6435C119.345 76.643 119.506 76.6422 119.667 76.6413L120.617 76.634L121.545 76.6228L122.45 76.6077L123.334 76.5887L124.195 76.5658L125.034 76.5391C125.448 76.5247 125.853 76.5089 126.25 76.4916L127.034 76.4552C127.162 76.4488 127.29 76.4422 127.417 76.4355L128.167 76.3931L128.894 76.347C131.999 76.1383 134.478 75.8203 136.33 75.3927C140.402 74.4525 144.243 71.7337 147.851 67.2362C154.792 58.5836 167.434 57.1965 176.087 64.138C179.607 66.9621 182.073 70.8894 183.089 75.2868L195.702 131.091C203.114 163.196 183.096 195.232 150.991 202.644C118.885 210.056 86.8496 190.038 79.4374 157.932L66.3401 100.033C63.8447 89.2241 70.584 78.4391 81.3926 75.9437C83.2809 75.5078 85.2224 75.3474 87.1566 75.4676Z" fill="#58CC02"/><path fill-rule="evenodd" clip-rule="evenodd" d="M135.236 94.2609C141.501 98.575 149.457 95.7813 152.579 90.2004C157.453 81.7064 160.997 91.9495 163.211 120.93L138.866 126.55C138.734 126.062 138.604 125.58 138.477 125.102L138.1 123.687L137.737 122.305L137.386 120.955C137.272 120.511 137.159 120.072 137.049 119.639L136.724 118.355C136.671 118.143 136.618 117.933 136.566 117.725L136.261 116.49L135.969 115.288C132.014 98.8827 131.77 91.8738 135.236 94.2609Z" fill="#8EE000"/><path fill-rule="evenodd" clip-rule="evenodd" d="M113.509 90.7971L115.125 90.4241C127.124 87.6538 139.097 95.1354 141.868 107.135L144.969 120.568C147.739 132.568 140.258 144.541 128.259 147.311L126.643 147.684C114.644 150.454 102.671 142.973 99.9003 130.973L96.7989 117.54C94.0286 105.54 101.51 93.5673 113.509 90.7971Z" fill="#8EE000"/><path d="M115.681 80.8384L137.811 96.0233C138.973 96.8393 139.006 98.5513 137.875 99.4045C132.442 103.503 124.865 103.648 119.135 99.6259C113.406 95.6039 110.95 88.4155 112.934 81.8955C113.338 80.5656 114.539 80.089 115.681 80.8384Z" fill="#8EE000"/><path d="M108.031 87.4775L129.718 102.701C130.88 103.517 130.913 105.229 129.782 106.082C124.349 110.181 116.772 110.326 111.042 106.304C105.313 102.282 102.856 95.0935 104.84 88.5735C105.253 87.2165 106.869 86.6615 108.031 87.4775Z" fill="#8EE000"/><path d="M164.261 70.4329L153.521 89.2716C152.964 90.279 153.771 91.6615 155.115 92.002C161.571 93.6378 167.863 91.4515 170.608 86.4861C173.353 81.5207 171.869 75.0112 167.065 70.3866C166.065 69.424 164.818 69.4255 164.261 70.4329Z" fill="#8EE000"/><path d="M173.436 74.5317L162.659 93.4347C162.102 94.4421 162.909 95.8246 164.253 96.1651C170.709 97.8008 177.001 95.6145 179.746 90.6492C182.491 85.6838 181.007 79.1743 176.203 74.5496C175.225 73.608 174.01 73.589 173.436 74.5317Z" fill="#8EE000"/><path fill-rule="evenodd" clip-rule="evenodd" d="M165.995 78.6799C175.453 76.4964 184.89 82.3935 187.074 91.8516L192.3 114.488C194.483 123.946 188.586 133.383 179.128 135.567C169.67 137.75 160.233 131.853 158.049 122.395L152.823 99.7589C150.64 90.3009 156.537 80.8635 165.995 78.6799Z" fill="#8EE000"/><path fill-rule="evenodd" clip-rule="evenodd" d="M116.729 98.073C125.567 96.0326 134.385 101.543 136.426 110.381L138.731 120.365C140.771 129.203 135.261 138.022 126.423 140.062C117.585 142.103 108.766 136.592 106.725 127.754L104.42 117.77C102.38 108.932 107.891 100.113 116.729 98.073Z" fill="white"/><path fill-rule="evenodd" clip-rule="evenodd" d="M165.626 87.2664C172.695 85.6342 179.75 90.0421 181.382 97.1117L185.059 113.042C186.692 120.111 182.284 127.165 175.214 128.798C168.145 130.43 161.091 126.022 159.458 118.952L155.781 103.022C154.149 95.9526 158.556 88.8985 165.626 87.2664Z" fill="white"/><path fill-rule="evenodd" clip-rule="evenodd" d="M164.077 101.917L166.059 110.404C166.846 113.771 170.214 115.864 173.581 115.077C176.949 114.29 179.041 110.923 178.255 107.555L175.682 96.5404C174.896 93.1727 171.528 91.0804 168.16 91.8669C167.175 92.0971 166.299 92.5481 165.572 93.1554C166.494 93.8324 167.189 94.831 167.47 96.0346C168.071 98.606 166.564 101.175 164.077 101.917Z" fill="#4B4B4B"/><path fill-rule="evenodd" clip-rule="evenodd" d="M119.344 111.85C119.785 111.86 120.235 111.808 120.683 111.691C123.29 111.006 124.845 108.328 124.157 105.709C123.763 104.209 122.719 103.054 121.409 102.47C122.212 101.814 123.165 101.316 124.233 101.036C128.227 99.9863 132.316 102.373 133.366 106.367L135.53 114.606C136.58 118.6 134.193 122.689 130.198 123.738C126.204 124.788 122.116 122.4 121.066 118.406L119.344 111.85Z" fill="#4B4B4B"/><path d="M185.773 115.999C176.032 115.046 162.646 121.507 159.522 125.661L173.07 131.649C186.309 126.46 185.773 115.999 185.773 115.999Z" fill="#8EE000"/><path d="M104.294 131.795C115.048 125.746 135.659 127.285 141.113 130.999L134.1 144.157C107.801 152.339 104.294 131.795 104.294 131.795Z" fill="#8EE000"/><path fill-rule="evenodd" clip-rule="evenodd" d="M151.223 119.681L151.244 119.676C155.747 118.637 160.241 121.445 161.281 125.948L161.605 127.353C162.634 131.812 159.893 136.261 155.468 137.358L155.313 137.395C150.809 138.435 146.316 135.627 145.276 131.123L144.951 129.718C143.912 125.215 146.72 120.721 151.223 119.681Z" fill="#F49000"/><path d="M142.586 128.404C142.226 122.75 145.914 119.525 151.583 118.216C157.253 116.907 162.99 119.853 165.146 125.092L165.294 125.452L160.123 128.683L159.272 128.771L158.175 128.881L157.644 128.933L156.869 129.006L155.874 129.096L154.924 129.177L154.241 129.232L153.583 129.282L153.158 129.312L152.543 129.354L151.761 129.402L151.025 129.441L150.502 129.464L150.004 129.482L149.531 129.496L149.23 129.502L149.084 129.504C146.622 129.537 144.456 129.171 142.586 128.404Z" fill="#FFC200"/><path fill-rule="evenodd" clip-rule="evenodd" d="M155.539 119.587C153.302 119.374 151.198 119.859 149.281 121.032C148.493 121.514 148.244 122.544 148.727 123.333C149.209 124.121 150.239 124.37 151.028 123.888C152.326 123.093 153.706 122.775 155.221 122.919C156.141 123.007 156.959 122.332 157.046 121.412C157.134 120.492 156.459 119.675 155.539 119.587Z" fill="#FFDE00"/><path fill-rule="evenodd" clip-rule="evenodd" d="M188.893 201.888C191.333 205.242 196.03 205.982 199.383 203.542C204.587 199.755 207.849 193.529 208.19 187.025C208.407 182.884 205.225 179.35 201.083 179.134C196.942 178.917 193.409 182.098 193.192 186.24C193.077 188.421 191.932 190.39 190.546 191.398C187.193 193.838 186.452 198.535 188.893 201.888Z" fill="#F49000"/><path d="M137.306 158.72L150.985 155.173C151.718 154.983 152.414 155.527 152.358 156.248C152.093 159.711 149.496 162.728 145.882 163.666C142.268 164.603 138.536 163.227 136.626 160.328C136.228 159.724 136.572 158.91 137.306 158.72Z" fill="#8EE000"/><path d="M161.179 152.539L174.858 148.991C175.592 148.801 176.287 149.345 176.232 150.066C175.967 153.529 173.37 156.547 169.756 157.484C166.142 158.421 162.409 157.045 160.499 154.146C160.102 153.543 160.446 152.729 161.179 152.539Z" fill="#8EE000"/><path d="M152.232 167.177L165.911 163.63C166.644 163.44 167.34 163.984 167.285 164.705C167.019 168.168 164.422 171.185 160.808 172.123C157.194 173.06 153.462 171.684 151.552 168.785C151.154 168.181 151.499 167.367 152.232 167.177Z" fill="#8EE000"/><path d="M137.108 103.675L106.858 100.84L110.412 90.0842L129.316 91.8555L137.108 103.675Z" fill="#8EE000"/><path d="M151.676 100.401L180.119 87.3611L173.251 78.6459L155.476 86.7945L151.676 100.401Z" fill="#8EE000"/><path d="M225.527 104.716C230.317 113.642 226.543 120.988 217.617 125.778C208.691 130.568 197.994 130.986 193.205 122.061C188.415 113.135 191.768 102.017 200.694 97.2272C209.619 92.4375 220.737 95.7904 225.527 104.716Z" fill="#58CC02"/><path fill-rule="evenodd" clip-rule="evenodd" d="M194.489 105.639C195.117 105.993 195.34 106.788 194.986 107.416C194.292 108.649 193.577 111.265 193.621 114.231C193.664 117.174 194.451 120.24 196.504 122.522C197.992 124.177 200.077 125.894 202.813 126.572C205.505 127.24 209.025 126.949 213.515 124.224C214.131 123.85 214.934 124.046 215.308 124.662C215.682 125.278 215.485 126.081 214.869 126.455C209.893 129.475 205.665 129.969 202.185 129.106C198.747 128.254 196.236 126.127 194.563 124.267C191.949 121.361 191.06 117.598 191.011 114.27C190.962 110.964 191.738 107.865 192.712 106.136C193.065 105.508 193.861 105.285 194.489 105.639Z" fill="#3DBE01"/><path fill-rule="evenodd" clip-rule="evenodd" d="M128.502 219.449C125.252 217.293 120.87 218.179 118.714 221.429C117.435 223.357 116.454 225.185 115.747 227.253C115.061 229.263 114.735 231.214 114.477 233.171C113.967 237.038 116.688 240.585 120.554 241.095C124.42 241.605 127.968 238.884 128.478 235.018C128.7 233.332 128.884 232.486 129.112 231.817C129.32 231.207 129.659 230.476 130.481 229.237C132.638 225.988 131.751 221.605 128.502 219.449Z" fill="#F49000"/><path d="M116.154 233.233C117.001 229.427 120.774 227.028 124.581 227.875L128.107 228.661C131.914 229.508 134.313 233.281 133.465 237.088C132.618 240.894 128.845 243.293 125.038 242.445L120.103 241.095C116.297 240.247 115.306 237.04 116.154 233.233Z" fill="#F49000"/><path fill-rule="evenodd" clip-rule="evenodd" d="M79.4883 136.068C74.27 132.823 70.6268 132.217 66.7216 133.382C64.2502 134.119 62.125 132.594 61.0837 130.645C60.0423 128.697 60.2196 125.378 62.6793 124.064C69.529 120.403 77.493 122.672 83.9183 126.667C90.4158 130.708 97.131 137.07 101.311 144.671C105.492 152.275 107.081 161.221 106.312 169.952C105.531 178.831 103.554 184.87 95.0536 188.87C92.9187 189.875 90.9163 190.194 89.9927 188.87C88.8853 187.283 89.6022 186.134 91.4139 184.87C102.321 177.259 98.5126 159.576 92.962 149.482C89.3286 142.875 84.6343 139.268 79.4883 136.068Z" fill="#CD7A2F"/><path fill-rule="evenodd" clip-rule="evenodd" d="M68.1468 186.866L69.6817 189.234C69.9273 189.613 70.4571 189.808 70.9589 189.751L97.7596 185.183C100.786 184.4 99.9592 172.101 99.6066 170.418C99.2382 169.849 92.0075 169.921 91.4391 170.29L68.5135 185.148C67.9451 185.516 67.7784 186.297 68.1468 186.866Z" fill="#D0B6AF"/><path fill-rule="evenodd" clip-rule="evenodd" d="M68.9087 178.84L73.7884 186.437C74.0934 186.912 74.0761 187.463 73.7888 187.786L55.9402 212.955C55.5397 213.487 54.8342 213.544 54.2941 213.088C54.2331 212.993 54.085 212.955 53.963 212.765L40.4826 191.778C40.1167 191.208 40.2471 190.448 40.7696 190.106C40.8567 190.049 40.8567 190.049 40.9438 189.992L67.3319 178.119C67.9503 178.119 68.6037 178.365 68.9087 178.84Z" fill="#D0B6AF"/><path fill-rule="evenodd" clip-rule="evenodd" d="M39.8897 191.08L50.9038 208.154C51.271 208.723 52.0307 208.901 52.5752 208.547C52.666 208.488 52.666 208.488 52.7567 208.429L73.1795 189.74C73.7536 189.231 74.3889 188.817 75.0854 188.499L96.3985 181.633C99.6597 180.235 95.1818 167.377 94.3167 164.747C93.5685 163.587 89.9267 156.856 88.576 157.736L67.6203 176.926C67.0462 177.435 66.4109 177.849 65.7144 178.168L40.3965 189.268C39.7907 189.528 39.5817 190.203 39.8581 190.831C39.8581 190.831 39.8285 190.985 39.8897 191.08Z" fill="#EAE2E0"/><ellipse cx="93.1586" cy="169.262" rx="6.75371" ry="12.8893" transform="rotate(168.097 93.1586 169.262)" fill="#EAE2E0"/><path fill-rule="evenodd" clip-rule="evenodd" d="M97.0505 160.79C98.1205 162.532 99.0119 164.701 99.5853 167.127C97.717 162.852 94.8719 161.421 92.994 161.657C92.0241 161.779 91.1804 162.337 90.6552 163.361C90.1189 164.408 89.8875 166.009 90.3593 168.188C91.3386 172.71 93.2783 175.25 94.8212 176.125C95.5824 176.557 96.1257 176.53 96.4513 176.369C96.7768 176.208 97.182 175.766 97.3433 174.72C97.4758 173.86 97.2971 172.62 96.7933 171.349C96.2933 170.087 95.5229 168.922 94.6059 168.173C94.1783 167.823 94.1151 167.193 94.4646 166.766C94.8142 166.338 95.4442 166.275 95.8718 166.624C97.119 167.644 98.0632 169.125 98.6526 170.612C99.2383 172.09 99.5239 173.702 99.3199 175.024C99.0989 176.458 98.4467 177.613 97.3382 178.161C96.2299 178.71 94.9625 178.505 93.8345 177.865C91.599 176.597 89.4462 173.421 88.4046 168.611C87.866 166.124 88.0696 164.022 88.8753 162.449C89.692 160.856 91.0973 159.879 92.7448 159.672C94.1588 159.495 95.65 159.878 97.0505 160.79Z" fill="#D0B6AF"/><ellipse cx="46.3856" cy="198.963" rx="6.0893" ry="11.3907" transform="rotate(147.455 46.3856 198.963)" fill="#EAE2E0"/><path d="M65.6106 198.606C57.7622 195.649 47.9553 189.289 49.1526 174.958L70.1151 172.095L71.642 193.766C71.8791 197.131 68.7672 199.795 65.6106 198.606Z" fill="#58CC02"/><path opacity="0.3" d="M74.3828 246.815C74.3828 244.497 76.2624 242.617 78.581 242.617H197.453C199.771 242.617 201.651 244.497 201.651 246.815C201.651 249.134 199.771 251.014 197.453 251.014H78.581C76.2624 251.014 74.3828 249.134 74.3828 246.815Z" fill="#AFAFAF"/></svg>