<svg width="170" height="200" viewBox="0 0 170 200" fill="none" xmlns="http://www.w3.org/2000/svg"><g id="Frame 5925"><g id="Group 5963"><path id="Rectangle 6152" d="M37.126 24.2955C37.126 13.327 48.7424 6.13294 58.8543 10.3825C68.2835 14.3451 78.3773 17.9732 83.7266 17.9732C89.076 17.9732 99.1697 14.3451 108.599 10.3825C118.711 6.13295 130.327 13.327 130.327 24.2955V73.2437C130.327 98.9805 109.463 119.844 83.7266 119.844C57.9898 119.844 37.126 98.9805 37.126 73.2437V24.2955Z" fill="#58CC02"/><path id="Combined Shape Copy 292" d="M49.332 83.0053L3.78229 29.7525C1.34081 26.8981 2.3935 22.5107 5.86125 21.0877C22.5226 14.2507 42.0646 18.9249 54.0987 32.9942C66.1329 47.0635 67.666 67.0285 58.2484 82.3342C56.2883 85.5199 51.7735 85.8596 49.332 83.0053Z" fill="#58CC02"/><path id="Combined Shape Copy 293" d="M119.931 81.5929L165.773 28.5911C168.23 25.7501 167.201 21.357 163.742 19.915C147.118 12.9866 127.551 17.5534 115.439 31.5564C103.328 45.5594 101.685 65.5156 111.019 80.8729C112.961 84.0692 117.474 84.4338 119.931 81.5929Z" fill="#58CC02"/><path id="Combined Shape Copy 294" d="M67.5857 82.2407L79.3145 82.2365C79.9431 82.2363 80.3886 82.8183 80.1943 83.3859C79.2606 86.1132 76.5465 87.9973 73.4478 87.9984C70.3491 87.9995 67.6365 86.1174 66.705 83.3908C66.5111 82.8233 66.9571 82.241 67.5857 82.2407Z" fill="#8EE000"/><path id="Combined Shape Copy 295" d="M88.0525 82.2407L99.7813 82.2365C100.41 82.2363 100.855 82.8183 100.661 83.3859C99.7274 86.1132 97.0133 87.9973 93.9146 87.9984C90.8159 87.9995 88.1033 86.1174 87.1718 83.3908C86.9779 82.8233 87.4239 82.241 88.0525 82.2407Z" fill="#8EE000"/><path id="Combined Shape Copy 296" d="M77.8162 92.1411L89.5449 92.1369C90.1736 92.1367 90.6191 92.7187 90.4248 93.2863C89.4911 96.0136 86.777 97.8977 83.6783 97.8988C80.5796 97.8999 77.867 96.0178 76.9354 93.2912C76.7416 92.7237 77.1875 92.1413 77.8162 92.1411Z" fill="#8EE000"/><path id="Path 32" fill-rule="evenodd" clip-rule="evenodd" d="M73.6584 28.2774C78.7754 33.4795 87.7988 33.4795 93.4983 28.2774C99.1979 23.0753 92.6417 58.5729 92.6417 58.4817C92.6417 58.4381 89.5953 58.4256 83.5025 58.4441C81.8692 58.4491 78.9267 58.4616 74.6749 58.4817C70.5859 34.8775 70.247 24.8094 73.6584 28.2774Z" fill="#89E219"/><path id="Combined Shape Copy 297" d="M105.619 14.8763L91.8116 30.2485C91.0715 31.0724 91.3472 32.3791 92.356 32.829C97.2031 34.9906 102.986 33.7711 106.634 29.7098C110.282 25.6485 110.888 19.7555 108.236 15.1493C107.685 14.1906 106.36 14.0524 105.619 14.8763Z" fill="#8EE000"/><path id="Combined Shape Copy 298" d="M113.66 18.5433L99.8527 33.9155C99.1126 34.7394 99.3882 36.0461 100.397 36.496C105.244 38.6576 111.027 37.4381 114.675 33.3768C118.323 29.3155 118.929 23.4225 116.278 18.8163C115.726 17.8576 114.401 17.7194 113.66 18.5433Z" fill="#8EE000"/><path id="Combined Shape Copy 299" d="M61.7378 14.8349L75.12 29.8804C75.8373 30.6868 75.5593 31.9531 74.571 32.3812C69.8224 34.4381 64.1822 33.204 60.6466 29.229C57.1111 25.2541 56.5595 19.5269 59.1799 15.0773C59.7253 14.1512 61.0205 14.0285 61.7378 14.8349Z" fill="#89E219"/><path id="Combined Shape Copy 300" d="M53.5463 18.5569L66.1354 32.7106C66.8101 33.4692 66.5486 34.6605 65.6189 35.0632C61.1518 36.9982 55.8459 35.8372 52.5199 32.0979C49.1939 28.3585 48.675 22.9708 51.1401 18.7849C51.6532 17.9137 52.8716 17.7983 53.5463 18.5569Z" fill="#89E219"/><path id="Rectangle 6153" d="M41.7275 41.5447C41.7275 31.22 50.0973 22.8503 60.422 22.8503C70.7466 22.8503 79.1164 31.22 79.1164 41.5447V50.7564C79.1164 61.0811 70.7466 69.4509 60.422 69.4509C50.0973 69.4509 41.7275 61.0811 41.7275 50.7564V41.5447Z" fill="#89E219"/><path id="Rectangle 6154" d="M88.0615 41.5447C88.0615 31.22 96.4313 22.8503 106.756 22.8503C117.081 22.8503 125.45 31.22 125.45 41.5447V50.7564C125.45 61.0811 117.081 69.4509 106.756 69.4509C96.4313 69.4509 88.0615 61.0811 88.0615 50.7564V41.5447Z" fill="#89E219"/><rect id="Rectangle 6155" x="47.9619" y="29.3527" width="26.0097" height="33.3249" rx="13.0048" fill="white"/><rect id="Rectangle 6156" x="93.2061" y="29.3527" width="26.0097" height="33.3249" rx="13.0048" fill="white"/><path id="Intersect" fill-rule="evenodd" clip-rule="evenodd" d="M73.9745 48.5305V49.6733C73.9745 55.6156 69.9889 60.6271 64.5452 62.1804C61.8181 61.1174 59.8857 58.4654 59.8857 55.3622V51.2982C59.8857 47.2581 63.1609 43.983 67.201 43.983C70.2616 43.983 72.8832 45.8626 73.9745 48.5305Z" fill="#4B4B4B"/><path id="Intersect_2" fill-rule="evenodd" clip-rule="evenodd" d="M102.732 62.2071C97.24 60.6853 93.208 55.6501 93.208 49.6733V48.9736C94.1794 46.0731 96.9187 43.983 100.146 43.983C104.186 43.983 107.461 47.2581 107.461 51.2982V55.3622C107.461 58.4918 105.496 61.1624 102.732 62.2071Z" fill="#4B4B4B"/><rect id="Rectangle 6159" x="77.2236" y="49.9434" width="12.7339" height="24.5809" rx="6.36695" fill="#F49000"/><path id="Intersect_3" opacity="0.7" fill-rule="evenodd" clip-rule="evenodd" d="M89.9575 66.9977V68.1577C89.9575 71.6741 87.1069 74.5247 83.5906 74.5247C80.0742 74.5247 77.2236 71.6741 77.2236 68.1577V67.0806C77.8674 68.5433 79.9697 71.2909 83.607 71.2909C87.3142 71.2909 89.3813 68.4367 89.9575 66.9977Z" fill="#FFD600"/><rect id="Rectangle 6160" x="78.249" y="50.4796" width="10.6793" height="18.7622" rx="5.33963" fill="#BC5A00"/><path id="Vector 3308" d="M81.8311 53.7363C82.437 53.4745 84.1034 53.2875 85.3532 53.7363" stroke="#FFDE00" stroke-width="2.70934" stroke-linecap="round" stroke-linejoin="round"/><path id="Subtract" d="M92.7447 56.9448C92.8249 57.2553 92.5986 57.5541 92.2792 57.5824L83.6943 58.3424L75.1094 57.5824C74.79 57.5541 74.5636 57.2553 74.6438 56.9448C75.6846 52.9179 79.3421 49.9434 83.6943 49.9434C88.0465 49.9434 91.7039 52.9179 92.7447 56.9448Z" fill="#FFC200"/><path id="Vector 3309" d="M81.8096 52.4941C82.4155 52.2323 84.0819 52.0453 85.3317 52.4941" stroke="#FFDE00" stroke-width="2.70934" stroke-linecap="round" stroke-linejoin="round"/><path id="Intersect_4" fill-rule="evenodd" clip-rule="evenodd" d="M88.7602 65.2477C88.1633 67.5446 86.0756 69.2404 83.5919 69.2404C81.131 69.2404 79.0589 67.5756 78.4404 65.3107C79.587 63.6833 81.4807 62.6201 83.6228 62.6201C85.7371 62.6201 87.6095 63.6559 88.7602 65.2477Z" fill="#F9B3FF"/><path id="Vector 3317" d="M72.6069 59.7653C64.1249 54.2093 52.1346 50.6632 47.1569 50.3962L46.9107 57.0919L57.8824 64.4763C60.1757 64.4951 66.4707 64.4763 72.6069 59.7653Z" fill="#89E219"/><path id="Vector 3318" d="M95.1631 59.9238C103.577 54.2649 115.523 50.5729 120.497 50.2453L120.825 56.9375L109.921 63.6424C107.628 63.6891 100.608 63.6424 95.1631 59.9238Z" fill="#89E219"/><path id="Intersect_5" fill-rule="evenodd" clip-rule="evenodd" d="M73.7752 51.9371C73.4732 53.6571 72.8331 55.2608 71.9261 56.677C70.905 56.8351 69.9021 56.2118 69.6108 55.1925C69.345 54.2621 69.7569 53.2987 70.5535 52.8294C70.9594 51.7738 72.1379 51.2338 73.2052 51.6219C73.4162 51.6987 73.6073 51.806 73.7752 51.9371Z" fill="white"/><path id="Intersect_6" fill-rule="evenodd" clip-rule="evenodd" d="M95.1893 56.58C94.3601 55.2598 93.7616 53.7801 93.4502 52.1974C93.6725 51.9459 93.9591 51.7447 94.2967 51.6219C95.364 51.2338 96.5426 51.7738 96.9484 52.8294C97.7451 53.2987 98.1569 54.2621 97.8911 55.1925C97.5756 56.2969 96.4245 56.9364 95.32 56.6209C95.2756 56.6082 95.232 56.5945 95.1893 56.58Z" fill="white"/><path id="Rectangle 4 Copy 54" fill-rule="evenodd" clip-rule="evenodd" d="M78.468 147.189C74.5288 147.967 70.7048 145.404 69.927 141.465L68.4475 135.802C67.6696 131.863 70.2324 128.039 74.1717 127.261C78.1109 126.484 81.9348 129.046 82.7127 132.986L84.1922 138.648C84.97 142.588 82.4072 146.412 78.468 147.189Z" fill="#F49000"/><path id="Rectangle 4 Copy 53" fill-rule="evenodd" clip-rule="evenodd" d="M103.281 104.036C100.183 102.042 99.288 97.9138 101.282 94.8159L106.888 86.1077C108.882 83.0099 113.01 82.1152 116.108 84.1094C119.206 86.1036 120.1 90.2315 118.106 93.3293L112.5 102.038C110.506 105.135 106.378 106.03 103.281 104.036Z" fill="#F49000"/><path id="Intersect_7" opacity="0.7" fill-rule="evenodd" clip-rule="evenodd" d="M92.2795 57.5823C92.5989 57.554 92.8253 57.2552 92.745 56.9447C92.6643 56.6325 92.5679 56.3266 92.4567 56.0279L83.6751 56.9418L74.9299 56.035C74.8198 56.3314 74.7243 56.635 74.6442 56.9447C74.564 57.2552 74.7903 57.554 75.1097 57.5823L83.6946 58.3422L92.2795 57.5823Z" fill="#FFD600"/><path id="Intersect_8" opacity="0.7" fill-rule="evenodd" clip-rule="evenodd" d="M101.282 94.8162C99.2881 97.914 100.183 102.042 103.281 104.036C106.378 106.03 110.506 105.136 112.501 102.038L117.953 93.5676L117.9 93.5461C117.752 93.7655 117.594 94.0038 117.427 94.2566C115.562 97.0744 112.514 101.681 108.518 101.681C104.786 101.681 101.586 100.126 101.586 94.3912C101.586 94.3753 101.586 94.3596 101.586 94.3439L101.282 94.8162Z" fill="#FFD600"/></g></g></svg>