<?xml version="1.0" encoding="UTF-8"?><svg width="177px" height="178px" viewBox="0 0 177 178" version="1.1" xmlns="http://www.w3.org/2000/svg" xmlns:xlink="http://www.w3.org/1999/xlink"><title>Duo_PlacementTest</title><desc>Created with Sketch.</desc><g id="Duo_PlacementTest" stroke="none" stroke-width="1" fill="none" fill-rule="evenodd" transform="translate(0.000000, 0.000000)"><rect id="Rectangle" fill="#F6C835" x="99" y="18" width="8" height="8" rx="4"/><rect id="Rectangle" fill="#4B4B4B" x="75" y="27" width="27" height="35" rx="1"/><path d="M89.7809112,18.4329841 L121.197451,29.0526594 C121.720653,29.2295164 122.001421,29.797026 121.824564,30.3202278 C121.72472,30.6155983 121.492821,30.847497 121.197451,30.9473406 L89.7809112,41.5670159 C88.9500624,41.8478662 88.0499376,41.8478662 87.2190888,41.5670159 L55.8025492,30.9473406 C55.2793474,30.7704836 54.9985795,30.202974 55.1754364,29.6797722 C55.27528,29.3844017 55.5071787,29.152503 55.8025492,29.0526594 L87.2190888,18.4329841 C88.0499376,18.1521338 88.9500624,18.1521338 89.7809112,18.4329841 Z" id="Rectangle-Copy-2" fill="#4B4B4B"/><path d="M102.872891,22 L105.127109,22 C105.62718,22 106.050373,22.3694017 106.117939,22.8648868 L108.845212,42.8648868 C108.919833,43.4121072 108.536715,43.9162092 107.989495,43.9908302 C107.944716,43.9969364 107.899575,44 107.854382,44 L100.145618,44 C99.5933336,44 99.1456183,43.5522847 99.1456183,43 C99.1456183,42.9548068 99.148682,42.9096656 99.1547882,42.8648868 L101.882061,22.8648868 C101.949627,22.3694017 102.37282,22 102.872891,22 Z" id="Rectangle-Copy-3" fill="#F6C835"/><g id="Group" transform="translate(25.000000, 45.000000)"><path d="M-0.661732453,38.2023858 L64.2981722,54.3661615 C67.780037,55.2325433 69.4018273,59.2369909 67.501057,62.2745724 C58.3685307,76.869073 40.6009813,84.0955712 23.4387049,79.8251341 C6.27642858,75.554697 -6.01191963,60.8494812 -7.209962,43.6844567 C-7.45931287,40.1118669 -4.14359726,37.336004 -0.661732453,38.2023858 Z" id="Combined-Shape-Copy-55" fill="#58CC02" fill-rule="nonzero" transform="translate(30.541671, 59.542665) rotate(-75.000000) translate(-30.541671, -59.542665)"/><path d="M64.7882675,38.2023858 L129.748172,54.3661615 C133.230037,55.2325433 134.851827,59.2369909 132.951057,62.2745724 C123.818531,76.869073 106.050981,84.0955712 88.8887049,79.8251341 C71.7264286,75.554697 59.4380804,60.8494812 58.240038,43.6844567 C57.9906871,40.1118669 61.3064027,37.336004 64.7882675,38.2023858 Z" id="Combined-Shape-Copy-56" fill="#58CC02" fill-rule="nonzero" transform="translate(95.991671, 59.542665) scale(-1, 1) rotate(-75.000000) translate(-95.991671, -59.542665)"/><path d="M50.85,95.6022638 C54.0268876,95.6022638 56.6022638,98.17764 56.6022638,101.354528 L56.6022638,110.35 C56.6022638,113.526888 54.0268876,116.102264 50.85,116.102264 C47.6731124,116.102264 45.0977362,113.526888 45.0977362,110.35 L45.0977362,101.354528 C45.0977362,98.17764 47.6731124,95.6022638 50.85,95.6022638 Z" id="Rectangle-4-Copy-17" fill="#F49000" transform="translate(50.850000, 105.852264) rotate(-90.000000) translate(-50.850000, -105.852264)"/><path d="M75.7,95.6022638 C78.8768876,95.6022638 81.4522638,98.17764 81.4522638,101.354528 L81.4522638,110.35 C81.4522638,113.526888 78.8768876,116.102264 75.7,116.102264 C72.5231124,116.102264 69.9477362,113.526888 69.9477362,110.35 L69.9477362,101.354528 C69.9477362,98.17764 72.5231124,95.6022638 75.7,95.6022638 Z" id="Rectangle-4-Copy-18" fill="#F49000" transform="translate(75.700000, 105.852264) rotate(-90.000000) translate(-75.700000, -105.852264)"/><path d="M39.4136406,1.19895614 C51.0583508,6.12377295 59.0370491,8.58618135 63.3497356,8.58618135 C67.6339365,8.58618135 75.4857321,6.15619425 86.9051223,1.29622006 C94.5353972,-1.95114769 103.353468,1.60190231 106.600834,9.23217784 C107.392134,11.0914793 107.8,13.0913723 107.8,15.1120545 L107.8,61.425 C107.8,86.070707 87.820707,106.05 63.175,106.05 C38.529293,106.05 18.55,86.070707 18.55,61.425 L18.55,15.0280441 C18.5499984,6.73548775 25.2724436,0.0130425748 33.565,0.0130425748 C35.5742573,0.0130425748 37.5630783,0.416310609 39.4136406,1.19895614 Z" id="Rectangle-7-Copy-7" fill="#58CC02"/><path d="M34.9894334,14.036693 L54.9332508,13.8161129 C55.9919557,13.8157114 56.7422191,14.8464413 56.4149512,15.8517086 C54.8425452,20.6816609 50.2718399,24.018333 45.0534335,24.0203136 C39.8350271,24.0222925 35.2668578,20.6890874 33.6981242,15.8603268 C33.3716206,14.8553075 33.9307285,14.0370946 34.9894334,14.036693 Z" id="Combined-Shape-Copy-57" fill="#89E219" fill-rule="nonzero" transform="translate(45.048853, 18.918213) rotate(-312.000000) translate(-45.048853, -18.918213)"/><path d="M53.659375,20.95625 C58.559375,25.921875 67.2,25.921875 72.6578125,20.95625 C78.115625,15.990625 71.8375,49.8748291 71.8375,49.7877494 C71.8375,49.7460971 68.92033,49.7341999 63.0859901,49.7518897 C61.5219615,49.7566318 58.7042356,49.7685851 54.6328125,49.7877494 C50.7171875,27.2563331 50.3927083,17.6458333 53.659375,20.95625 Z" id="Path-12" fill="#89E219"/><path d="M27.46824,17.3177592 L47.2201178,17.3102657 C48.2788227,17.3098642 49.0290862,18.3405941 48.7018183,19.3458614 C47.1294123,24.1758138 42.558707,27.5124859 37.3403006,27.5144665 C32.1218941,27.5164453 27.5537248,24.1832403 25.9849912,19.3544796 C25.6584877,18.3494603 26.4095351,17.3181609 27.46824,17.3177592 Z" id="Combined-Shape-Copy-58" fill="#89E219" fill-rule="nonzero" transform="translate(37.343588, 22.412366) rotate(-312.000000) translate(-37.343588, -22.412366)"/><path d="M40.775,15.75 L41.125,15.75 C50.886633,15.75 58.8,23.663367 58.8,33.425 L58.8,42.525 C58.8,52.286633 50.886633,60.2 41.125,60.2 L40.775,60.2 C31.013367,60.2 23.1,52.286633 23.1,42.525 L23.1,33.425 C23.1,23.663367 31.013367,15.75 40.775,15.75 Z" id="Rectangle-130-Copy-36" fill="#89E219"/><path d="M71.56824,13.8177592 L91.3201178,13.8102657 C92.3788227,13.8098642 93.1290862,14.8405941 92.8018183,15.8458614 C91.2294123,20.6758138 86.658707,24.0124859 81.4403006,24.0144665 C76.2218941,24.0164453 71.6537248,20.6832403 70.0849912,15.8544796 C69.7584877,14.8494603 70.5095351,13.8181609 71.56824,13.8177592 Z" id="Combined-Shape-Copy-59" fill="#89E219" fill-rule="nonzero" transform="translate(81.443588, 18.912366) scale(-1, 1) rotate(-312.000000) translate(-81.443588, -18.912366)"/><path d="M79.26824,17.3177592 L99.0201178,17.3102657 C100.078823,17.3098642 100.829086,18.3405941 100.501818,19.3458614 C98.9294123,24.1758138 94.358707,27.5124859 89.1403006,27.5144665 C83.9218941,27.5164453 79.3537248,24.1832403 77.7849912,19.3544796 C77.4584877,18.3494603 78.2095351,17.3181609 79.26824,17.3177592 Z" id="Combined-Shape-Copy-60" fill="#89E219" fill-rule="nonzero" transform="translate(89.143588, 22.412366) scale(-1, 1) rotate(-312.000000) translate(-89.143588, -22.412366)"/><path d="M85.2298364,15.75 L85.5839151,15.75 C95.3444185,15.75 103.25687,23.6624514 103.25687,33.4229548 L103.25687,42.5270452 C103.25687,52.2875486 95.3444185,60.2 85.5839151,60.2 L85.301369,60.2 C75.5950486,60.2 67.7052218,52.3719216 67.6289597,42.6659008 L67.5574271,33.5618104 C67.4807393,23.8016082 75.3307787,15.8272333 85.0909808,15.7505455 C85.1372651,15.7501818 85.1835507,15.75 85.2298364,15.75 Z" id="Rectangle-130-Copy-37" fill="#89E219"/><path d="M41.65,22.05 C48.4154882,22.05 53.9,27.5345118 53.9,34.3 L53.9,41.65 C53.9,48.4154882 48.4154882,53.9 41.65,53.9 C34.8845118,53.9 29.4,48.4154882 29.4,41.65 L29.4,34.3 C29.4,27.5345118 34.8845118,22.05 41.65,22.05 Z" id="Rectangle-130-Copy-38" fill="#FFFFFF"/><path d="M84.7,22.05 C91.4654882,22.05 96.95,27.5345118 96.95,34.3 L96.95,41.65 C96.95,48.4154882 91.4654882,53.9 84.7,53.9 C77.9345118,53.9 72.45,48.4154882 72.45,41.65 L72.45,34.3 C72.45,27.5345118 77.9345118,22.05 84.7,22.05 Z" id="Rectangle-130-Copy-39" fill="#FFFFFF"/><path d="M43.575,29.05 C46.7644444,29.05 49.35,31.6355556 49.35,34.825 L49.35,41.125 C49.35,44.3144444 46.7644444,46.9 43.575,46.9 C40.3855556,46.9 37.8,44.3144444 37.8,41.125 L37.8,34.825 C37.8,31.6355556 40.3855556,29.05 43.575,29.05 Z" id="Rectangle-130-Copy-40" fill="#4B4B4B"/><rect id="Rectangle" stroke="#4B4B4B" stroke-width="5" fill-opacity="0.4" fill="#FFFFFF" x="13" y="10" width="46" height="46" rx="23"/><rect id="Rectangle" fill="#4B4B4B" x="56" y="36" width="13" height="10" rx="5"/><rect id="Rectangle-Copy-4" fill="#4B4B4B" x="111" y="29" width="8" height="9" rx="2"/><rect id="Rectangle-Copy-5" fill="#4B4B4B" x="7" y="29" width="8" height="9" rx="2"/><path d="M63.3024606,42.7 C66.7555993,42.7 69.5549213,45.499322 69.5549213,48.9524606 L69.5549213,50.9475394 C69.5549213,54.400678 66.7555993,57.2 63.3024606,57.2 C59.849322,57.2 57.05,54.400678 57.05,50.9475394 L57.05,48.9524606 C57.05,45.499322 59.849322,42.7 63.3024606,42.7 Z" id="Rectangle-2-Copy-9" fill="#F49000"/><path d="M82.775,29.05 C85.9644444,29.05 88.55,31.6355556 88.55,34.825 L88.55,41.125 C88.55,44.3144444 85.9644444,46.9 82.775,46.9 C79.5855556,46.9 77,44.3144444 77,41.125 L77,34.825 C77,31.6355556 79.5855556,29.05 82.775,29.05 Z" id="Rectangle-130-Copy-41" fill="#4B4B4B"/><ellipse id="Oval-10-Copy-4" fill="#FFFFFF" cx="38.7514764" cy="32.45" rx="3.75147638" ry="3.75"/><ellipse id="Oval-10-Copy-5" fill="#FFFFFF" cx="77.2514764" cy="32.45" rx="3.75147638" ry="3.75"/><rect id="Rectangle-Copy" stroke="#4B4B4B" stroke-width="5" fill-opacity="0.4" fill="#FFFFFF" x="67" y="10" width="46" height="46" rx="23"/><path d="M54.6,49.35 C55.3412121,45.5199541 59.0141388,42.7 63.35,42.7 C67.4101195,42.7 71.02164,45.5866764 71.75,49.35 L71.75,49.35 L71.75,49.7 C71.75,49.9721586 71.6619536,50.0749383 71.4,50.05 L63.35,51.45 C63.1885406,51.451078 63.1614594,51.451078 63,51.45 L54.95,50.05 C54.6880464,50.0749383 54.6,49.9721586 54.6,49.7 L54.6,49.35 L54.6,49.35 Z" id="Combined-Shape-Copy-61" fill="#FFC200" fill-rule="nonzero"/><path d="M61.7147026,46.6617565 C61.0730822,46.9184046 60.3448917,46.606323 60.0882435,45.9647026 C59.8315954,45.3230822 60.143677,44.5948917 60.7852974,44.3382435 C62.2791675,43.7406955 63.8748423,43.7406955 65.5164412,44.3200833 C66.1680911,44.5500775 66.5099108,45.2647912 66.2799167,45.9164412 C66.0499225,46.5680911 65.3352088,46.9099108 64.6835588,46.6799167 C63.5980743,46.2968045 62.6270825,46.2968045 61.7147026,46.6617565 Z" id="Path-37-Copy-5" fill="#FFDE00" fill-rule="nonzero"/><path d="M47.7872548,74.5540389 L59.018535,74.55 C59.620534,74.5497836 60.0471475,75.1053405 59.861057,75.6471733 C58.9669581,78.2504872 56.3679712,80.0489325 53.4006896,80.05 C50.4334079,80.0510666 47.835863,78.25449 46.9438523,75.6518184 C46.7581964,75.1101193 47.1852558,74.5542554 47.7872548,74.5540389 Z" id="Combined-Shape-Copy-46" fill="#89E219" fill-rule="nonzero"/><path d="M67.3872548,74.5540389 L78.618535,74.55 C79.220534,74.5497836 79.6471475,75.1053405 79.461057,75.6471733 C78.5669581,78.2504872 75.9679712,80.0489325 73.0006896,80.05 C70.0334079,80.0510666 67.435863,78.25449 66.5438523,75.6518184 C66.3581964,75.1101193 66.7852558,74.5542554 67.3872548,74.5540389 Z" id="Combined-Shape-Copy-46" fill="#89E219" fill-rule="nonzero"/><path d="M57.5872548,84.0040389 L68.818535,84 C69.420534,83.9997836 69.8471475,84.5553405 69.661057,85.0971733 C68.7669581,87.7004872 66.1679712,89.4989325 63.2006896,89.5 C60.2334079,89.5010666 57.635863,87.70449 56.7438523,85.1018184 C56.5581964,84.5601193 56.9852558,84.0042554 57.5872548,84.0040389 Z" id="Combined-Shape-Copy-46" fill="#89E219" fill-rule="nonzero"/></g></g></svg>