<svg width="119" height="95" viewBox="0 0 119 95" fill="none" xmlns="http://www.w3.org/2000/svg"><mask id="mask0_10702_28652" style="mask-type:alpha" maskUnits="userSpaceOnUse" x="2" y="22" width="49" height="71"><path d="M29.1837 25.3312L2.90144 84.9022C1.49271 88.0952 3.61619 91.7118 7.09511 92.0446C23.8101 93.6438 39.9898 84.2379 46.9335 68.4993C53.8772 52.7608 49.8579 34.6042 37.3226 23.5315C34.7136 21.2269 30.5924 22.1382 29.1837 25.3312Z" fill="url(#paint0_linear_10702_28652)"/></mask><g mask="url(#mask0_10702_28652)"><path d="M29.1837 25.3312L2.90144 84.9022C1.49271 88.0952 3.61619 91.7118 7.09511 92.0446C23.8101 93.6438 39.9898 84.2379 46.9335 68.4993C53.8772 52.7608 49.8579 34.6042 37.3226 23.5315C34.7136 21.2269 30.5924 22.1382 29.1837 25.3312Z" fill="#58CC02"/><path opacity="0.2" d="M22.1914 92.3059C16.9511 85.6155 15.6411 64.987 15.6411 55.509L25.5505 56.8471L38.8189 77.5871C35.4598 85.281 27.4316 98.9962 22.1914 92.3059Z" fill="#3C7300"/></g><mask id="mask1_10702_28652" style="mask-type:alpha" maskUnits="userSpaceOnUse" x="69" y="24" width="49" height="71"><path d="M90.3828 27.6741L116.665 87.245C118.074 90.4381 115.95 94.0547 112.471 94.3875C95.7564 95.9867 79.5767 86.5807 72.633 70.8422C65.6893 55.1037 69.7086 36.9471 82.244 25.8743C84.853 23.5698 88.9741 24.4811 90.3828 27.6741Z" fill="url(#paint1_linear_10702_28652)"/></mask><g mask="url(#mask1_10702_28652)"><path d="M90.3828 27.6741L116.665 87.245C118.074 90.4381 115.95 94.0547 112.471 94.3875C95.7564 95.9867 79.5767 86.5807 72.633 70.8422C65.6893 55.1037 69.7086 36.9471 82.244 25.8743C84.853 23.5698 88.9741 24.4811 90.3828 27.6741Z" fill="url(#paint2_linear_10702_28652)"/><path opacity="0.2" d="M96.1903 92.307C101.43 85.6166 102.741 64.9881 102.741 55.5101L92.8312 56.8482L79.5627 77.5882C82.9218 85.2821 90.9501 98.9973 96.1903 92.307Z" fill="#3C7300"/></g><path d="M15.7401 14.9013C15.7401 4.71685 26.5712 -1.96304 35.9994 1.98274C44.7911 5.66215 54.2024 9.03089 59.1901 9.03089C64.1778 9.03089 73.5892 5.66215 82.3809 1.98274C91.8091 -1.96303 102.64 4.71685 102.64 14.9013V60.3509C102.64 84.2481 83.187 103.621 59.1901 103.621C35.1933 103.621 15.7401 84.2481 15.7401 60.3509V14.9013Z" fill="#58CC02"/><path opacity="0.5" d="M44.6281 73.3976L55.5638 73.3937C56.15 73.3935 56.5654 73.9339 56.3842 74.4609C55.5136 76.9933 52.983 78.7427 50.0938 78.7437C47.2046 78.7448 44.6754 76.9972 43.8068 74.4654C43.6261 73.9385 44.0419 73.3978 44.6281 73.3976Z" fill="#A5ED6E"/><path opacity="0.5" d="M63.2242 73.2515L74.16 73.2476C74.7462 73.2474 75.1616 73.7878 74.9804 74.3149C74.1098 76.8472 71.5792 78.5966 68.69 78.5976C65.8008 78.5987 63.2716 76.8511 62.403 74.3194C62.2223 73.7924 62.6381 73.2517 63.2242 73.2515Z" fill="#A5ED6E"/><path opacity="0.5" d="M53.6808 82.4444L64.6166 82.4405C65.2027 82.4403 65.6181 82.9807 65.4369 83.5078C64.5663 86.0401 62.0357 87.7895 59.1465 87.7906C56.2573 87.7916 53.7281 86.044 52.8596 83.5123C52.6788 82.9854 53.0946 82.4446 53.6808 82.4444Z" fill="#A5ED6E"/><path fill-rule="evenodd" clip-rule="evenodd" d="M38.6879 8.63337L50.0663 21.3729C54.8785 25.9428 63.0835 25.8565 68.3011 21.1141C68.4019 21.0225 68.4986 20.9445 68.5913 20.8796L79.6031 8.67096C80.2932 7.9059 81.5288 8.03424 82.0433 8.92442C83.3184 11.1306 83.7856 13.6547 83.4723 16.0993L87.1007 12.0765C87.7907 11.3115 89.0263 11.4398 89.5408 12.33C90.807 14.5206 91.2765 17.0247 90.9763 19.4532C95.2918 22.626 98.0926 27.7389 98.0926 33.5059V41.9146C98.0926 51.5412 90.2886 59.3452 80.662 59.3452C73.6044 59.3452 67.5265 55.1507 64.7851 49.1186C63.3887 49.1152 61.454 49.1172 58.9811 49.1247C57.8137 49.1282 55.9292 49.1359 53.3274 49.1477C50.5797 55.1641 44.51 59.3452 37.4638 59.3452C27.8371 59.3452 20.0332 51.5412 20.0332 41.9146V33.5059C20.0332 27.5845 22.9859 22.3526 27.4993 19.2025C27.1314 16.8558 27.5588 14.4139 28.8079 12.3016C29.2863 11.4927 30.4223 11.3855 31.0515 12.0899L34.7928 16.2787C34.8359 16.2721 34.8791 16.2656 34.9224 16.2593C34.513 13.7448 34.9636 11.1234 36.303 8.85844C36.8115 7.99853 38.0191 7.88457 38.6879 8.63337Z" fill="url(#paint3_linear_10702_28652)" fill-opacity="0.4"/><rect x="65.6229" y="22.1126" width="29.6193" height="30.9429" rx="14.8097" fill="white"/><path d="M67.2472 35.48C67.2472 29.0775 72.4375 23.8872 78.84 23.8872C85.2425 23.8872 90.4328 29.0775 90.4328 35.48V35.771C90.4328 42.1735 85.2425 47.3638 78.84 47.3638C72.4375 47.3638 67.2472 42.1735 67.2472 35.771V35.48Z" fill="#4B4B4B"/><rect x="53.284" y="42.237" width="11.5286" height="25.1742" rx="5.76428" fill="#CD7900"/><path opacity="0.4" d="M50.8141 49.0704H67.2463L65.8404 62.7212H51.9389L50.8141 49.0704Z" fill="url(#paint4_linear_10702_28652)"/><rect x="54.1979" y="44.6286" width="9.70086" height="18.0928" rx="4.85043" fill="#883F3F"/><path d="M67.6027 48.7474C67.6764 49.0327 67.4721 49.3087 67.1792 49.3412L59.1617 50.2303L51.1442 49.3412C50.8513 49.3087 50.647 49.0327 50.7207 48.7474C51.6879 45.0035 55.1004 42.237 59.1617 42.237C63.2231 42.237 66.6356 45.0035 67.6027 48.7474Z" fill="#FF9600"/><path d="M57.4214 44.7535C57.9864 44.5105 59.5401 44.3368 60.7054 44.7535" stroke="#FBE56D" stroke-width="2.52617" stroke-linecap="round" stroke-linejoin="round"/><ellipse cx="74.6245" cy="28.8576" rx="4.4964" ry="4.47773" fill="white"/><path d="M82.8092 30.7463C84.4351 31.9353 84.7853 34.2117 83.5914 35.8309C82.3974 37.4501 80.1115 37.7988 78.4856 36.6098C76.8597 35.4208 78.0541 34.3428 79.248 32.7236C80.4419 31.1045 81.1833 29.5573 82.8092 30.7463Z" fill="white"/><rect x="23.4782" y="22.1125" width="29.6193" height="30.9429" rx="14.8097" fill="white"/><path d="M27.9772 35.48C27.9772 29.0775 33.1675 23.8872 39.57 23.8872C45.9725 23.8872 51.1628 29.0775 51.1628 35.48V35.771C51.1628 42.1735 45.9725 47.3638 39.57 47.3638C33.1675 47.3638 27.9772 42.1735 27.9772 35.771V35.48Z" fill="#4B4B4B"/><ellipse cx="35.1957" cy="28.611" rx="4.74409" ry="4.7244" fill="white"/><path d="M43.6756 30.7463C45.3015 31.9353 45.6517 34.2117 44.4577 35.8309C43.2638 37.45 40.9779 37.7988 39.352 36.6098C37.726 35.4208 38.9204 34.3428 40.1144 32.7236C41.3083 31.1044 42.0497 29.5573 43.6756 30.7463Z" fill="white"/><rect width="2.52541" height="2.52541" transform="matrix(0.708576 0.705635 -0.708576 0.705635 34.9951 35.9048)" fill="white"/><rect width="2.52541" height="2.52541" transform="matrix(0.708576 0.705635 -0.708576 0.705635 74.6252 35.9048)" fill="white"/><defs><linearGradient id="paint0_linear_10702_28652" x1="-11.1724" y1="43.2007" x2="49.771" y2="70.0655" gradientUnits="userSpaceOnUse"><stop stop-color="#A5ED6E"/><stop offset="1" stop-color="#58CC02"/></linearGradient><linearGradient id="paint1_linear_10702_28652" x1="130.739" y1="45.5436" x2="69.7956" y2="72.4084" gradientUnits="userSpaceOnUse"><stop stop-color="#A5ED6E"/><stop offset="1" stop-color="#58CC02"/></linearGradient><linearGradient id="paint2_linear_10702_28652" x1="130.739" y1="45.5436" x2="69.7956" y2="72.4084" gradientUnits="userSpaceOnUse"><stop stop-color="#A5ED6E"/><stop offset="1" stop-color="#58CC02"/></linearGradient><linearGradient id="paint3_linear_10702_28652" x1="59.0629" y1="8.13596" x2="59.0629" y2="59.3452" gradientUnits="userSpaceOnUse"><stop stop-color="#FFF099"/><stop offset="1" stop-color="#A5ED6E"/></linearGradient><linearGradient id="paint4_linear_10702_28652" x1="59.0302" y1="49.0704" x2="59.0302" y2="62.7212" gradientUnits="userSpaceOnUse"><stop stop-color="#222151"/><stop offset="1" stop-color="#222151" stop-opacity="0"/></linearGradient></defs></svg>