<svg width="128" height="136" viewBox="0 0 128 136" fill="none" xmlns="http://www.w3.org/2000/svg"><path fill-rule="evenodd" clip-rule="evenodd" d="M47.2248 130.16C47.2248 126.943 49.8487 124.319 53.0651 124.319H62.2065C65.4229 124.319 68.0468 126.943 68.0468 130.16C68.0468 133.376 65.4229 136 62.2065 136H53.0651C49.8487 136 47.2248 133.376 47.2248 130.16Z" fill="#F49000"/><path fill-rule="evenodd" clip-rule="evenodd" d="M88.9313 129.066C88.9313 125.85 91.5552 123.226 94.7717 123.226H103.913C107.129 123.226 109.753 125.85 109.753 129.066C109.753 132.282 107.129 134.906 103.913 134.906H94.7717C91.5552 134.906 88.9313 132.282 88.9313 129.066Z" fill="#F49000"/><path d="M114.022 26.3765L58.1809 65.3209C55.1668 67.4232 55.1106 71.7694 57.9844 74.0221C71.9372 84.5629 91.4616 84.9043 106.222 74.6804C120.982 64.4564 127.308 46.0081 122.154 29.2708C121.186 25.7125 117.036 24.2741 114.022 26.3765Z" fill="#58CC02"/><path fill-rule="evenodd" clip-rule="evenodd" d="M21.1736 22.93C33.9834 24.056 42.4963 23.9856 46.6863 22.638C50.8764 21.2904 57.6992 16.5177 67.2899 8.18733C73.6118 2.68654 83.2674 3.40444 88.7681 9.72639C90.0635 11.2659 91.0883 13.0702 91.7103 15.0041L106.196 60.0474C113.867 83.8985 100.748 109.457 76.897 117.128C53.0201 124.718 27.4879 111.679 19.8172 87.828L5.30505 42.7041C2.73951 34.7268 7.11257 26.2074 15.1703 23.6159C17.1042 22.994 19.0871 22.8008 21.1736 22.93Z" fill="#58CC02"/><path d="M66.9563 87.7826C66.9361 87.1667 66.3777 86.8128 65.8137 86.9942L54.9357 90.4927C54.3716 90.6741 54.1501 91.3677 54.4668 91.7994C56.1565 94.0122 59.2245 94.9816 62.0447 94.0746C64.865 93.1676 66.8733 90.5656 66.9563 87.7826ZM84.7494 80.9042L73.8714 84.4027C73.3074 84.5841 73.0859 85.2778 73.4025 85.7094C75.0923 87.9223 78.1603 88.8916 80.9805 87.9846C83.8007 87.0776 85.8091 84.4756 85.8921 81.6926C85.8978 81.1573 85.3135 80.7228 84.7494 80.9042ZM78.1696 93.0675L67.2916 96.566C66.7276 96.7474 66.5061 97.4411 66.8227 97.8727C68.5124 100.086 71.5805 101.055 74.4007 100.148C77.2209 99.2409 79.2293 96.6389 79.3123 93.8559C79.3985 93.2947 78.8142 92.8602 78.1696 93.0675Z" fill="#89E219"/><path d="M28.6136 28.0052L46.2281 37.9888C47.1866 38.4808 47.253 39.7931 46.5221 40.5616C42.6576 44.0273 36.9767 44.6096 32.3744 41.9108C27.7722 39.2121 25.4719 33.9947 26.5157 28.9466C26.7947 27.8789 27.6552 27.5132 28.6136 28.0052Z" fill="#89E219"/><path fill-rule="evenodd" clip-rule="evenodd" d="M43.8872 36.7872C50.1962 40.093 58.5763 37.3978 62.259 30.8787C65.9416 24.3595 70.4714 59.1791 70.4196 59.0179C70.4196 59.0179 67.5735 59.8444 61.959 61.739C60.428 62.2314 57.6883 63.1125 53.8206 64.3564C43.0365 43.8182 39.7081 34.5748 43.8872 36.7872Z" fill="#89E219"/><path d="M5.2562 92.2507C5.2562 77.9423 16.8555 66.343 31.1639 66.343C38.4416 66.343 44.3413 72.2428 44.3413 79.5205V92.4226C44.3413 99.6056 38.5184 105.428 31.3355 105.428H15.1407C9.68163 105.428 5.2562 101.003 5.2562 95.544V92.2507Z" fill="#58CC02"/><path d="M22.5306 33.6953L39.8487 43.8632C40.8071 44.3551 40.8735 45.6675 40.1427 46.436C36.2782 49.9017 30.5973 50.484 25.995 47.7852C21.3928 45.0864 19.0924 39.8691 20.2169 34.7951C20.3894 33.6727 21.5721 33.2034 22.5306 33.6953Z" fill="#89E219"/><path fill-rule="evenodd" clip-rule="evenodd" d="M29.7638 35.7271L30.2472 35.5716C39.6748 32.5395 49.711 37.7585 52.7171 47.1056L55.6195 56.1304C58.6515 65.558 53.4326 75.5943 44.0856 78.6004L43.6021 78.7559C34.1746 81.7879 24.1384 76.569 21.1323 67.2219L18.2558 58.2777C15.2238 48.85 20.3362 38.7591 29.7638 35.7271Z" fill="#89E219"/><path d="M69.5494 14.8412L61.2985 33.1434C60.8066 34.1018 61.5176 35.2069 62.5594 35.4053C67.7196 35.9685 72.675 33.13 74.8413 28.2544C77.0075 23.3788 75.8353 17.7987 71.9639 14.3314C71.1954 13.6005 69.9608 13.9087 69.5494 14.8412Z" fill="#89E219"/><path d="M78.0506 15.8408L69.8256 34.2237C69.3336 35.1821 70.0447 36.2871 71.0865 36.4855C76.2467 37.0488 81.202 34.2103 83.3683 29.3347C85.5346 24.4591 84.3624 18.8789 80.491 15.4116C79.7771 14.5743 78.5425 14.8824 78.0506 15.8408Z" fill="#89E219"/><path fill-rule="evenodd" clip-rule="evenodd" d="M72.7128 21.9142L73.1963 21.7587C82.6239 18.7267 92.6601 23.9457 95.6662 33.2928L98.5686 42.3175C101.601 51.7452 96.3817 61.7815 87.0347 64.7876L86.6318 64.9172C77.2848 67.9233 67.2745 62.7849 64.1878 53.4637L61.2048 44.4648C58.0922 35.0631 63.2047 24.9722 72.7128 21.9142C72.7128 21.9142 72.6322 21.9401 72.7128 21.9142Z" fill="#89E219"/><path fill-rule="evenodd" clip-rule="evenodd" d="M59.9974 54.8124C63.3011 53.7499 66.9218 55.6085 67.9843 58.9122L68.6063 60.8461C69.6688 64.1498 67.8102 67.7706 64.5066 68.8331C61.2029 69.8956 57.5821 68.037 56.5196 64.7333L55.8977 62.7994C54.8352 59.4957 56.6937 55.8749 59.9974 54.8124Z" fill="#F49000"/><path d="M53.6908 63.9532C53.224 60.0133 55.8883 56.1334 60.0783 54.7858C64.0266 53.516 68.3985 55.2219 70.2898 58.6147L70.3935 58.937C70.4712 59.1788 70.4425 59.3658 70.1748 59.363L65.5646 62.3572C65.4034 62.4091 65.4034 62.4091 65.2423 62.4609L54.2205 64.4941C53.9787 64.5719 53.8722 64.5172 53.7945 64.2755L53.6908 63.9532Z" fill="#FFC200"/><path d="M61.9179 58.1585C61.7752 58.2497 61.7039 58.2953 61.5157 58.3152C60.3607 58.5515 59.505 59.0987 58.9486 59.9568C58.515 60.5356 57.7621 60.6152 57.229 60.2528C56.6502 59.8191 56.5706 59.0663 56.933 58.5331C57.8973 57.2131 59.2522 56.3467 60.9976 55.9338C61.7048 55.783 62.3549 56.171 62.5058 56.8783C62.5912 57.326 62.3457 57.8849 61.9179 58.1585Z" fill="#FFDE00"/><path fill-rule="evenodd" clip-rule="evenodd" d="M32.6187 41.5648C39.1455 39.4657 46.174 43.0735 48.2731 49.6003L50.5794 56.7718C52.6785 63.2987 49.0708 70.3272 42.544 72.4263C36.0172 74.5254 28.9887 70.9176 26.8896 64.3908L24.5832 57.2193C22.4841 50.6924 26.0919 43.6639 32.6187 41.5648Z" fill="white"/><path fill-rule="evenodd" clip-rule="evenodd" d="M74.2797 28.1663C80.8065 26.0672 87.8349 29.675 89.934 36.2018L92.2404 43.3733C94.3395 49.9002 90.7317 56.9287 84.2049 59.0278C77.6781 61.1269 70.6496 57.5191 68.5506 50.9923L66.2442 43.8208C64.1451 37.2939 67.7529 30.2654 74.2797 28.1663Z" fill="white"/><path d="M38.3888 48.6869C38.3888 48.6869 39.7036 51.2047 40.302 54.6844" stroke="#4B4B4B" stroke-width="11.6189" stroke-linecap="round"/><path d="M76.0834 36.071C76.0834 36.071 77.7222 38.5897 78.6051 43.5781" stroke="#4B4B4B" stroke-width="10.8927" stroke-linecap="round"/><path d="M72.1229 40.8682C74.3471 40.1529 75.5703 37.7699 74.855 35.5457C74.1397 33.3215 71.7567 32.0983 69.5325 32.8136C67.3083 33.5289 66.0851 35.9119 66.8004 38.1361C67.5158 40.3604 69.8987 41.5836 72.1229 40.8682Z" fill="white"/><path d="M33.6358 52.6627C35.86 51.9473 37.0832 49.5644 36.3679 47.3401C35.6525 45.1159 33.2696 43.8927 31.0454 44.608C28.8212 45.3234 27.598 47.7064 28.3133 49.9306C29.0286 52.1548 31.4116 53.378 33.6358 52.6627Z" fill="white"/><path d="M27.4398 87.6984L32.8911 89.776C38.5216 91.922 42.2423 97.3218 42.2423 103.347L42.2423 111.202" stroke="#3DBE01" stroke-width="3.6309" stroke-linecap="round"/><path d="M27.0335 69.9056C38.3997 64.4932 52.6523 66.1168 52.6523 66.1168L48.142 73.5139L34.9718 75.3181L27.0335 69.9056Z" fill="#89E219"/></svg>