<svg width="1080" height="1081" viewBox="0 0 1080 1081" fill="none" xmlns="http://www.w3.org/2000/svg"><path d="M641.545 896.365C641.545 945.529 590.358 985.384 527.215 985.384C464.072 985.384 412.885 945.529 412.885 896.365C412.885 847.201 464.072 807.346 527.215 807.346C590.358 807.346 641.545 847.201 641.545 896.365Z" fill="#AFAFAF" fill-opacity="0.05"/><path d="M511.805 856.578C521.787 852.787 532.952 857.806 536.743 867.788V867.788C540.534 877.769 535.515 888.934 525.534 892.726L495.561 904.109C485.58 907.9 474.415 902.882 470.623 892.9V892.9C466.832 882.918 471.851 871.753 481.833 867.962L511.805 856.578Z" fill="#1F2E35"/><path d="M560.839 883.203C561.765 872.566 553.892 863.192 543.255 862.266V862.266C532.617 861.341 523.244 869.214 522.318 879.851L519.563 911.516C518.637 922.154 526.51 931.527 537.147 932.453V932.453C547.785 933.378 557.158 925.505 558.084 914.868L560.839 883.203Z" fill="#1F2E35"/><path d="M461.487 784.459C461.487 770.509 488.029 672.788 496.553 633.265L510.503 682.087C514.765 722.644 510.387 818.945 496.748 818.945C479.698 818.945 461.487 801.895 461.487 784.459Z" fill="#1F2E35"/><path d="M496.941 602.267C496.941 583.435 512.208 568.169 531.04 568.169V568.169C549.872 568.169 565.138 583.435 565.138 602.267V847.93C565.138 866.762 549.872 882.029 531.04 882.029V882.029C512.208 882.029 496.941 866.762 496.941 847.93V602.267Z" fill="#2C3D46"/><path d="M602.845 835.721C602.845 826.918 583.706 728.349 568.838 677.205C564.846 663.471 554.741 667.264 551.59 667.868C544.991 669.132 544.28 669.743 541.244 698.253C535.416 752.972 535.118 832.949 536.392 842.502C538.329 857.033 551.116 863.232 569.328 863.232C587.539 863.232 602.845 847.733 602.845 835.721Z" fill="#1F2E35"/><path fill-rule="evenodd" clip-rule="evenodd" d="M565.138 699.019C540.697 717.264 513.857 706.827 496.941 694.339V602.263C496.941 583.431 512.208 568.165 531.04 568.165C549.872 568.165 565.138 583.431 565.138 602.263V699.019Z" fill="#1F2E35"/><path d="M688.113 448.478C688.113 534.109 618.695 603.527 533.063 603.527C447.432 603.527 378.014 534.109 378.014 448.478C378.014 362.847 447.432 293.429 533.063 293.429C618.695 293.429 688.113 362.847 688.113 448.478Z" fill="#2C3D46"/><path d="M529.013 640.739C453.18 640.739 407.675 600.556 394.402 583.054L384.888 446.329L432.812 412.853H603.366L680.891 481.215L664.329 567.549C650.821 590.219 604.846 640.739 529.013 640.739Z" fill="#3F515B"/><path d="M438.62 546.432C438.62 515.281 418.417 497.392 408.315 492.341L401.796 503.617V543.613C404.086 548.018 410.429 554.89 422.058 561.937C434.655 569.572 438.62 558.942 438.62 546.432Z" fill="#4A5A62"/><path d="M481.394 588.977C445.979 580.696 448.27 566.072 448.27 558.319C448.27 533.652 463.775 524.49 473.818 525.371C481.853 526.076 509.233 531.538 521.919 534.181V565.719C521.919 580.696 509.726 595.602 481.394 588.977Z" fill="#4A5A62"/><path d="M448.06 583.908C446.735 590.082 441.028 594.093 435.311 592.867C429.595 591.641 426.034 585.642 427.358 579.467C428.683 573.293 438.281 562.98 441.57 563.686C444.64 564.345 449.384 577.733 448.06 583.908Z" fill="#2C3D46"/><path d="M476.53 558.391C476.53 565.722 472.037 571.664 466.494 571.664C460.952 571.664 456.458 565.722 456.458 558.391C456.458 551.061 460.952 545.118 466.494 545.118C472.037 545.118 476.53 551.061 476.53 558.391Z" fill="#131F24"/><path d="M434.975 539.545C434.975 546.876 430.433 552.819 424.831 552.819C419.229 552.819 414.688 546.876 414.688 539.545C414.688 532.215 419.229 526.272 424.831 526.272C430.433 526.272 434.975 532.215 434.975 539.545Z" fill="#131F24"/><path fill-rule="evenodd" clip-rule="evenodd" d="M521.698 569.194C495.292 570.076 464.284 560.047 448.486 553.428C450.387 532.434 464.47 524.551 473.82 525.371C481.854 526.076 509.235 531.538 521.92 534.181V565.719C521.92 566.881 521.847 568.043 521.698 569.194Z" fill="#2C3D46"/><path fill-rule="evenodd" clip-rule="evenodd" d="M438.495 549.513C438.58 548.308 438.62 547.067 438.62 545.807C438.62 514.656 418.417 496.767 408.315 491.716L401.796 502.992V524.139C413.445 537.021 429.26 545.715 438.495 549.513Z" fill="#2C3D46"/><path d="M365.871 555.674C365.871 508.454 372.807 466.542 379.57 426.137L430.167 386.809L522.844 361.085L682.784 409.719C692.042 443.184 708.18 526.356 708.18 552.08C708.18 610.047 694.944 637.075 682.963 651.875C673.378 663.715 661.859 656.704 661.859 647.404L660.45 523.182L652.522 478.429C630.146 496.194 585.233 528.449 530.609 528.449C443.923 528.449 427.431 472.611 420.842 437.929C407.803 472.991 407.836 522.33 407.836 569.373C407.836 578.079 408.373 585.685 408.876 593.303C410.704 610.459 412.852 619.835 410.957 627.465C409.615 632.869 407.836 639.083 400.553 639.083C382.581 639.083 365.871 579.636 365.871 555.674Z" fill="#2C3D46"/><path d="M674.546 503.272C674.546 517.382 663.108 528.82 648.998 528.82C634.888 528.82 623.45 517.382 623.45 503.272C623.45 489.162 634.888 477.724 648.998 477.724C663.108 477.724 674.546 489.162 674.546 503.272Z" fill="#3F515B"/><path fill-rule="evenodd" clip-rule="evenodd" d="M453.121 605.486C462.258 592.139 476.487 593.471 482.483 595.816C484.114 596.453 484.92 598.293 484.282 599.924C483.644 601.555 481.805 602.361 480.173 601.723C475.775 600.003 465.215 599.049 458.355 609.069C457.366 610.514 455.392 610.884 453.947 609.894C452.501 608.905 452.132 606.931 453.121 605.486Z" fill="#2C3D46"/></svg>