<svg width="1081" height="1080" viewBox="0 0 1081 1080" fill="none" xmlns="http://www.w3.org/2000/svg"><path d="M360.396 370.323C356.914 358.444 352.602 351.36 343.114 353.732C340.108 354.484 334.2 358.799 335.971 366.406C337.434 372.693 345.577 381.48 361.598 387.679C362.961 388.206 364.332 387.101 364.081 385.661C363.553 382.629 362.478 377.428 360.396 370.323Z" fill="#4A5A62"/><path d="M364.903 370.323C368.384 358.445 371.775 350.899 381.262 353.272C384.269 354.023 391.098 358.8 389.327 366.406C387.864 372.693 379.721 381.481 363.7 387.679C362.337 388.206 360.967 387.101 361.217 385.661C361.745 382.629 362.82 377.428 364.903 370.323Z" fill="#4A5A62"/><path d="M509.556 212.304C506.074 200.426 501.762 193.342 492.274 195.714C489.268 196.465 483.361 200.781 485.131 208.387C486.595 214.675 494.737 223.462 510.758 229.66C512.121 230.187 513.492 229.082 513.241 227.642C512.713 224.61 511.638 219.409 509.556 212.304Z" fill="#4A5A62"/><path d="M514.063 212.305C517.545 200.426 520.935 192.881 530.422 195.253C533.429 196.005 540.258 200.781 538.487 208.388C537.024 214.675 528.881 223.462 512.86 229.66C511.497 230.187 510.127 229.082 510.377 227.642C510.905 224.61 511.98 219.41 514.063 212.305Z" fill="#4A5A62"/><path d="M454.836 597.026C576.154 597.026 804.884 466.25 804.884 669.434C804.884 811.008 609.167 917.872 475.623 917.872C320.034 917.872 235.171 862.521 235.171 768.061C235.171 673.601 333.518 597.026 454.836 597.026Z" fill="#AFAFAF" fill-opacity="0.05"/><path fill-rule="evenodd" clip-rule="evenodd" d="M461.537 216.447C461.742 215.216 462.906 214.384 464.138 214.59L463.766 216.819C464.138 214.59 464.139 214.59 464.14 214.59L464.143 214.591L464.15 214.592L464.167 214.595L464.216 214.604C464.255 214.611 464.307 214.621 464.371 214.634C464.498 214.66 464.675 214.698 464.894 214.752C465.332 214.86 465.943 215.029 466.678 215.284C468.145 215.792 470.126 216.648 472.223 218.046C476.456 220.868 481.091 225.862 482.926 234.425C483.187 235.646 482.41 236.847 481.19 237.109C479.969 237.37 478.768 236.593 478.506 235.372C476.951 228.116 473.111 224.07 469.716 221.807C468 220.663 466.379 219.964 465.197 219.555C464.608 219.35 464.133 219.22 463.816 219.142C463.658 219.103 463.54 219.077 463.468 219.063C463.432 219.055 463.407 219.051 463.394 219.048L463.386 219.047C462.159 218.837 461.332 217.676 461.537 216.447Z" fill="#404040"/><path fill-rule="evenodd" clip-rule="evenodd" d="M461.537 216.447C461.742 215.216 462.906 214.384 464.138 214.59L463.766 216.819C464.138 214.59 464.139 214.59 464.14 214.59L464.143 214.591L464.15 214.592L464.167 214.595L464.216 214.604C464.255 214.611 464.307 214.621 464.371 214.634C464.498 214.66 464.675 214.698 464.894 214.752C465.332 214.86 465.943 215.029 466.678 215.284C468.145 215.792 470.126 216.648 472.223 218.046C476.456 220.868 481.091 225.862 482.926 234.425C483.187 235.646 482.41 236.847 481.19 237.109C479.969 237.37 478.768 236.593 478.506 235.372C476.951 228.116 473.111 224.07 469.716 221.807C468 220.663 466.379 219.964 465.197 219.555C464.608 219.35 464.133 219.22 463.816 219.142C463.658 219.103 463.54 219.077 463.468 219.063C463.432 219.055 463.407 219.051 463.394 219.048L463.386 219.047C462.159 218.837 461.332 217.676 461.537 216.447Z" fill="#1F2E35"/><path fill-rule="evenodd" clip-rule="evenodd" d="M552.471 251.849C552.471 250.601 553.483 249.589 554.731 249.589H559.816C561.065 249.589 562.076 250.601 562.076 251.849C562.076 253.097 561.065 254.109 559.816 254.109H554.731C553.483 254.109 552.471 253.097 552.471 251.849Z" fill="#1F2E35"/><path d="M531.001 276.144H492.581C479.475 276.144 468.851 265.519 468.851 252.414C468.851 239.308 479.475 228.684 492.581 228.684H531.001C544.107 228.684 554.731 239.308 554.731 252.414C554.731 265.519 544.107 276.144 531.001 276.144Z" fill="#4A5A62"/><path d="M513.572 228.684H509.045C509.052 228.809 509.059 228.946 509.068 229.096C509.119 230.043 509.187 231.494 509.256 233.493C509.393 237.491 509.531 243.68 509.531 252.414C509.531 261.147 509.393 267.336 509.256 271.334C509.187 273.333 509.119 274.784 509.068 275.731C509.059 275.881 509.052 276.019 509.045 276.144H513.572C513.575 276.089 513.578 276.032 513.581 275.974C513.634 274.996 513.703 273.516 513.773 271.489C513.912 267.436 514.051 261.195 514.051 252.414C514.051 243.632 513.912 237.391 513.773 233.338C513.703 231.311 513.634 229.831 513.581 228.853C513.578 228.795 513.575 228.738 513.572 228.684Z" fill="#1F2E35"/><path d="M529.392 276.144H524.865C524.872 276.019 524.88 275.881 524.888 275.731C524.939 274.784 525.007 273.333 525.076 271.334C525.213 267.336 525.351 261.147 525.351 252.414C525.351 243.68 525.213 237.491 525.076 233.493C525.007 231.494 524.939 230.043 524.888 229.096C524.88 228.946 524.872 228.809 524.865 228.684H529.392C529.395 228.738 529.398 228.795 529.401 228.853C529.454 229.831 529.524 231.311 529.593 233.338C529.732 237.391 529.871 243.632 529.871 252.414C529.871 261.195 529.732 267.436 529.593 271.489C529.524 273.516 529.454 274.996 529.401 275.974C529.398 276.032 529.395 276.089 529.392 276.144Z" fill="#1F2E35"/><path fill-rule="evenodd" clip-rule="evenodd" d="M412.886 374.083C412.681 372.852 411.516 372.02 410.285 372.225L410.657 374.455C410.285 372.225 410.284 372.226 410.283 372.226L410.28 372.226L410.273 372.227L410.256 372.23L410.207 372.239C410.168 372.246 410.116 372.256 410.052 372.269C409.924 372.296 409.748 372.334 409.528 372.388C409.09 372.496 408.48 372.665 407.745 372.92C406.278 373.428 404.297 374.284 402.199 375.682C397.966 378.504 393.332 383.497 391.497 392.061C391.235 393.282 392.013 394.483 393.233 394.745C394.454 395.006 395.655 394.229 395.916 393.008C397.471 385.752 401.312 381.706 404.707 379.443C406.423 378.298 408.044 377.6 409.225 377.19C409.814 376.986 410.29 376.855 410.606 376.777C410.765 376.739 410.883 376.713 410.955 376.698C410.991 376.691 411.016 376.686 411.028 376.684L411.037 376.682C412.263 376.473 413.091 375.311 412.886 374.083Z" fill="#1F2E35"/><path fill-rule="evenodd" clip-rule="evenodd" d="M321.951 409.485C321.951 408.236 320.939 407.225 319.691 407.225H314.606C313.358 407.225 312.346 408.236 312.346 409.485C312.346 410.733 313.358 411.745 314.606 411.745H319.691C320.939 411.745 321.951 410.733 321.951 409.485Z" fill="#1F2E35"/><path d="M343.421 433.779H381.841C394.947 433.779 405.571 423.155 405.571 410.049C405.571 396.944 394.947 386.319 381.841 386.319H343.421C330.316 386.319 319.691 396.944 319.691 410.049C319.691 423.155 330.316 433.779 343.421 433.779Z" fill="#4A5A62"/><path d="M345.03 433.779C345.027 433.724 345.023 433.668 345.02 433.609C344.968 432.632 344.898 431.152 344.828 429.125C344.689 425.071 344.551 418.83 344.551 410.049C344.551 401.268 344.689 395.027 344.828 390.974C344.898 388.947 344.968 387.467 345.02 386.489C345.023 386.431 345.027 386.374 345.03 386.319H349.557C349.549 386.444 349.542 386.582 349.534 386.732C349.483 387.679 349.414 389.13 349.346 391.129C349.209 395.126 349.071 401.315 349.071 410.049C349.071 418.783 349.209 424.972 349.346 428.97C349.414 430.969 349.483 432.42 349.534 433.366C349.542 433.517 349.549 433.654 349.557 433.779H345.03Z" fill="#1F2E35"/><path d="M365.377 433.779H360.85C360.847 433.724 360.844 433.668 360.841 433.609C360.788 432.632 360.718 431.152 360.649 429.125C360.51 425.071 360.371 418.83 360.371 410.049C360.371 401.268 360.51 395.027 360.649 390.974C360.718 388.947 360.788 387.467 360.841 386.489C360.844 386.431 360.847 386.374 360.85 386.319H365.377C365.37 386.444 365.362 386.582 365.354 386.732C365.303 387.679 365.235 389.13 365.166 391.129C365.029 395.126 364.891 401.315 364.891 410.049C364.891 418.783 365.029 424.972 365.166 428.97C365.235 430.969 365.303 432.42 365.354 433.366C365.362 433.517 365.37 433.654 365.377 433.779Z" fill="#1F2E35"/><path d="M543.997 359.968C581.758 359.968 612.37 390.579 612.37 428.341C612.37 466.102 581.758 496.714 543.997 496.714C506.235 496.714 475.624 466.102 475.624 428.341C475.624 390.579 506.235 359.968 543.997 359.968Z" fill="#1F2E35"/><path d="M580.514 415.147C580.514 415.147 557.454 334.89 629.406 319.096C679.894 308.013 708.217 338.8 716.22 369.05C723.119 395.123 736.502 404.174 754.395 412.068C775.33 421.304 796.88 437.929 794.416 466.252C791.953 494.574 774.714 506.887 748.238 511.813C721.762 516.739 580.514 415.147 580.514 415.147Z" fill="#1F2E35"/><path fill-rule="evenodd" clip-rule="evenodd" d="M741.947 578.486C758.17 578.752 771.107 592.12 770.841 608.344L769.66 680.393C769.459 692.682 761.629 703.548 750.034 707.626L652.576 741.911C637.269 747.295 620.496 739.252 615.111 723.945C609.727 708.639 617.77 691.865 633.076 686.48L711.243 658.983L712.089 607.381C712.355 591.157 725.723 578.221 741.947 578.486Z" fill="#4A5A62"/><path d="M792.363 572.254C792.363 594.64 774.215 612.788 751.829 612.788C729.442 612.788 711.295 594.64 711.295 572.254C711.295 549.868 729.442 531.72 751.829 531.72C774.215 531.72 792.363 549.868 792.363 572.254Z" fill="#364750"/><path d="M505.575 817.979C432.126 817.979 379.418 781.019 354.156 727.579C324.776 665.429 338.736 581.219 410.656 560.339C445.686 550.169 489.746 527.206 505.411 479.919C529.306 407.789 602.756 378.409 675.076 391.969C748.683 405.771 772.139 472.362 765.476 545.649C759.826 607.799 734.966 666.559 673.946 732.099C619.488 790.591 553.036 817.979 505.575 817.979Z" fill="#364750"/><path d="M634.514 388.873C576.896 390.964 524.815 421.347 505.411 479.92C502.922 487.431 499.717 494.329 495.946 500.659C499.103 500.95 502.428 501.265 505.577 501.58C516.877 502.71 532.697 502.71 541.737 488.02C550.777 473.33 555.297 458.64 555.297 458.64C555.297 458.64 562.136 459.502 567.727 460.9C594.847 467.68 618.577 449.6 625.357 427C629.344 413.709 632.549 398.855 634.514 388.873Z" fill="#1F2E35"/><path d="M354.156 727.577C379.418 781.017 432.126 817.977 505.575 817.977C553.036 817.977 619.488 790.589 673.946 732.097C681.11 724.403 687.775 716.802 693.969 709.278C663.829 626.326 581.415 557.825 475.754 525.379C456.256 543.389 431.809 554.195 410.656 560.337C338.736 581.217 324.776 665.427 354.156 727.577Z" fill="#4A5A62"/><path d="M354.156 727.577C379.418 781.017 432.126 817.977 505.575 817.977C535.945 817.977 574.09 806.763 611.893 783.362C611.768 683.224 562.441 586.391 462.22 536.271C445.633 547.929 427.144 555.55 410.656 560.337C338.736 581.217 324.776 665.427 354.156 727.577Z" fill="#1F2E35"/><path d="M640.047 603.276L631.007 678.986H699.937L640.047 603.276Z" fill="#364750"/><path d="M354.156 727.577C379.418 781.017 432.126 817.977 505.575 817.977C528.16 817.977 555.045 811.775 582.892 798.971C588.402 697.384 539.007 600.216 439.199 549.586C429.513 554.173 419.778 557.689 410.656 560.337C338.736 581.217 324.776 665.427 354.156 727.577Z" fill="#2C3D46"/><path d="M553.036 678.986L584.834 660.605C584.834 660.605 583.308 656.503 579.026 648.476C573.742 638.572 571.209 635.388 571.209 635.388L540.606 651.866L553.036 678.986Z" fill="#2C3D46"/><path d="M581.023 782.007L611.345 767.434C611.345 767.434 612.046 764.367 611.448 756.044C610.85 747.72 609.189 743.473 609.189 743.473L580.156 755.827L581.023 782.007Z" fill="#2C3D46"/><path d="M718.376 499.607L753.164 515.814C753.164 515.814 744.564 538.794 725.458 529.975C705.448 520.74 718.376 499.607 718.376 499.607Z" fill="#4A5A62"/><path d="M649.416 467.479L699.722 490.916C699.722 490.916 685.803 510.271 662.346 499.607C640.162 489.52 649.416 467.479 649.416 467.479Z" fill="#4A5A62"/><path d="M742.755 508.9C742.755 515.633 737.299 521.091 730.566 521.091C723.834 521.091 718.376 515.633 718.376 508.9C718.376 502.168 723.834 496.711 730.566 496.711C737.299 496.711 742.755 502.168 742.755 508.9Z" fill="#1F2E35"/><path d="M660.554 472.669L682.317 482.808C680.933 488.02 676.182 491.86 670.534 491.86C663.801 491.86 658.344 486.403 658.344 479.67C658.344 477.065 659.162 474.65 660.554 472.669Z" fill="#1F2E35"/><path d="M586.796 528.053C587.178 512.455 600.131 500.121 615.729 500.503C629.896 500.85 646.233 502.672 659.734 504.642C672.586 506.518 685.458 508.903 691.871 510.91C708.621 516.152 719.923 527.629 726.451 538.882L726.452 538.883C730.05 545.085 733.818 554.773 736.864 563.568C740.147 573.044 743.481 584.11 745.879 594.329C749.443 609.518 740.018 624.721 724.829 628.285C709.639 631.849 694.437 622.425 690.872 607.235C689.002 599.264 686.257 590.088 683.476 582.06C682.095 578.073 680.771 574.558 679.622 571.769C679.049 570.378 678.558 569.261 678.162 568.413C673.588 558.638 639.132 545.343 613.876 536.729C608.805 539.409 601.988 542.633 593.061 546.497C588.995 541.468 586.625 535.024 586.796 528.053Z" fill="#1F2E35"/><path d="M703.405 506.335C712.61 506.335 720.072 513.796 720.072 523.001C720.072 532.206 712.61 539.668 703.405 539.668C694.2 539.668 686.739 532.206 686.739 523.001C686.739 513.796 694.2 506.335 703.405 506.335Z" fill="#364750"/><path fill-rule="evenodd" clip-rule="evenodd" d="M684.445 445.133C680.278 443.81 675.998 443.763 672.808 444.704C665.326 446.912 657.471 442.636 655.263 435.154C653.056 427.672 657.332 419.817 664.814 417.609C674.144 414.856 684.23 415.425 692.993 418.207C701.695 420.97 710.505 426.383 716.105 434.869C720.403 441.379 718.609 450.141 712.098 454.438C705.587 458.736 696.826 456.942 692.528 450.431C691.356 448.655 688.672 446.475 684.445 445.133Z" fill="#1F2E35"/><path fill-rule="evenodd" clip-rule="evenodd" d="M714.048 480.427C718.799 474.24 727.667 473.076 733.854 477.827C742.967 484.824 753.727 488.689 765.695 488.689C773.496 488.689 779.82 495.013 779.82 502.814C779.82 510.615 773.496 516.939 765.695 516.939C747.289 516.939 730.523 510.886 716.649 500.233C710.462 495.482 709.297 486.615 714.048 480.427Z" fill="#1F2E35"/><path d="M679.997 550.476C696.272 566.75 704.203 594.044 699.829 616.924C697.901 627.009 693.582 636.237 686.533 643.286C669.867 659.952 648.214 628.495 653.446 615.59C647.808 624.658 629.917 634.218 613.087 617.387C598.545 602.845 607.858 587.158 620.338 578.849C604.671 579.07 590.7 577.844 580.406 561.668C575.869 554.539 578.885 547.35 586.421 541.645C605.181 527.442 651.961 522.439 679.997 550.476Z" fill="#FFC200"/><path d="M595.6 624.985C595.6 624.985 614.446 630.126 620.845 646.288C627.243 662.451 615.669 666.033 611.65 665.527C603.547 664.508 598.741 654.104 599.963 647.182C601.289 639.674 595.6 624.985 595.6 624.985Z" fill="#1F2E35"/><path d="M679.997 550.476C696.272 566.75 704.203 594.044 699.829 616.924C697.901 627.009 693.582 636.237 686.533 643.286C669.867 659.952 648.214 628.495 653.446 615.59C647.808 624.658 629.917 634.218 613.087 617.387C598.545 602.845 607.858 587.158 620.338 578.849C604.671 579.07 590.7 577.844 580.406 561.668C575.869 554.539 578.885 547.35 586.421 541.645C605.181 527.442 651.961 522.439 679.997 550.476Z" fill="#2B3B44"/><path fill-rule="evenodd" clip-rule="evenodd" d="M661.94 572.864C662.984 573.805 663.069 575.414 662.129 576.458C632.62 609.243 577.2 650.892 502.389 650.589C500.983 650.583 499.849 649.439 499.854 648.034C499.86 646.628 501.004 645.494 502.409 645.499C575.25 645.795 629.393 605.22 658.346 573.053C659.286 572.009 660.895 571.924 661.94 572.864Z" fill="#1F2E35"/><path d="M681.745 621.595C679.12 618.809 676.802 616.35 676.149 610.66C674.904 599.811 675.63 591.306 676.149 589.305C673.259 596.271 663.145 609.046 648.53 605.56C633.915 602.075 623.371 591.742 624.705 574.4C625.772 560.527 636.51 552.85 641.179 550.553C633.491 552.279 614.193 556.515 602.583 547.886C596.748 543.549 591.206 541.962 586.458 541.616C605.244 527.435 651.979 522.458 679.997 550.476C696.271 566.75 704.203 594.044 699.829 616.924C698.259 625.137 695.103 632.78 690.179 639.142C688.481 628.741 684.892 624.933 681.745 621.595Z" fill="#364750"/><path d="M426.083 555.163C466.242 572.253 498.967 616.682 514.667 643.344C521.863 655.564 540.701 672.579 564.54 662.431C587.829 652.516 585.166 628.287 579.317 616.682C567.618 593.471 523.504 537.055 485.33 519.2C467.368 510.798 448.625 500.593 441.615 506.885C425.933 520.959 421.911 539.996 426.083 555.163Z" fill="#4A5A62"/><path d="M536.435 561.068C536.435 561.068 529.046 514.243 501.339 496.711C473.633 479.179 449.004 498.882 441.615 506.886C434.226 514.89 447.156 546.291 467.474 543.213C487.793 540.135 536.435 561.068 536.435 561.068Z" fill="#4A5A62"/><path fill-rule="evenodd" clip-rule="evenodd" d="M490.744 521.684C491.472 520.67 492.884 520.438 493.898 521.165L492.58 523.001C493.898 521.165 493.898 521.166 493.899 521.166L493.926 521.186L494.004 521.242C494.071 521.291 494.17 521.362 494.299 521.457C494.557 521.646 494.937 521.926 495.427 522.293C496.408 523.027 497.834 524.11 499.622 525.513C503.197 528.319 508.226 532.405 514.054 537.542C525.7 547.808 540.581 562.307 553.434 579.19C554.19 580.183 553.998 581.601 553.005 582.357C552.012 583.113 550.594 582.921 549.838 581.928C537.228 565.364 522.581 551.084 511.065 540.933C505.311 535.861 500.35 531.83 496.832 529.069C495.073 527.689 493.675 526.627 492.719 525.912C492.241 525.555 491.874 525.284 491.628 525.104C491.505 525.013 491.412 524.946 491.351 524.901L491.282 524.852L491.263 524.838" fill="#364750"/><path d="M552.104 577.399C530.979 585.485 512.961 604.707 500.871 622.145C506.33 629.804 510.97 637.067 514.667 643.344C521.863 655.564 540.701 672.58 564.539 662.431C587.829 652.516 585.165 628.287 579.316 616.682C574.628 607.381 564.735 592.747 552.104 577.399Z" fill="#364750"/><path d="M390.761 818.175C385.938 804.834 371.213 797.929 357.872 802.752L310.672 819.862C297.331 824.685 290.426 839.409 295.249 852.75V852.751C300.071 866.092 314.796 872.997 328.137 868.174L375.337 851.064C388.678 846.241 395.584 831.516 390.761 818.175Z" fill="#1F2E35"/><path d="M377.488 721.705C365.601 713.962 349.689 717.32 341.946 729.207L314.579 771.299C306.837 783.186 310.195 799.098 322.082 806.841C333.968 814.584 349.881 811.226 357.623 799.339L384.99 757.247C392.733 745.36 389.374 729.447 377.488 721.705Z" fill="#1F2E35"/><path d="M560.56 441.449C571.58 441.449 580.514 450.383 580.514 461.403C580.514 472.423 571.58 481.357 560.56 481.357C549.54 481.357 540.606 472.423 540.606 461.403C540.606 450.383 549.54 441.449 560.56 441.449Z" fill="#364750"/><circle cx="383.454" cy="410.049" r="4.65381" fill="#1F2E35"/><circle cx="489.632" cy="252.414" r="4.65381" fill="#1F2E35"/><path d="M631.564 393.665L635.576 378.819C635.576 378.819 589.142 376.425 563.354 388.449C525.272 406.205 495.946 472.307 495.946 472.307L505.576 485.147C509.855 484.879 521.545 483.863 535.668 454.653C549.792 425.443 605.617 399.55 631.564 393.665Z" fill="#1F2E35"/></svg>