<svg width="1080" height="1081" viewBox="0 0 1080 1081" fill="none" xmlns="http://www.w3.org/2000/svg"><path d="M649.445 798.295C649.445 847.552 598.162 887.479 534.901 887.479C471.64 887.479 420.356 847.552 420.356 798.295C420.356 749.038 471.64 709.11 534.901 709.11C598.162 709.11 649.445 749.038 649.445 798.295Z" fill="#AFAFAF" fill-opacity="0.05"/><path d="M506.151 771.782C508.609 761.417 519.004 755.006 529.37 757.463C539.736 759.92 546.148 770.317 543.69 780.682L536.31 811.807C533.852 822.172 523.456 828.584 513.09 826.127C502.724 823.67 496.313 813.272 498.771 802.907L506.151 771.782Z" fill="#1F2E35"/><path d="M563.368 757.12C554.627 751.031 542.604 753.181 536.515 761.922C530.426 770.663 532.576 782.687 541.317 788.776L567.339 806.901C576.08 812.99 588.103 810.84 594.192 802.099C600.281 793.358 598.131 781.334 589.39 775.245L563.368 757.12Z" fill="#1F2E35"/><path d="M502.333 592.853L566 601.217C566 601.217 566.06 650.885 566.09 675.718C566.119 699.716 566.177 747.711 566.177 747.711C566.177 765.365 551.866 779.675 534.212 779.675C516.558 779.675 502.246 765.365 502.246 747.711C502.246 747.711 502.246 701.217 502.246 676.643C502.246 652.069 502.333 592.853 502.333 592.853Z" fill="#2C3D46"/><path d="M634.893 609.683C634.893 647.815 629.797 659.216 622.495 659.216C611.45 659.216 606.501 634.491 605.501 610.491C604.501 586.491 612.774 566.759 622.495 562.874C629.061 560.25 634.893 585.699 634.893 609.683Z" fill="#1F2E35"/><path d="M646 554.216L605.501 569.134L611.456 609.683L662 591.068L646 554.216Z" fill="#3F515B"/><path d="M571 525.216C586 524.216 597 536.216 600 547.216C603 558.216 605.501 569.134 605.501 569.134L622.495 562.874C622.495 562.874 615 579.364 615 608.216C615 647.331 615.495 659.216 622.495 659.216C617.495 659.216 607.786 660.21 585 604.216C560.657 544.395 569.478 527.52 570.837 525.445C570.94 525.288 571 525.216 571 525.216Z" fill="#1F2E35"/><path fill-rule="evenodd" clip-rule="evenodd" d="M664 593.067C665.105 593.067 666 593.963 666 595.067V609.401L695.477 648.749C696.019 649.473 696.008 650.471 695.45 651.183C694.891 651.895 693.925 652.143 693.092 651.788L645.473 631.498C644.878 631.245 644.443 630.719 644.304 630.087C644.165 629.455 644.341 628.795 644.775 628.316L662 609.296V595.067C662 593.963 662.896 593.067 664 593.067ZM663.854 613.208L649.625 628.919L687.814 645.191L663.854 613.208Z" fill="#1F2E35"/><path d="M645.587 626.121L651.12 621.302L652.817 623.737C658.227 630.5 667.518 632.762 675.432 629.245L679.539 627.483L695.72 646.508C699.787 651.499 702.034 656.395 702.121 664.156C702.35 684.548 699.995 734.998 699.995 734.998C686.916 734.998 649.822 716.976 638.662 710.156L641.534 633.93C641.837 630.866 643.237 628.028 645.587 626.121Z" fill="#1F2E35"/><path d="M641.534 633.931L635.071 702.144L629.235 763.74C629.087 765.299 629.888 766.792 631.275 767.518C636.3 770.15 649.094 775.567 664.027 772.033C665.775 771.619 666.975 770.005 666.937 768.209L665.704 709.655L665 676.216L641.534 633.931Z" fill="#1F2E35"/><path d="M662 688.216L658.082 734.454L652.223 803.584C652.085 805.207 652.986 806.74 654.463 807.427C673.823 816.437 694.102 814.222 701.832 812.877C703.707 812.551 705.055 810.897 705.014 808.994L703.713 748.212L702 668.216L662 688.216Z" fill="#1F2E35"/><path d="M685 580.398C685 596.086 672.282 608.804 656.593 608.804C640.905 608.804 628.187 596.086 628.187 580.398C628.187 564.709 640.905 551.991 656.593 551.991C672.282 551.991 685 564.709 685 580.398Z" fill="#3F515B"/><path d="M502.333 592.851L517.477 491.374L580.708 500.811L566 601.215C560.073 606.562 548.478 611.596 530.812 608.959C514.593 606.538 506.184 599.237 502.333 592.851Z" fill="#1F2E35"/><path d="M375 547.216C375 573.216 379 601.216 389 601.216C399 601.216 409 526.216 397 497.216C375 488.216 375 547.216 375 547.216Z" fill="#1F2E35"/><path d="M365 467.216L435 532.216L416 568.216L344 502.216L365 467.216Z" fill="#3F515B"/><path d="M397.43 497.329C397.43 497.329 406 582.216 389 601.216C389 601.216 414 605.216 438 591.216C462 577.216 480 555.216 515 555.216C515 555.216 534 522.216 515 522.216C496 522.216 437 529.216 437 529.216L397.43 497.329Z" fill="#1F2E35"/><path fill-rule="evenodd" clip-rule="evenodd" d="M346.568 525.896L307.613 551.571L386.408 576.36L346.568 525.896ZM345 522.139V508.216H349V522.521L397.592 584.072L298.387 552.861L345 522.139Z" fill="#1F2E35"/><path d="M295.572 554.14L315.868 541.29C315.868 541.29 323 552.215 344 558.215C365 564.215 377.204 558.244 377.204 558.244L410.356 593.093C411.432 594.482 412.112 596.136 412.323 597.88L434.339 779.754C434.694 782.687 432.31 785.256 429.361 785.068C404.43 783.481 383.385 769.923 376.992 765.392C375.737 764.503 375 763.064 375 761.526V666.215C361.921 666.215 349.094 662.606 337.934 655.786L337 655.215L340.15 747.218C340.237 749.766 338.292 751.925 335.75 752.121C307.304 754.313 287.184 737.224 281.58 731.819C280.575 730.849 280.045 729.496 280.131 728.102L290.871 561.876C291.068 558.68 292.827 555.787 295.572 554.14Z" fill="#1F2E35"/><path d="M375 488.547C375 504.235 362.282 516.953 346.593 516.953C330.905 516.953 318.187 504.235 318.187 488.547C318.187 472.858 330.905 460.14 346.593 460.14C362.282 460.14 375 472.858 375 488.547Z" fill="#3F515B"/><path d="M593 450.215C650 450.215 700.687 485.849 697 526.215C695.753 539.864 709.133 540.215 716 526.215C724.274 509.347 757 443.215 732 318.215C702.917 172.798 536 450.215 593 450.215Z" fill="#2C3D46"/><path d="M735.504 404.393C735.504 417.38 724.976 427.909 711.988 427.909C699.001 427.909 688.472 417.38 688.472 404.393C688.472 391.405 699.001 380.878 711.988 380.878C724.976 380.878 735.504 391.405 735.504 404.393Z" fill="#3F515B"/><path d="M714.281 426.025C714.281 404.373 711.027 365.238 709.4 348.378L665.031 308.89L492 280.216C459.906 307.133 427.212 370.652 427.212 426.025C427.212 495.241 498.646 535.173 573.63 535.173C683.222 535.173 714.281 456.196 714.281 426.025Z" fill="#3F515B"/><path d="M483.291 385.732C478.014 382.621 459.225 370.712 446.581 362.518C442.922 360.147 438.009 361.57 436.286 365.576C433.803 371.348 430.683 378.843 426.913 388.115C419.759 405.713 428.905 420.268 447.069 436.625C456.457 445.079 467.527 450.311 476.179 453.424C482.546 455.715 489.387 452.047 491.531 445.63C492.661 442.248 493.783 438.605 494.598 435.25C501.423 407.141 491.266 390.434 483.291 385.732Z" fill="#4A5A62"/><path d="M557.976 415.729C563.918 417.217 585.66 421.922 600.418 424.96C604.689 425.839 607.189 430.301 605.605 434.364C603.323 440.218 600.284 447.746 596.461 456.997C589.205 474.554 572.475 478.501 548.056 477.403C535.434 476.835 523.878 472.792 515.53 468.937C509.387 466.1 507.089 458.686 510.065 452.61C511.634 449.408 513.392 446.025 515.166 443.064C530.034 418.251 548.995 413.481 557.976 415.729Z" fill="#4A5A62"/><path d="M487.405 430.129C484.925 437.503 476.936 441.471 469.562 438.991C462.188 436.511 458.22 428.522 460.7 421.148C463.18 413.774 471.169 409.806 478.543 412.286C485.917 414.766 489.885 422.755 487.405 430.129Z" fill="#131F24"/><path d="M547.689 456.031C544.426 463.094 536.055 466.175 528.992 462.912C521.929 459.649 518.849 451.278 522.112 444.215C525.375 437.152 533.746 434.072 540.809 437.335C547.872 440.598 550.952 448.968 547.689 456.031Z" fill="#131F24"/><path fill-rule="evenodd" clip-rule="evenodd" d="M516.098 441.544C530.817 418.056 549.182 413.528 557.976 415.729C563.918 417.217 585.66 421.922 600.418 424.96C604.689 425.839 607.189 430.301 605.605 434.364C603.323 440.218 600.284 447.746 596.461 456.997C595.855 458.463 595.184 459.833 594.447 461.114C580.681 459.86 558.741 455.765 533.168 447.506C527.633 445.718 521.927 443.735 516.098 441.544Z" fill="#2C3D46"/><path fill-rule="evenodd" clip-rule="evenodd" d="M495.127 432.941C472.136 422.695 448.136 409.218 425.646 391.776C425.99 390.569 426.411 389.349 426.913 388.115C430.683 378.843 433.803 371.348 436.286 365.576C438.009 361.57 442.922 360.147 446.581 362.518C459.225 370.712 478.014 382.621 483.291 385.732C491.046 390.303 500.863 406.225 495.127 432.941Z" fill="#2C3D46"/><path d="M503.127 472.428C503.272 479.788 493.37 483.525 486.687 480.438C480.004 477.351 476.094 469.199 480.427 463.248C483.444 459.104 490.508 453.299 495.884 449.039C498.5 446.966 500.332 448.848 500.654 450.73C502 458.591 503 465.966 503.127 472.428Z" fill="#2C3D46"/><path fill-rule="evenodd" clip-rule="evenodd" d="M503.378 508.152C500.974 498.706 492.223 494.24 483.572 494.627C481.972 494.698 480.617 493.459 480.545 491.859C480.474 490.259 481.713 488.904 483.313 488.833C493.889 488.36 505.732 493.888 508.999 506.721C509.394 508.273 508.456 509.852 506.904 510.247C505.352 510.642 503.773 509.704 503.378 508.152Z" fill="#2C3D46"/><path d="M465.708 542.93C461.295 507.626 449.83 379.306 502 291.216C502 291.216 558.33 169.783 502 202.216C403 259.216 378 414.216 400 483.216C413.104 524.314 442.681 542.154 457.77 548.81C461.811 550.593 466.256 547.313 465.708 542.93Z" fill="#2C3D46"/><path d="M570.746 429.183C668.296 451.317 746 386.216 732 318.216C718 250.216 689.576 200.886 620 183.216C557 167.216 501.106 198.71 474.053 222.463C463.003 232.165 462.088 265.022 471.009 301.891C483.929 355.286 517.477 417.096 570.746 429.183Z" fill="#2C3D46"/></svg>