<svg width="1080" height="1080" viewBox="0 0 1080 1080" fill="none" xmlns="http://www.w3.org/2000/svg"><path d="M639.935 775.5C688.55 775.5 727.959 806.185 727.959 844.037C727.959 881.889 688.55 912.574 639.935 912.574C591.321 912.574 551.911 881.889 551.911 844.037C551.911 806.185 591.321 775.5 639.935 775.5ZM445.435 508.681C547.12 508.681 629.551 572.864 629.551 652.037C629.551 731.21 547.12 795.393 445.435 795.393C343.75 795.393 261.319 731.21 261.319 652.037C261.319 572.864 343.75 508.681 445.435 508.681Z" fill="#AFAFAF" fill-opacity="0.05"/><path fill-rule="evenodd" clip-rule="evenodd" d="M383.523 618.131C394.055 624.19 397.681 637.64 391.623 648.171L364.873 694.671C358.814 705.203 345.365 708.83 334.833 702.771C324.301 696.712 320.675 683.263 326.733 672.731L353.483 626.231C359.542 615.699 372.991 612.073 383.523 618.131ZM449.183 635.859C459.037 628.751 472.788 630.977 479.896 640.831L501.896 671.331C509.004 681.185 506.777 694.936 496.923 702.044C487.069 709.152 473.318 706.926 466.21 697.071L444.21 666.571C437.102 656.717 439.329 642.967 449.183 635.859Z" fill="#37444A"/><path d="M208.291 598.748C208.063 586.06 242.063 520.532 259.027 485.799L290.737 594.264C286.751 604.423 272.331 624.855 246.531 625.319C214.281 625.899 208.459 608.122 208.291 598.748Z" fill="#2C3D46"/><path d="M614.072 606.679C614.032 604.59 613.095 601.36 611.477 597.27C603.275 576.545 577.568 533.736 562.343 505.293C562.343 505.293 543.011 472.884 521.004 450.869C494.141 423.995 435.319 466.579 453.216 517.043C471.167 567.662 500.866 595.357 524.575 611.262C541.761 622.792 558.239 633.745 584.02 633.25C616.248 632.632 614.251 616.048 614.072 606.679Z" fill="#2C3D46"/><path d="M360.905 326.934C375.658 331.897 391.079 335.096 411.501 334.729C431.924 334.362 447.22 330.61 461.785 325.121C475.08 320.11 487.797 315.317 503.333 315.038C555.421 314.102 573.166 372.234 572.844 391.445L575.302 528.176C577.7 661.602 469.831 699.58 418.101 701.846C366.323 701.441 257.158 667.364 254.76 533.938L252.302 397.207C251.289 378.02 266.933 319.288 319.021 318.351C334.557 318.072 347.438 322.405 360.905 326.934Z" fill="#2C3D46"/><path d="M499.012 431.877C486.163 431.2 473.548 494.989 416.653 496.143C371.486 497.059 350.737 431.319 336.471 431.344C323.456 431.366 324.775 447.98 325.413 454.862C320.616 450.927 313.761 443.971 308.497 442.31C303.233 440.648 299.628 451.899 299.638 457.78C299.642 460.158 299.894 461.291 301.531 467.295C296.409 472.059 267.138 487.414 271.12 526.884C278.658 601.604 311.673 619.098 338.258 618.967C374.872 618.786 389.076 600.509 392.565 591.16L432.921 588.719C436.608 598.182 452.507 624.392 502.829 619.858C552.459 615.385 557.84 564.971 557.119 527.886C556.469 494.454 536.087 474.494 530.364 469.873C530.946 468.872 532.114 468.913 532.1 461.104C532.083 451.342 527.191 444.41 523.312 444.417C519.432 444.424 514.561 449.624 508.939 455.015C508.916 441.749 508.01 432.351 499.012 431.877ZM397.974 666.64C391.009 665.776 370.394 661.547 358.91 658.404C353.374 656.889 355.085 669.97 376.111 674.542C395.011 678.652 405.193 667.535 397.974 666.64ZM427.84 668.011C427.78 664.223 455.785 659.592 466.669 659.762C476.803 659.92 463.428 676.197 447.227 675.944C431.839 675.703 427.88 670.517 427.84 668.011ZM400.522 682.773C395.651 681.716 393.286 682.972 393.142 685.816C392.903 690.551 404.618 693.471 412.973 693.788C421.328 694.104 432.644 690.631 432.812 687.316C432.946 684.664 430.722 683.711 429.193 683.858C421.085 684.637 404.871 683.717 400.522 682.773Z" fill="#3C4D56"/><path d="M531.943 487.685C508.044 461.543 451.69 495.926 451.69 495.926C451.69 495.926 416.007 525.489 393.596 501.873C342.539 465.698 292.737 487.04 292.737 487.04L288.726 497.11C288.726 497.11 312.032 473.674 371.262 498.501C387.002 505.099 398.553 522.685 412.981 520.48C425.052 518.634 433.466 520.989 453.353 503.974C509.566 465.613 533.046 503.397 533.046 503.397C533.046 503.397 535.216 499.592 531.943 487.685ZM525.896 587.634C484.476 627.216 441.208 585.17 441.208 585.17C441.208 585.17 390.66 585.271 383.349 585.357C378.233 585.417 355.687 633.225 295.114 585.69C293.334 586.498 308.91 611.86 341.612 613.671C350.819 614.181 417.26 589.235 417.954 589.597C464.675 614.018 519.208 607.731 519.208 607.731C519.208 607.731 526.997 596.297 525.896 587.634Z" fill="#3C4D56"/><path fill-rule="evenodd" clip-rule="evenodd" d="M412.964 581.017C425.678 579.774 436.992 589.073 438.234 601.787L438.295 602.411C439.538 615.125 430.239 626.439 417.525 627.681C404.811 628.924 393.497 619.625 392.255 606.911L392.194 606.287C390.951 593.573 400.25 582.259 412.964 581.017Z" fill="#3C4D56"/><path d="M444.919 600.646C445.802 590.854 433.963 579.45 418.522 577.271C399.862 574.638 388.179 584.876 386.166 595.32C385.258 600.032 405.541 616.356 414.147 617.725C421.938 618.966 444.206 608.552 444.919 600.646ZM405.696 587.717C408.14 586.839 414.267 585.932 419.22 589.33L405.696 587.717Z" fill="#41535C"/><path fill-rule="evenodd" clip-rule="evenodd" d="M411.309 592.699C409.592 592.637 408.183 592.968 407.651 593.159C404.646 594.239 401.334 592.678 400.254 589.672C399.175 586.667 400.736 583.355 403.741 582.275C407.116 581.063 415.407 579.702 422.491 584.561C425.125 586.368 425.795 589.967 423.989 592.601C422.183 595.234 418.583 595.905 415.95 594.099C414.605 593.176 412.983 592.759 411.309 592.699Z" fill="#4A5A62"/><path d="M381.394 545.241C381.342 514.858 361.036 491.24 329.656 491.294C306.567 491.334 287.984 502.957 289.815 522.689C291.062 536.126 290.715 532.394 291.625 542.2C293.704 564.593 303.951 597.983 340.485 601.996C370.491 605.291 381.453 578.592 381.431 566.102L381.394 545.241Z" fill="#4A5A62"/><path d="M447.142 550.37C447.716 516.585 473.226 495.726 498.628 494.997C517.317 494.461 533.732 509.28 533.329 526.685C533.055 538.539 533.807 538.277 532.879 546.879C530.896 565.274 523.827 599.956 487.566 603.33C454.216 606.433 446.465 579.664 446.719 568.694L447.142 550.37Z" fill="#4A5A62"/><path fill-rule="evenodd" clip-rule="evenodd" d="M492.862 528.644C503.043 529.653 510.479 538.725 509.47 548.906L507.321 570.59C506.312 580.771 497.24 588.207 487.059 587.198C476.878 586.189 469.442 577.117 470.451 566.936L472.6 545.252C473.609 535.071 482.681 527.635 492.862 528.644ZM353.152 524.172C363.356 523.431 372.229 531.102 372.97 541.306L374.68 564.836C375.421 575.04 367.749 583.913 357.545 584.655C347.341 585.396 338.468 577.724 337.727 567.52L336.018 543.99C335.276 533.786 342.948 524.913 353.152 524.172Z" fill="#131F24"/><path fill-rule="evenodd" clip-rule="evenodd" d="M462.978 528.183C466.923 521.832 475.269 519.88 481.62 523.825L482.208 524.19C488.559 528.134 490.51 536.48 486.566 542.832C482.622 549.183 474.275 551.135 467.924 547.19L467.336 546.825C460.985 542.881 459.034 534.535 462.978 528.183Z" fill="#4A5A62"/><path fill-rule="evenodd" clip-rule="evenodd" d="M324.038 527.336C327.511 520.385 335.962 517.565 342.914 521.039L343.414 521.288C350.366 524.762 353.186 533.213 349.712 540.165C346.239 547.116 337.788 549.936 330.836 546.463L330.336 546.213C323.384 542.739 320.564 534.288 324.038 527.336Z" fill="#4A5A62"/><path fill-rule="evenodd" clip-rule="evenodd" d="M578.497 813.742C578.502 780.741 605.258 753.993 638.259 753.998L643.259 753.999C676.259 754.004 703.007 780.76 703.002 813.761C702.997 846.761 676.241 873.509 643.241 873.504L638.241 873.503C605.24 873.498 578.492 846.742 578.497 813.742Z" fill="#3C4D56"/><path fill-rule="evenodd" clip-rule="evenodd" d="M581.425 801.501C581.425 769.565 607.314 743.676 639.25 743.676H644C675.936 743.676 701.825 769.565 701.825 801.501C701.825 833.436 675.936 859.326 644 859.326H639.25C607.314 859.326 581.425 833.436 581.425 801.501Z" fill="#41535C"/><path fill-rule="evenodd" clip-rule="evenodd" d="M639.894 761.945C648.623 761.887 655.746 768.916 655.805 777.645L656.055 814.895C656.113 823.624 649.085 830.747 640.356 830.806C631.627 830.864 624.503 823.836 624.444 815.107L624.195 777.857C624.136 769.128 631.165 762.004 639.894 761.945Z" fill="#3C4D56"/><path fill-rule="evenodd" clip-rule="evenodd" d="M565.873 546.649C569.639 551.808 568.508 559.043 563.349 562.808C560.35 564.996 557.425 567.34 554.584 569.839L726.299 747.275C730.191 742.885 733.719 738.286 736.884 733.517C740.416 728.195 747.594 726.744 752.916 730.276C758.237 733.808 759.688 740.986 756.156 746.307C752.081 752.449 747.502 758.345 742.424 763.937L746.265 767.906C750.707 772.496 750.587 779.818 745.997 784.259C741.407 788.701 734.086 788.581 729.644 783.991L725.589 779.802C668.288 825.901 584.668 822.112 531.693 768.436C474.778 710.768 474.778 617.331 531.693 559.663L531.693 559.662C537.365 553.916 543.394 548.736 549.714 544.124C554.873 540.359 562.108 541.489 565.873 546.649ZM709.422 763.095L538.684 586.67C500.371 635.59 503.528 706.97 548.155 752.188C592.19 796.806 661.3 800.442 709.422 763.095Z" fill="#41535C"/><path fill-rule="evenodd" clip-rule="evenodd" d="M632.22 789.209C700.299 789.209 755.488 734.02 755.488 665.941C755.488 597.861 700.299 542.672 632.22 542.672C564.14 542.672 508.951 597.861 508.951 665.941C508.951 734.02 564.14 789.209 632.22 789.209Z" fill="#3C4D56"/><path fill-rule="evenodd" clip-rule="evenodd" d="M706.759 676.393C723.808 661.933 725.907 636.39 711.447 619.341C696.988 602.292 671.445 600.193 654.396 614.653L626.947 637.932C609.898 652.392 607.799 677.935 622.259 694.984C636.718 712.033 662.261 714.132 679.31 699.672L706.759 676.393ZM545.403 673.08C562.776 659.012 565.455 633.523 551.387 616.15C544.991 608.253 536.237 603.392 526.957 601.76C515.534 620.454 508.951 642.429 508.951 665.941C508.951 677.383 510.51 688.461 513.427 698.973L545.403 673.08ZM626.821 789.093C596.709 787.795 569.397 775.695 548.664 756.57L562.405 744.916C579.454 730.456 604.997 732.555 619.456 749.604C629.063 760.932 631.361 776.008 626.821 789.093Z" fill="#2C3D46"/><path fill-rule="evenodd" clip-rule="evenodd" d="M537.698 745.07C522.29 726.684 512.147 703.737 509.588 678.548C524.385 667.797 545.18 670.375 556.867 684.733C568.963 699.595 566.721 721.448 551.86 733.543L537.698 745.07ZM684.478 554.265L655.753 578.377C641.077 590.696 619.192 588.786 606.873 574.109C600.341 566.327 597.809 556.518 599.061 547.183C609.611 544.244 620.732 542.672 632.22 542.672C650.901 542.672 668.612 546.828 684.478 554.265Z" fill="#2C3D46"/><path fill-rule="evenodd" clip-rule="evenodd" d="M650.079 607.635C659.788 599.333 660.929 584.733 652.627 575.024C644.325 565.314 629.725 564.173 620.016 572.475L610.327 580.76C600.617 589.061 599.476 603.662 607.778 613.371C616.08 623.08 630.68 624.221 640.389 615.919L650.079 607.635ZM737.454 686.299C746.683 677.467 747.005 662.825 738.173 653.596C729.341 644.367 714.699 644.045 705.47 652.877L685.214 672.261C675.985 681.093 675.663 695.735 684.495 704.964C693.327 714.193 707.969 714.515 717.198 705.683L737.454 686.299Z" fill="#2C3D46"/><path fill-rule="evenodd" clip-rule="evenodd" d="M578.475 621.156C585.574 615.375 586.643 604.934 580.863 597.835C575.082 590.736 564.641 589.667 557.542 595.447L542.838 607.421C535.738 613.201 534.67 623.642 540.45 630.741C546.231 637.841 556.672 638.909 563.771 633.129L578.475 621.156ZM745.163 654.538C752.318 648.828 753.49 638.398 747.78 631.242C742.07 624.086 731.64 622.914 724.484 628.624L709.622 640.484C702.466 646.194 701.294 656.624 707.004 663.78C712.714 670.936 723.145 672.108 730.3 666.398L745.163 654.538ZM572.085 682.451C579.159 676.639 580.181 666.193 574.369 659.12C568.556 652.046 558.111 651.024 551.037 656.836L546.302 660.727C545.681 659.04 544.773 657.425 543.571 655.955C537.773 648.87 527.33 647.825 520.244 653.623L508.99 662.831C508.964 663.864 508.951 664.901 508.951 665.941C508.951 678.285 510.766 690.206 514.143 701.45L531.3 687.412C531.925 689.12 532.844 690.754 534.064 692.238C539.876 699.312 550.322 700.334 557.396 694.522L572.085 682.451ZM739.412 715.228C746.497 709.431 747.542 698.987 741.744 691.902C735.947 684.816 725.504 683.772 718.418 689.569L686.983 715.289C679.897 721.086 678.853 731.529 684.65 738.615C690.447 745.701 700.891 746.745 707.976 740.948L739.412 715.228Z" fill="#41535C"/></svg>