<?xml version="1.0" encoding="UTF-8"?><svg width="1085px" height="837px" viewBox="0 0 1085 837" version="1.1" xmlns="http://www.w3.org/2000/svg" xmlns:xlink="http://www.w3.org/1999/xlink"><title>pt</title><desc>Created with Sketch.</desc><g id="pt" stroke="none" stroke-width="1" fill="none" fill-rule="evenodd"><path d="M194.727081,-7.86720712e-15 L890.272919,7.86720712e-15 C957.983768,-4.5710739e-15 982.537357,7.05010515 1007.29143,20.2887288 C1032.04551,33.5273525 1051.47265,52.9544946 1064.71127,77.7085686 C1077.94989,102.462643 1085,127.016232 1085,194.727081 L1085,642.272919 C1085,709.983768 1077.94989,734.537357 1064.71127,759.291431 C1051.47265,784.045505 1032.04551,803.472648 1007.29143,816.711271 C982.537357,829.949895 957.983768,837 890.272919,837 L194.727081,837 C127.016232,837 102.462643,829.949895 77.7085686,816.711271 C52.9544946,803.472648 33.5273525,784.045505 20.2887288,759.291431 C7.05010515,734.537357 3.0473826e-15,709.983768 -5.24480475e-15,642.272919 L5.24480475e-15,194.727081 C-3.0473826e-15,127.016232 7.05010515,102.462643 20.2887288,77.7085686 C33.5273525,52.9544946 52.9544946,33.5273525 77.7085686,20.2887288 C102.462643,7.05010515 127.016232,4.5710739e-15 194.727081,-7.86720712e-15 Z" id="Rectangle-3" fill="#78C800" fill-rule="nonzero"/><path d="M243.652212,99.6114328 L768.712555,181.965383 C782.01424,184.051708 792.448292,194.48576 794.534617,207.787445 L876.888567,732.847788 C879.541478,749.761829 867.980547,765.623978 851.066506,768.276888 C847.852858,768.780938 844.5799,768.776038 841.367776,768.262366 L317.697026,684.518822 C304.469214,682.403478 294.096522,672.030786 291.981178,658.802974 L208.237634,135.132224 C205.534084,118.226203 217.047461,102.329505 233.953482,99.6259549 C237.165606,99.1122836 240.438564,99.1073829 243.652212,99.6114328 Z" id="Rectangle" fill="#FFC800" transform="translate(542.500000, 434.000000) rotate(-45.000000) translate(-542.500000, -434.000000)"/><circle id="Mask" fill="#1CB0F6" cx="542.5" cy="434" r="186"/><path d="M356.896895,421.751055 C358.451166,397.843007 364.522593,375.166521 374.26622,354.566552 L728.293841,442.835551 C727.173188,466.798693 721.517978,489.576327 712.166857,510.329805 L356.896895,421.751055 Z" id="Path" fill="#FFFFFF"/></g></svg>