<svg width="278" height="224" viewBox="0 0 278 224" fill="none" xmlns="http://www.w3.org/2000/svg"><g clip-path="url(#clip0_5614_54683)"><path d="M62.6387 175.78C62.6387 115.231 111.723 66.146 172.272 66.146C232.216 66.146 280.923 114.254 281.891 173.967L281.906 175.78V176.695H259.92V175.78C259.92 127.373 220.679 88.1322 172.272 88.1322C124.35 88.1322 85.4106 126.592 84.6366 174.33L84.6248 175.78V176.695H62.6387V175.78Z" fill="#B053EC"/><path d="M80.3003 175.808C80.3003 125.014 121.477 83.8369 172.271 83.8369C222.558 83.8369 263.418 124.194 264.23 174.287L264.242 175.808V176.559H242.256V175.808C242.256 137.156 210.923 105.823 172.271 105.823C134.006 105.823 102.914 136.533 102.296 174.651L102.286 175.808V176.559H80.3003V175.808Z" fill="#CE82FF"/><path d="M97.9624 176.139C97.9624 135.1 131.231 101.831 172.271 101.831C212.9 101.831 245.913 134.437 246.569 174.91L246.579 176.139V176.726H224.593V176.139C224.593 147.242 201.167 123.817 172.271 123.817C143.663 123.817 120.418 146.776 119.956 175.274L119.949 176.139V176.726H97.9624V176.139Z" fill="#EDD1FF"/><path fill-rule="evenodd" clip-rule="evenodd" d="M61.6961 151.025C39.6953 151.025 21.8601 168.86 21.8601 190.861C21.8601 193.193 22.0606 195.479 22.4453 197.702L22.0613 197.701C12.3943 197.701 4.55762 205.538 4.55762 215.205C4.55762 224.872 12.3943 232.709 22.0613 232.709H150.824C160.491 232.709 168.328 224.872 168.328 215.205C168.328 205.538 160.491 197.701 150.824 197.701L148.185 197.701C147.551 181.816 134.473 169.132 118.432 169.132C110.937 169.132 104.088 171.902 98.8539 176.473C93.0853 161.583 78.6237 151.025 61.6961 151.025Z" fill="#DEAEFE"/><path fill-rule="evenodd" clip-rule="evenodd" d="M245.757 160.053C230.71 160.053 217.74 168.941 211.809 181.753C207.369 178.781 202.029 177.047 196.284 177.047C181.229 177.047 168.955 188.951 168.36 203.86L162.107 203.86C153.034 203.86 145.679 211.215 145.679 220.288C145.679 229.361 153.034 236.716 162.107 236.716H282.955C292.028 236.716 299.383 229.361 299.383 220.288C299.383 211.215 292.028 203.86 282.955 203.86L282.595 203.861C282.956 201.775 283.144 199.63 283.144 197.44C283.144 176.792 266.405 160.053 245.757 160.053Z" fill="#EACAFF"/><path fill-rule="evenodd" clip-rule="evenodd" d="M262.657 124.641L264.428 130.349L268.362 132.158C268.764 132.343 268.941 132.82 268.755 133.222C268.675 133.396 268.536 133.536 268.362 133.616L264.428 135.425L262.657 141.133C262.525 141.556 262.076 141.793 261.653 141.661C261.4 141.583 261.203 141.385 261.124 141.133L259.353 135.425L255.419 133.616C255.017 133.431 254.841 132.954 255.026 132.552C255.106 132.378 255.245 132.238 255.419 132.158L259.353 130.349L261.124 124.641C261.256 124.218 261.705 123.982 262.128 124.113C262.381 124.191 262.578 124.389 262.657 124.641Z" fill="white"/><path fill-rule="evenodd" clip-rule="evenodd" d="M89.6702 125.706L91.8971 132.881L96.8411 135.155C97.3442 135.386 97.5645 135.981 97.3332 136.485C97.2331 136.702 97.0586 136.877 96.8411 136.977L91.8971 139.25L89.6702 146.425C89.5061 146.954 88.9443 147.25 88.4153 147.086C88.0998 146.988 87.8528 146.741 87.7549 146.425L85.5281 139.25L80.5841 136.977C80.0809 136.745 79.8606 136.15 80.0919 135.647C80.192 135.429 80.3665 135.255 80.5841 135.155L85.5281 132.881L87.7549 125.706C87.919 125.177 88.4809 124.881 89.0098 125.045C89.3253 125.143 89.5723 125.39 89.6702 125.706Z" fill="white"/><path fill-rule="evenodd" clip-rule="evenodd" d="M217.639 48.1086L219.866 55.2839L224.81 57.5574C225.313 57.7888 225.533 58.3842 225.302 58.8874C225.202 59.1049 225.027 59.2794 224.81 59.3795L219.866 61.6529L217.639 68.8282C217.475 69.3571 216.913 69.6528 216.384 69.4887C216.069 69.3908 215.822 69.1437 215.724 68.8282L213.497 61.6529L208.553 59.3795C208.05 59.1481 207.829 58.5526 208.061 58.0495C208.161 57.832 208.335 57.6574 208.553 57.5574L213.497 55.2839L215.724 48.1086C215.888 47.5797 216.45 47.284 216.979 47.4482C217.294 47.5461 217.541 47.7931 217.639 48.1086Z" fill="white"/><path fill-rule="evenodd" clip-rule="evenodd" d="M251.399 142.715L252.543 146.402L255.084 147.57C255.346 147.69 255.46 148 255.34 148.262C255.288 148.375 255.197 148.466 255.084 148.518L252.543 149.686L251.399 153.373C251.314 153.648 251.022 153.802 250.747 153.716C250.583 153.665 250.454 153.537 250.403 153.373L249.259 149.686L246.718 148.518C246.457 148.397 246.342 148.088 246.462 147.826C246.514 147.713 246.605 147.622 246.718 147.57L249.259 146.402L250.403 142.715C250.489 142.44 250.781 142.286 251.056 142.372C251.22 142.423 251.348 142.551 251.399 142.715Z" fill="white"/><path d="M110.578 126.689L163.092 119.236C165.927 118.834 168.267 121.282 167.825 124.092C165.468 137.511 154.519 148.073 140.675 150.083C126.831 152.093 113.429 144.935 107.479 132.657C106.141 130.114 107.743 127.091 110.578 126.689Z" fill="#58CC02"/><path d="M212.197 87.4405L169.794 119.304C167.506 121.024 167.582 124.41 169.881 126.084C181.036 133.906 196.247 133.633 207.457 125.265C218.667 116.897 223.083 102.359 218.608 89.4695C217.757 86.7257 214.485 85.7204 212.197 87.4405Z" fill="#58CC02"/><path fill-rule="evenodd" clip-rule="evenodd" d="M132.234 87.7841L132.83 87.8026V87.8026L133.71 87.8271V87.8271L134.572 87.8475V87.8475L135.415 87.8638V87.8638L135.967 87.8724V87.8724L136.51 87.8793V87.8793L137.046 87.8843V87.8843L137.834 87.8884V87.8884L138.604 87.8884V87.8884L139.355 87.8844V87.8844L139.846 87.8794V87.8794L140.328 87.8725V87.8725L140.803 87.8639V87.8639L141.269 87.8534V87.8534L141.727 87.841V87.841L142.177 87.8268V87.8268L142.619 87.8108V87.8108L143.052 87.7929V87.7929L143.478 87.7732V87.7732L144.101 87.7402V87.7402L144.505 87.7158V87.7158L144.902 87.6896V87.6896L145.291 87.6615V87.6615L145.671 87.6315V87.6315L146.044 87.5997V87.5997L146.408 87.566V87.566L146.764 87.5304V87.5304L147.111 87.4929V87.4929L147.451 87.4536V87.4536L147.782 87.4123V87.4123L148.105 87.3692V87.3692L148.42 87.3242V87.3242L148.727 87.2773V87.2773L149.026 87.2285V87.2285L149.316 87.1778V87.1778L149.598 87.1252C149.645 87.1163 149.691 87.1073 149.736 87.0982L150.006 87.0427V87.0427L150.268 86.9854V86.9854L150.522 86.9261V86.9261L150.767 86.8649V86.8649L151.004 86.8017V86.8017L151.233 86.7367C151.533 86.6487 151.811 86.5555 152.067 86.4572C152.323 86.3589 152.592 86.2428 152.872 86.1089L153.085 86.0051C153.228 85.9337 153.374 85.8578 153.524 85.7775L153.75 85.6536V85.6536L153.981 85.523C154.02 85.5007 154.059 85.4781 154.098 85.4552L154.336 85.3145C154.376 85.2905 154.417 85.2662 154.457 85.2417L154.702 85.0909C154.743 85.0652 154.785 85.0393 154.826 85.013L155.078 84.8522C155.12 84.8248 155.163 84.7972 155.205 84.7692L155.464 84.5983C155.508 84.5692 155.551 84.5399 155.595 84.5103L155.861 84.3292V84.3292L156.131 84.1414V84.1414L156.406 83.9468C156.452 83.9138 156.499 83.8805 156.545 83.847L156.827 83.6422C156.875 83.6075 156.922 83.5726 156.97 83.5373L157.259 83.3224V83.3224L157.553 83.1008V83.1008L157.851 82.8723V82.8723L158.154 82.6371V82.6371L158.461 82.395V82.395L158.774 82.1462V82.1462L159.091 81.8905V81.8905L159.412 81.6281V81.6281L159.739 81.3588V81.3588L160.07 81.0827V81.0827L160.405 80.7998V80.7998L160.746 80.5101V80.5101L161.091 80.2135V80.2135L161.441 79.91V79.91L161.796 79.5998V79.5998L162.155 79.2826V79.2826L162.703 78.7941C162.764 78.739 162.826 78.6835 162.888 78.6278L163.45 78.1187V78.1187L163.831 77.7706V77.7706L164.411 77.2357V77.2357L164.803 76.8704V76.8704L165.401 76.3097C165.468 76.2465 165.535 76.183 165.603 76.1193L166.01 75.7333V75.7333L166.629 75.1415V75.1415L167.259 74.534V74.534L167.472 74.3281C172.152 69.7766 179.694 69.9188 184.246 74.5995C185.32 75.7412 186.195 77.1006 186.762 78.5781L199.972 112.992C206.897 131.033 198.044 151.253 180.185 158.443L179.641 158.657C161.394 165.591 140.971 156.549 133.976 138.326L120.742 103.85C118.402 97.7553 121.437 90.9397 127.593 88.5765C129.071 88.0093 130.605 87.7736 132.234 87.7841Z" fill="#58CC02"/><path d="M165.805 138.205C165.813 137.725 165.392 137.428 164.946 137.547L156.346 139.852C155.9 139.971 155.701 140.503 155.931 140.851C157.161 142.638 159.511 143.51 161.741 142.912C163.97 142.315 165.633 140.367 165.805 138.205Z" fill="#89E219"/><path d="M179.914 133.539L171.314 135.843C170.868 135.963 170.669 136.494 170.899 136.842C172.129 138.629 174.479 139.501 176.709 138.904C178.938 138.306 180.601 136.359 180.773 134.196C180.798 133.78 180.36 133.419 179.914 133.539Z" fill="#89E219"/><path d="M174.326 142.75L165.726 145.054C165.28 145.174 165.081 145.705 165.311 146.053C166.54 147.84 168.891 148.713 171.12 148.115C173.35 147.518 175.013 145.57 175.184 143.407C175.273 142.974 174.835 142.613 174.326 142.75Z" fill="#89E219"/><path d="M135.979 93.7413L150.112 100.748C150.879 101.09 150.987 102.107 150.452 102.737C147.595 105.599 143.201 106.297 139.504 104.396C135.808 102.495 133.794 98.5359 134.388 94.5641C134.559 93.7214 135.213 93.3999 135.979 93.7413Z" fill="#89E219"/><path fill-rule="evenodd" clip-rule="evenodd" d="M148.141 99.8728L148.24 99.9164C153.29 102.216 159.693 99.7582 162.276 94.5283C163.491 92.0703 165.244 96.7076 166.757 102.301L166.949 103.02C167.044 103.381 167.138 103.745 167.231 104.111L167.414 104.843C167.475 105.088 167.535 105.332 167.594 105.576L167.77 106.306V106.306L167.94 107.032V107.032L168.106 107.749V107.749L168.267 108.455V108.455L168.422 109.147V109.147L168.571 109.823V109.823L168.782 110.8V110.8L168.914 111.421V111.421L169.099 112.304V112.304L169.317 113.371V113.371L169.459 114.077V114.077L169.615 114.874V114.874L169.775 115.715V115.715L169.834 116.041V116.041L169.837 116.066V116.066L168.82 116.436V116.436L168.058 116.721V116.721L167.086 117.09V117.09L165.546 117.687V117.687L164.515 118.093V118.093L163.373 118.547V118.547L157.155 120.934V120.934L156.606 120.013V120.013L156.073 119.113C155.985 118.965 155.898 118.817 155.811 118.671L155.3 117.801V117.801L154.804 116.952C154.723 116.812 154.642 116.673 154.562 116.535L154.088 115.716V115.716L153.63 114.917V114.917L153.187 114.139V114.139L152.759 113.381V113.381L152.346 112.644C152.21 112.401 152.078 112.162 151.948 111.927L151.565 111.23V111.23L151.197 110.554C151.137 110.443 151.078 110.333 151.019 110.223L150.674 109.578V109.578L150.344 108.952C150.076 108.44 149.823 107.948 149.586 107.478L149.309 106.924C146.57 101.397 146.177 99.0376 148.141 99.8728V99.8728Z" fill="#89E219"/><path d="M131.494 98.4305L145.404 105.593C146.171 105.935 146.279 106.953 145.744 107.582C142.887 110.445 138.493 111.142 134.797 109.241C131.1 107.341 129.086 103.381 129.742 99.3857C129.828 98.5052 130.728 98.0891 131.494 98.4305Z" fill="#89E219"/><path fill-rule="evenodd" clip-rule="evenodd" d="M137.207 99.6997L137.577 99.5579C144.779 96.7929 152.812 100.42 155.553 107.561L158.2 114.457C160.965 121.66 157.337 129.692 150.196 132.433L149.827 132.575C142.624 135.34 134.592 131.713 131.85 124.571L129.227 117.738C126.462 110.535 130.004 102.465 137.207 99.6997Z" fill="#89E219"/><path d="M167.255 81.739L161.626 96.3317C161.285 97.0984 161.885 97.9274 162.704 98.0368C166.743 98.2525 170.475 95.8309 171.95 91.9449C173.409 88.1011 172.297 83.8618 169.214 81.3215L169.112 81.2383C168.482 80.7029 167.535 80.9958 167.255 81.739Z" fill="#89E219"/><path d="M173.911 82.1515L168.305 96.8058C167.964 97.5726 168.564 98.4015 169.383 98.5109C173.422 98.7266 177.154 96.305 178.629 92.419C180.104 88.5329 178.952 84.2427 175.791 81.7124C175.199 81.0918 174.252 81.3848 173.911 82.1515Z" fill="#89E219"/><path fill-rule="evenodd" clip-rule="evenodd" d="M170.02 87.1054L170.389 86.9636C177.592 84.1987 185.624 87.8258 188.365 94.9672L191.012 101.862C193.777 109.065 190.15 117.097 183.009 119.839L182.701 119.957C175.56 122.698 167.551 119.133 164.748 112.015L162.04 105.143C159.242 98.0358 162.685 90.0553 169.803 87.1907L170.02 87.1054V87.1054Z" fill="#89E219"/><path fill-rule="evenodd" clip-rule="evenodd" d="M158.271 117.96L167.522 114.409L171.012 123.501C171.993 126.056 170.717 128.922 168.162 129.902C165.608 130.883 162.742 129.607 161.761 127.052L158.271 117.96Z" fill="#F49000"/><path fill-rule="evenodd" clip-rule="evenodd" d="M162.511 115.689C164.273 115.013 166.249 115.893 166.925 117.654L169.007 123.078C169.684 124.839 168.804 126.816 167.042 127.492C165.28 128.169 163.303 127.289 162.627 125.527L160.545 120.104C159.869 118.342 160.749 116.365 162.511 115.689Z" fill="#B86D00"/><path fill-rule="evenodd" clip-rule="evenodd" d="M166.914 123.364C167.615 123.095 168.343 123.031 169.034 123.143L169.067 123.238C169.63 124.957 168.751 126.834 167.043 127.489C166.109 127.848 165.114 127.769 164.285 127.353C164.218 125.646 165.231 124.01 166.914 123.364Z" fill="#FFAADE"/><path d="M161.314 113.559C164.331 112.401 167.805 113.54 169.423 116.098L169.518 116.344C169.589 116.529 169.574 116.675 169.366 116.685L162.835 120.685L162.589 120.78V120.78L157.175 121.364C156.99 121.435 156.905 121.397 156.834 121.213L156.74 120.966C156.207 117.921 158.112 114.788 161.314 113.559Z" fill="#FFC200"/><path d="M163.767 116.08L163.683 116.111C163.607 116.137 163.545 116.148 163.435 116.137C162.517 116.136 161.778 116.42 161.219 116.988C160.797 117.362 160.21 117.304 159.86 116.944C159.486 116.523 159.543 115.936 159.903 115.585C160.846 114.729 162.016 114.28 163.413 114.238C163.976 114.234 164.411 114.632 164.416 115.195C164.411 115.551 164.136 115.939 163.767 116.08Z" fill="#FFDE00"/><path fill-rule="evenodd" clip-rule="evenodd" d="M139.682 104.12C144.668 102.206 150.291 104.71 152.205 109.696L154.309 115.175C156.204 120.112 153.769 125.673 148.882 127.641L148.733 127.699C143.746 129.613 138.123 127.11 136.209 122.123L134.106 116.644C132.191 111.657 134.695 106.035 139.682 104.12Z" fill="white"/><path fill-rule="evenodd" clip-rule="evenodd" d="M146.138 109.826C148.478 108.928 151.119 110.104 152.017 112.444L153.324 115.847C154.222 118.186 153.046 120.828 150.706 121.726C148.367 122.624 145.725 121.448 144.827 119.108L143.891 116.668C144.128 116.64 144.366 116.581 144.6 116.492C146.13 115.904 146.894 114.188 146.307 112.658C145.979 111.804 145.3 111.188 144.497 110.913C144.945 110.448 145.498 110.072 146.138 109.826Z" fill="#4B4B4B"/><path fill-rule="evenodd" clip-rule="evenodd" d="M171.511 91.8996C176.498 89.9854 182.121 92.4889 184.035 97.4756L186.138 102.955C188.033 107.892 185.599 113.452 180.711 115.42L180.562 115.479C175.576 117.393 169.953 114.889 168.039 109.903L165.935 104.423C164.021 99.4368 166.525 93.8138 171.511 91.8996Z" fill="white"/><path fill-rule="evenodd" clip-rule="evenodd" d="M176.304 97.7313C178.643 96.8332 181.284 98.0092 182.183 100.349L183.489 103.752C184.387 106.092 183.211 108.733 180.871 109.631C178.532 110.529 175.89 109.353 174.992 107.014L174.085 104.651C174.148 104.632 174.21 104.61 174.272 104.586C175.803 103.999 176.567 102.282 175.98 100.752C175.685 99.9852 175.107 99.4107 174.411 99.1023C174.896 98.5065 175.537 98.0254 176.304 97.7313Z" fill="#4B4B4B"/><path fill-rule="evenodd" clip-rule="evenodd" d="M171.53 116.85C174.854 111.549 180.354 107.187 188.029 103.764C188.971 103.652 189.418 104.35 189.371 105.857L189.363 106.038C189.361 106.069 189.359 106.1 189.357 106.131L189.343 106.324V106.324L189.323 106.523C189.312 106.625 189.3 106.729 189.286 106.837L189.255 107.055V107.055L189.22 107.281V107.281L189.18 107.514V107.514L189.136 107.755V107.755L189.087 108.003C189.078 108.045 189.07 108.088 189.061 108.13L188.994 108.437L188.922 108.755L188.843 109.082L188.757 109.421C188.743 109.478 188.728 109.536 188.712 109.594L188.617 109.947L188.516 110.312L188.408 110.686L188.295 111.071L188.143 111.567V111.567L187.982 112.079L187.914 112.289V112.289L187.703 112.933V112.933L187.554 113.375L187.399 113.828L187.237 114.291L187.069 114.764L186.895 115.248L186.714 115.742L186.621 115.993V115.993L176.733 119.789L171.53 116.85Z" fill="#89E219"/><path fill-rule="evenodd" clip-rule="evenodd" d="M156.906 125.066C150.889 123.351 143.883 123.789 135.888 126.382C135.05 126.974 135.277 127.71 136.571 128.588L136.725 128.69C136.752 128.707 136.778 128.724 136.806 128.741L136.974 128.845C137.003 128.862 137.032 128.88 137.062 128.897L137.244 129.003V129.003L137.458 129.122L137.569 129.182V129.182L137.8 129.304L137.921 129.365V129.365L138.169 129.489L138.43 129.614V129.614L138.702 129.741L138.986 129.869C139.034 129.891 139.083 129.912 139.132 129.934L139.434 130.065L139.747 130.197L140.072 130.331L140.408 130.466L140.756 130.603L141.116 130.742L141.488 130.882L142.067 131.095V131.095L142.468 131.239L142.88 131.385L143.305 131.532L143.74 131.68L144.188 131.831L144.647 131.983L145.118 132.136L155.006 128.34L156.906 125.066Z" fill="#89E219"/><path fill-rule="evenodd" clip-rule="evenodd" d="M147.995 168.403C148.769 166.019 151.346 164.707 153.729 165.481L160.503 167.682C162.853 168.446 164.162 170.961 163.456 173.315L163.425 173.416C162.65 175.8 160.074 177.112 157.691 176.338L150.917 174.137C148.533 173.362 147.221 170.786 147.995 168.403Z" fill="#F49000"/><path fill-rule="evenodd" clip-rule="evenodd" d="M188.515 161.62C186.095 160.971 184.649 158.467 185.298 156.047L187.141 149.167C187.781 146.779 190.225 145.34 192.615 145.924L192.714 145.949C195.135 146.598 196.581 149.102 195.932 151.522L194.089 158.402C193.44 160.823 190.936 162.268 188.515 161.62Z" fill="#F49000"/></g><defs><clipPath id="clip0_5614_54683"><rect width="278" height="224" fill="white"/></clipPath></defs></svg>