<svg width="64" height="64" viewBox="0 0 64 64" fill="none" xmlns="http://www.w3.org/2000/svg"><path d="M43.6425 32.9052V21.621C43.6425 15.2029 38.4395 10 32.0214 10V10C25.6033 10 20.4004 15.2029 20.4004 21.621V32.9052" stroke="#D1D1D1" stroke-width="5.05262"/><rect x="14" y="25.8311" width="36.3789" height="27.2842" rx="2.69473" fill="#E5E5E5"/><path opacity="0.8" fill-rule="evenodd" clip-rule="evenodd" d="M34.4679 40.6418C35.3649 39.9582 35.9441 38.8765 35.9441 37.6591C35.9441 35.5919 34.274 33.916 32.2138 33.916C30.1535 33.916 28.4834 35.5919 28.4834 37.6591C28.4834 38.8771 29.0632 39.9593 29.961 40.6428L29.1795 42.211C28.3115 43.9531 29.1842 45.3677 31.1303 45.3677H33.2991C35.2384 45.3677 36.1185 43.9544 35.2498 42.211L34.4679 40.6418Z" fill="#AAAAAA"/></svg>