<svg width="116" height="138" viewBox="0 0 116 138" fill="none" xmlns="http://www.w3.org/2000/svg"><g filter="url(#filter0_d_5431_51953)"><circle cx="97.4974" cy="46.1598" r="34.5023" fill="#78C900"/></g><g filter="url(#filter1_d_5431_51953)"><circle cx="97.4974" cy="46.1598" r="34.5023" fill="#78C900"/></g><circle cx="97.4984" cy="46.1598" r="30.9762" stroke="#87E003" stroke-width="7.05207"/><path opacity="0.15" d="M132.002 46.1598C132.002 27.1047 116.555 11.6575 97.4997 11.6575C87.9721 11.6575 79.3466 15.5193 73.1029 21.763L121.896 70.5566C125.265 67.5817 132.002 58.5374 132.002 46.1598Z" fill="white"/><rect opacity="0.5" x="69.7656" y="5.35504" width="7.57315" height="7.57315" rx="2.23493" transform="rotate(-45 69.7656 5.35504)" fill="#D7FFB8"/><g clip-path="url(#clip0_5431_51953)"><g filter="url(#filter2_d_5431_51953)"><circle cx="57.0781" cy="78.0936" r="44.8368" transform="rotate(-15 57.0781 78.0936)" fill="#FFC800"/></g><circle cx="57.082" cy="78.0927" r="40.1302" transform="rotate(-15 57.082 78.0927)" stroke="#FEE333" stroke-width="9.41313"/><path opacity="0.2" d="M100.391 66.4875C93.9817 42.5686 69.396 28.3741 45.4772 34.7831C33.5177 37.9876 23.9894 45.7363 18.252 55.6737L95.9115 100.51C99.1392 95.6432 104.554 82.0245 100.391 66.4875Z" fill="white"/><path fill-rule="evenodd" clip-rule="evenodd" d="M56.3238 55.3186C55.0811 52.0481 50.4544 52.0481 49.2116 55.3186L38.9829 82.2364C38.0369 84.7259 39.8758 87.3919 42.539 87.3919L52.4608 87.3919L57.4314 100.472C58.6742 103.743 63.3008 103.743 64.5436 100.472L74.7724 73.5546C75.7184 71.0651 73.8794 68.3991 71.2163 68.3991L61.2944 68.3991L56.3238 55.3186Z" fill="#F89701"/><path d="M42.9745 84.3642C42.0718 84.3625 41.6791 83.2219 42.3894 82.6648L48.0876 78.1958C48.6021 77.7922 49.3609 78.0162 49.5738 78.6345L51.1172 83.117C51.3301 83.7352 50.8701 84.3789 50.2162 84.3777L42.9745 84.3642Z" fill="#E27800"/><path d="M70.9683 70.8945C71.871 70.8962 72.2638 72.0368 71.5535 72.5939L65.8553 77.0629C65.3408 77.4664 64.582 77.2424 64.3691 76.6242L62.8256 72.1417C62.6128 71.5235 63.0728 70.8798 63.7267 70.881L70.9683 70.8945Z" fill="#FFC700"/><path d="M72.3524 43.8962L69.0302 49.6503C68.5716 50.4448 68.8438 51.4607 69.6382 51.9194L75.3924 55.2416C76.1869 55.7003 77.2028 55.4281 77.6615 54.6336L80.9837 48.8794C81.4424 48.0849 81.1701 47.069 80.3757 46.6103L74.6215 43.2882C73.827 42.8295 72.8111 43.1017 72.3524 43.8962Z" fill="#FFF8D2"/></g><rect opacity="0.3" x="36.5859" y="14.3991" width="11.4861" height="11.4861" rx="2.97991" transform="rotate(-45 36.5859 14.3991)" fill="#FBE56D"/><defs><filter id="filter0_d_5431_51953" x="62.9951" y="11.6575" width="69.0044" height="72.6363" filterUnits="userSpaceOnUse" color-interpolation-filters="sRGB"><feFlood flood-opacity="0" result="BackgroundImageFix"/><feColorMatrix in="SourceAlpha" type="matrix" values="0 0 0 0 0 0 0 0 0 0 0 0 0 0 0 0 0 0 127 0" result="hardAlpha"/><feOffset dy="3.63182"/><feColorMatrix type="matrix" values="0 0 0 0 1 0 0 0 0 1 0 0 0 0 1 0 0 0 1 0"/><feBlend mode="normal" in2="BackgroundImageFix" result="effect1_dropShadow_5431_51953"/><feBlend mode="normal" in="SourceGraphic" in2="effect1_dropShadow_5431_51953" result="shape"/></filter><filter id="filter1_d_5431_51953" x="62.9951" y="11.6575" width="69.0044" height="73.2358" filterUnits="userSpaceOnUse" color-interpolation-filters="sRGB"><feFlood flood-opacity="0" result="BackgroundImageFix"/><feColorMatrix in="SourceAlpha" type="matrix" values="0 0 0 0 0 0 0 0 0 0 0 0 0 0 0 0 0 0 127 0" result="hardAlpha"/><feOffset dy="4.23124"/><feColorMatrix type="matrix" values="0 0 0 0 0.458824 0 0 0 0 0.694118 0 0 0 0 0.121569 0 0 0 1 0"/><feBlend mode="normal" in2="BackgroundImageFix" result="effect1_dropShadow_5431_51953"/><feBlend mode="normal" in="SourceGraphic" in2="effect1_dropShadow_5431_51953" result="shape"/></filter><filter id="filter2_d_5431_51953" x="12.2305" y="33.2457" width="89.6953" height="94.4155" filterUnits="userSpaceOnUse" color-interpolation-filters="sRGB"><feFlood flood-opacity="0" result="BackgroundImageFix"/><feColorMatrix in="SourceAlpha" type="matrix" values="0 0 0 0 0 0 0 0 0 0 0 0 0 0 0 0 0 0 127 0" result="hardAlpha"/><feOffset dy="4.71971"/><feColorMatrix type="matrix" values="0 0 0 0 1 0 0 0 0 0.756863 0 0 0 0 0 0 0 0 1 0"/><feBlend mode="normal" in2="BackgroundImageFix" result="effect1_dropShadow_5431_51953"/><feBlend mode="normal" in="SourceGraphic" in2="effect1_dropShadow_5431_51953" result="shape"/></filter><clipPath id="clip0_5431_51953"><rect width="94.1582" height="94.1582" fill="white" transform="translate(0 46.9688) rotate(-15)"/></clipPath></defs></svg>